<mxfile host="Electron" agent="Mozilla/5.0 (X11; Linux x86_64) AppleWebKit/537.36 (KHTML, like Gecko) draw.io/24.7.17 Chrome/128.0.6613.36 Electron/32.0.1 Safari/537.36" version="24.7.17">
  <diagram name="ページ1" id="WPQS8r6REW1-1vfhJ5NF">
    <mxGraphModel dx="2010" dy="1243" grid="1" gridSize="10" guides="1" tooltips="1" connect="1" arrows="1" fold="1" page="1" pageScale="1" pageWidth="1440" pageHeight="930" math="0" shadow="0">
      <root>
        <mxCell id="0" />
        <mxCell id="1" parent="0" />
        <mxCell id="cKSOxROYp1qDdP5C8qVP-4" value="" style="shape=image;verticalLabelPosition=bottom;labelBackgroundColor=default;verticalAlign=top;aspect=fixed;imageAspect=0;image=data:image/png,iVBORw0KGgoAAAANSUhEUgAAAwYAAAQkCAIAAABIZ54wAAAAA3NCSVQICAjb4U/gAAAgAElEQVR4nOzddYAU5f8H8M8zsXl7HcAdecfRJaiEAoqiqNjt186vgiAhDQZiIXbn1+7+qRggoBLSfXDUdef2zszz+2OOZdnr424PjvdL/tiZnT5k3vck45wTAAAAwMlNaO0LAAAAAGh9iEQAAAAAiEQAAAAAiEQAAAAAhEgEAAAAQIhEAAAAAIRIBAAAAECIRAAAAABEJIXmNFu37YyICO/cKamB27tc7iuuu1P/bDQav/nsraadNzMr58DBDP1zRHj4gP69q2/DOWeM6Z9ff/vDrKxc/fPll44bNKBv9W2OUV5+odPp4lzjnERR6NqlU7McFgAAAI5FKCLR36v/fWTRs0aDYeHDM/r37dWQXcxmExG5XG4iiomOavKpFz354u496fpnWZLef+eFdglx/m83bNr60SffDBk84PprLtXXHDqUtXrtBv3zRRec499y4pR5fXqlXn3F+JiYpl+M7rU331+xao3+OSW5y5uvPH2MB2wUzrmiKLIsh/KkTVBSWrZ6zQZRFEVREEXRYjEPPe2U1r4oAABoy1o8Ei397c+nlryqaZrX63tw9sKFD80Yckp//au0PfsqK+1hYVZJkqoXwciyrEcixti+/QeDvtU0zedTPB5vRaV9xLBTJUmsfur1G7b48xAR+RTlrXc/njtzkr44fdaj6zduJaI96fsvGjcmPNxGRGFhVv/2/s9btu7csTNtx860b77/5T/XXX7TDVc29WEQEUVGRvg/22xhx3Kordt3lZSUhttsRqOBMcaJNFVTVMXr9Xm9Prfb7XS67A6n0+l0OJx2h7O8ovLAwYy+vXs8NHfqsZw3BCor7Yufe82/2DM1BZEIAABaVItHot179mmapn/2eLyz5z+x6JGZeir66Zdl3//fr/UeITMr547/Tq9jgx+//p8kWYJWut2e5195W/8sMKZxTkR/LP9r1JnDzhxxGhGdftopeiRyOJwffvr1vXfdTESyfOSByFLV56++/Un/4PP54uNi673guvkPS0SSdEzP/6+/133x9Y+N3WvFqjVLf/vzvHNHH8upW5rFYg5cbNcuvrWuBAAAThINbV5dVFSSkZndkD/+tji6SffdfuP1V/gXfT7f/EeeDiy8aSHPv/yW/0qmTLq7/eF36pPPvLw3fT8RXTr+/KTE9vrK735YWlZeQUSieKS0SRQFIjqUkfX36n/1NR3aJ5w75sxjvLDAUwhCXc/f5/MpilLHBiaTsWnX8MLL7+Tm5jdt3ybjnO/YmdbAjQOfEhFFRNha4IoAAACOaGgpxSOPP7tt++6GbCnL8q8/fhy45rabr2WMvf/Rl/qiy+WeNffxV198olEX2iifffn9L7/+qX/u3Sv1gvPPjo2Nnjl3ERE5HM5psxYuenhGn949br/luocfW0JEXq/v+x9/vemGKxkFV+AteeFNfynXbTdfG/SqPpSRlZtXIAqCqmk+n+L1ej0er8fr9bg9PkXx6aHGp1R99ilutyc9oBJw27Zdt941RdM0jWuaqul8iuLzKfoRFsyZMnrksNpu02QyNe35dOvWWRBD2tnw3/WbX3vrw/0HDj045b/jzju73u0VRQ1cDLMGlwICAAA0r4ZGooKC4mM5za03XeNwOr/6pqoGqqy8Yta8x2c/OPGqKy4ym0xMYNWzyMQpc7Nz8ogouVuXpxfNDfqWE+ca93q9ZeUVQYUlv/2x8vW3PtQ/C4Iw8d5bGWOnnzro4gvH6vV0FRWVk6cvmP3g/aPOHBofH1tQUERE3/2w1N/I2u+XX//cum2n/nlA/95njx4RtMHfq9e/+c5HTXokREROl+vgocw6NuCc1/GtLcyalNg+PNxmMhnNJpPJZDSbTRaz2Wq1WC0WW3hYhC3s/35ZturvtYF7jTpz6JwZ9zdXC+t6++Jl5+Qldmj309Ll+w8cIqIlL7zRLiF+0MC+dR/W5/MFLprN5tq2BAAAaBYNikSc86LikmM8031335KbW/DPmvX6YliYNbFDO0mSdu9JD7eFSZIUVIukHU4Dmqa53O6g61FV1elyhVmtvXp2D/zqi69/fO3ND/xJ4q7bb+iZmqJ/nnjvrdk5eRs2bSWiiIjw3r26C4JwyUXnvfnORzZb2MUXjVXVo0omiCghIXbQgL6btmyXZXnqpLurv/uNBkOTH0hD+AuoajT+wnPHX3huHRu89e7HQXno0ovPv//e2459QIGiopL/ffjF6nUbnE5Xzx4pN15/hX/AAr/MrJzX3/rwnzXr582aPGPqvYcysg4czFAU9bEnX3j3zWdtAS3ZqwuqMTQ3tYoQAACggRoUiYqLS6vHhcZijM2Zef/dE2ZkZeWeMqjfYw/NMJmMTqdr0tT5de944GDGDbdMqPGrO269/oZrL/MvPrXk1Z+XLvMvjh457JorL/YvSpL06ILpk6cvSE8/MH/2A/FxseXllWeNGu7z+cZfeK7FbOacFPXIm9jt8fbq0X3RIzN370nPzs6LiY4qLCqOjYkOzBNGYzNEIoExUZIEQWCMOOeaqvkOBwK1zkhUB875y6+/5y+W091287WB7bqa7J816xc+8bzeH5CINm3evmnz9qCwxTlf9NSLu9PSiejJZ15+fvEjj8ybdvt/p3q9vuKS0rff/XjyxDvrOIXPd1QkanIVIQAAQAM1KBIVFBYFLo6/8NzLLj6/to3raDJsMZsfnjvtg4+/nDV9osEg0+Hxh5osqF9SUEBJ27v/truDe5s7nM6+fXr279vLbndcevVt+sr3Pvi8+sEnTJ4TuKj3Cf/t/z4J7CZmMBoiImwx0VER4eHh4WHh4bbwcJstzGq1WEwmo9FoMBgMBoNsMBgMsiTLssFg+Hnpsg8/+VrffdDAvosfn1fjE/N4vC63u2mlUKqqPvPc6z//uty/RhTFqZPuakgjnnqt/XfTvIefrl589e33v3i93ukP/FdfZIw9PHfq3RNmlJVXeDzehU88//Zrz9xw7eXvvv8ZERUUFtdd4xZUStQs0RMAAKAODYxERzUkSknu0uQxl7t17bRgzhT/ImNMEAT9/Roebmsf0Nf6wMEMr9dHREajsUvnI8NeV1bacw73lhKPbiN8283X/vbHSofDmZTYPis7t7ZOVR3aJRCRtfEtdo1GY1C3+bFjRo4dM7JRBwkci0hgQm0J0mg0NC0HuN2ehxY+s/bfTf41ZrNpwZwpp586qAlHC7L/QMbDjy2prTrvp1+WxcfF3vyfq/TF+PjYebMmT535CBFlZed+9OnXN15/xY6daZdcdN7wYUPqPlFQKZGhhSsoAQAAGhSJCo+ORMc+Nk8gf1HB8KGDZ0y9z7/+5jsmZ2RmE1GXzkmvBXRP+3v1v3Mfeqpq36MbZdvCrOPGnnXgYObEe2+95c4H6j2vKIqNqhAMHLWogTwez6GM7IMZWSajoX27+ORuXZprYpAalZWVz5r3ROAYB7Gx0Ysentk9peuxH7zS7pj38FP++rIavffB57Ex0ReOG6MvnjKo39gxI3/9YyURffP9L9dfc+mTj82pY3e/oFIivUwRAACg5TSl4iw+LqYlLsXhcOUElOv429N4vb7A9cUlpXUc5D/XXWGzWd1uz203XxtuC9t/IMM/GuRNN1zZvl2CoihhYVXlQ4Ig6JFoQP/e+lCNNXrh5bd37NpD9Q0jFCQrO/elV99dt35zYK+xDu0TunTu6F9s3p7wBw5mzJ7/RF5+oX/NgP69589+IDoq8tgPzjlf+PhzgT8IURTvveumHj1Snnnudf9EckS05IU3IiJsZww/TV+8586b/lm74dTBA+6540ajsaGtpBGJAAAgxBoUifILjopEcXGxROTz+QoKiwXGoqIimzxmYKBVf68N6h6lq6N5dXX6mH4Wi1lvR7x8xT/+SDT0tFOCuqf5y2tsYWGp3bvVdkx/FVvDy3e+/u7n195431dtoMWc3PzAVCE0X4nR2n83PbLoWafT5T/y9ddedutN1zQqxtXhzXc+Xrd+c+CaiffedslFY4loyVMLJk6Z6x8YU9O0Rx9/7ulFc/v3601EUVERH7zzQmREeKNOF/ToDMf9pGwAAHCia3TFmSxJvy9b9dMvf+zbf0gv/2CMdU/peu6YkZdcNDZotJuy8oqJD8yNCLeJkqS//jXOXS63w+G449brzxo1vFnvhYhI07QmhIC//ll31nlXNdc1bN+x++XX3gtqcONvMhWouSrRPv/qh9ff+tB//Pj42CkT7xQE4e33PikoLC4uKS0pKVMUxRYWFhMT1atHyqCBfXv3Sm348f9Y/tcnn38buOacs8/U8xARRUaEP/XY3AmT55SUlulrvF7f7AVPPr/44eRuXfQNGntHQRWax/88tQAAcKJrdMWZT1FeePntwG8553v27t+zd//3P/765MLZ7dsnHPlK41nZuVnZR03xoateFdKpY+LgQf38i78tW2W3O4goMiI8MDzl5BWsXbextku9+Y7J5RWVJqNRkiWBMafL5f9qwaPPGAyyxrniU4xGwwfvvFDvjTeBoiiPPfmCP53Ywqx33nbDqDOHhoVZM7NyPvj4qz+W/+XfuKLSfoyn83g8Ty15ddmff/vX6C2WHl70bG2NfvT5Sbp07njLjVePOnNovafYnZb+1JJXAtd07pQ4ddLdgWvat4t//NFZk6bNd7s9+hqHwzljzqIXn13YvknTkwWNXt3YVlwZmdlJie2bq4QMAABOBvW/aRRFKS0rb8ixMrNy7p82/61XFjdkRqrq3ct79+p+/323+xc3bNqmR6KEhLjA9X+v/reOSMQ5r6y0V9YUNQqLjpR1xcW2SHMoItq0eXtga56H50/zj2HYuVPSnBn35+YV7Ny1R1+ze/fewqLiJl9MVlbugoWL9x/ICFyZm1eQm1dQ774HD2U+tPCZs0YNn/3g/ZIk1rZZXn7h7AVP6F3/dCaT8eF506pXlaZ27zZv1uTA/vnFJaXTZz364pKFUVERjbgrIqrWlkiWGldK9PFn3+bnF86dOSkmJqqxpwYAgJNT/ZGosKgkaFoJQRDat4uPi40pLSs7lJEd+FVRUckLr7w9b9Zk/xpZliMibAZZZoyVlpUfaexS7Tf4oqKSfwNaq/gLORwOZ+D6PXv3N+jOGmPI4AHTJt9d27ePP/3Slq07G3iofQEBpUP7hKAxnRljfXqn+iORxvkfy/++9qqLqfF+X7ZqyQtv1NH/S5LE6KjImJjoyIjwiopKvQYtqPJu+Yp/FEV9ZP60Go9QXFw6dcbDpaVHBeLpD/y3c6ekGrcfPnTI/ffd/tyLb/rXZOfkTZo2/5kn5zc29ilHV5xJjSwl2p2291BG9q13T7n95msvHHdOHZkPAABAV/+bJiY66tEF07ds3bll2859+w4OH3bqvXff7K8NOXgo89HHn9enr9L9uXL1Hbder28QGRm+9IeP/C1mFj/32v/9/EfQ8f0v6fUbt67fuLX6BWRl5z4457Ear02rNgXYaUMG+hTFZDRKkigIwsGMrH9WV00hMnbMyNjYaH1e1aC9GGOiUOtbs/r8a3VwB8w9otTUwz/j6BDpj0cNV1Ze8eIr7wRWlvkZDPKggf2GDx089NRT4uJigtoqeTzeZX/+9c33S/emH4mVq/5e+9sfK8+tNrpSbl7BzLmLco4e2+nqK8ZXn+gt0CUXjS0sKv7o8FiUpJcdTpm35MkFgTWq9VKPrjiTxEZkGqfLlZmZQ0SVlfbnXnrrm+9/ee/NZxu+OwAAnJzqj0QGg3zG8NP0PtVOp8tsNgW+aLt07vjUY3Nuun2Sv9WOpmmr16y//NILqAHNhxVFrXtm03p29wWHG72KzeFw6t3Elq/4xx+JLr34/F49u+flF7ZLiAva69/1m6+6odZSokaJjYn2fy4oKFqzbuPQ007xr9mwaWtQv63GTh739bc/vfvB53qVYqCkxPY33nDlyBGn19H7z2g0jDvv7HHnnf3Sa+8GzvXx0affBEUizvmMOY9lZuUErjxtyMC77/hPvVd4xy3XlZaW/fTLkZlV8vIL7582/5kn5nfqmFjv7jqNH904vTGjFaxZuzEwK3fr2sRhRQEA4KTSuPqIoAk0dDExUaNGDgucXGzn7r2XN+yALperZ2qKwWgwGg1BJQGbtmzX2+parZb+fXsFfsU5VzXN4/FWb6P9+7JVS3/7c/PWHe++8WxSYvvqZ5w642HG2IXjxlx3dfC8983i1CEDGGP+nPfQwmeuufLigQP6eL2+DZu2fvPdz0ERsKSkrFHH37Zjd1Aeio+PvfmGq84fO7rhrYkn3HNrcXHZnyv/0RcPZWRlZuV0TOrg34AxduP1Vyx66kX/muRuXRbMndLAU0ybfI/T6fYfn4iKikomTVuw+PG5eh+0enHtqKfUqNwc2ICdiEaecXrD9wUAgJNWo4djrlFqSteflx5ZbHjJh80W9uqLj9f4lX/06qTE9osemdnAA27ctE2vfVu9ZsNVV1wU9K3T5crNK+Ccb9y0rYUiUUJ83Hnnjvrl1z/1RY/H+/5HX77/0Ze1bd+QpuiBJt572/qNW/VUxBi77upLbr3pGn2aEY/Hs3P33sysnPz8wsiIiE4dOww+pX/QDCR+l18yLjCyZOfkBUYiIjp3zMjfl63Sy7RiY6OfeHSWxVxDIK4RY2zOjPu9Pq+/iI6IysrKH5j+0JOPzQkaHarmIwhHlS8G1aPVoby8MrDlmdFoOK05ZjIBAIA2r3kiUdBE5Q6HsyF7bd+x++dfl1utFkmUqtew+bu5FRYWv/nOR9V317vTV9odN91wZYfD7VSGDR2iT3f6z5r11SPR7t3pennDwP59AtcPHzbk0fnTa7vOGXMXrd+wpSF3pJt47205Oflbt++q8VtZkgYO7Ot/bSfEB9fi1S06KvKu225Y8sIbtjDrrAcnDjt9MBFxzn9euvyd9z8tLj5qaO+wMOtVl190/TWXVg9GsbHRgYvVa+KIaMqku269awoj9sSjs4K2r5ckiQ/PnTr/kcWr127wr6y0O6bNfPSRBdMGD+pf9+5Wy1Ez0Hm83gae990PPgtsK3bWqOENT3IAAHAyqz8Sbd2+yz/YDBGlpnSNjAzuUx3U6b2Bk3QWFpUEtjipTUlp2ceffVvHBpdfMs7/efCgfvqgiNt27A68bN2/G6qCyJDBAyigdsblcuslUjXyH6eBtTcWs/npx+d9+sV3n3/1Q1A67Nwpceqke1545cjATh2Taqjdq9tFF5yz78Cha6+6xN8o6o13Pvr08++qb2m3O959/7O/V/+7+In5tjBr4Ff5BYWBizVO0pIQH3fHLdfFxEQ3sLYriCRJj8yf9tDCJfpISDqnyzVz7qIHJt51wfln17Fv2NGT8paWlgUVYtVo/4GMH/7vt8A14y84t5FXDQAAJ6n6I9Grb7y/O+3INKJ33nbD9dcEVzkFzjNKRE0bna9ZWCzm1JRuu/ekq6q6K21v4Fec81V/ryOihPi41O7dOOf+4oRNm7ffeteUeg/e8DliDQb5phuuvOyScZu3bM/Oya+oqIyKiujTK7VXz+4//vR7+r6D/i3HnHVmA4/pxxibPOEO/+K/6zcH5aHAxkxEtGfv/umzHn3p2YWBZUVB5V61dQfTm8k3mSRJD82duvCJ51asWuNfqSjq08++un1n2oR7bqmxdRoRhYcfVZ+470CGPj1IHVwu9+LnXgscZaBf356NGqQbAABOZvVHou4pXQMj0dLf/rzysgsD2zUXFBYHFgMQUb8+PWs8VOCQxJy4xWLu2SPFarGIoiAIQlD3tDqaVxMR55wT+Xy+srKKoFqhHj2S9YiWtmd/Qnysf31+QVFBQRERnTV6OGOsehlSvQJHLGwIW5j1zBFHte39d/3mF19917/Yu1fqsfeHWvXPOv/nvn163nXbDT17JOfk5n/82be//r5CX5+2Z98HH391603X6IvZOXlfBvQ4S+3ereXGrpQkcd6syZL0UlCr55+XLjuUkfXyczUPr9Cta2dZkvyZ9Y/lf1128fl1nMXhcM6Y89iu3UeF4LvvuPHYrh0AAE4i9Ueis0YOD6yMyMjMnv/o4skT7tBrbfRxiTyeI009ZFmucZqIT7/4/rc/VvoXl/62YvaDE0+vvenrNf+5R08tCfFxDW9eTUQpyV30D/v2HwyMRO0S4r794p1/1qzvmZpCRG5PoyORz+dzuz1Nm+OWc/7dD0tfffN9n+9IrrrphiubcKggu9P2+T9fc+X4fn17ElHnTkmzpk+wWMzffv+L/tUXX/94zVUXW8zmrdt3LXhksSfg9q+47MJjv4w6iKI4+8GJkiQt/e3PwPV6Q6gaGY2Gnj1Ttm3frS/u2Jn2/kdf1va4Nm3e/tJr7wUOjkVEl1w0tg+KiAAAoMHqj0SDBvYdckr/wEEU167beN1N98ZER4mSqJe7BLru6kuCGhs5Xa4nnn45aJb73/5YmRAfe9vN19Y2dpHdXtUKxxUwT1lD9OjebdzYs84YftrgU/r/s2Z90LeREeE//7ps+849zzwx78UljxoMBoNBPngo8813Pp7w31sDx2UuLSt/7MkXRp857ILzz1YUxev1eb3epo2DvGXrzvc++Hzz1h2BK6+87MI6EmHDmUxHWm5t3rpDH0FK9987b/pj+V96Sy+Xy/3O/z7Nzs5bc/R0KIMG9B1T5+iLzUIQhBlT77WYTd8cjmiyLF80bkwdu4w6Y5g/EhHRu+9/tm795vEXnNO3T8+oqAivx5uZlZuZlfPT0mU7dqYF7durZ/f77rmluW8CAADaMtaQEV8qK+0Tp8w7lJFV75Z9+/R8fvHDgaPXrFu/+bkX36xt1q3OnZKuu/qS0087JWiydLfbM3n6Av2zJEkvPbuwtjOWlVcUFhYlJXYwm03Vv/1j+V8Ln3he/xwfF1NUVKIP4mcwyEt/+Fhf/92Pv7782ns+ny8szLpgzpQhp/Qnoty8ggdnL9QnrD1tyMDpD/y3sV2uiKisrHzNuk3f/bg0sOZR169vzyVPLqith3yjvP/Rl+++/5l/8ezRI8aeM6pL56Rwm03TtGeef335in9q27dD+4TXXnzCZgs79stooP99+MV7H3xOROedO3rmtPvq2FJRlJtun9SQ+dqCDOzf57GHZ9TWSgkAAKBGDYpERFRcUvr0s6/VMd8qEY0eOXz6A/cEvoqef/ltf8WNLi425vyxoz/4+KujLoKxDu0TEhLiYmOijUaDLMv+YRv1URlVVfWX03i9PofDWWl32O2OsvIKn89ntVq+/fxtSZK8Xt+qv9eWV1Tm5RdkZeUeysjSRyGqfqkGg/zL9x+t+3fT/z76MrABSnx87LtvLLGYzYueejGwms9qtdxw7WWXjD+vgT26v/3+l29/+CUjM6fGs48eOXzW9AnVx5lsmspK+613TSkuKa1/06OdNmTgzGkTmjAn6zH68effn33hzVdfeDy1e7e6t9y8dceseY83qtXXqDOHzplxvyw3z7MFAICTR0MjkW7V32t//On3jZu3BTaUZoz17JFy5WUXVp/96tc/Vj4eMAJy1y6dnlg4Oz4u5vOvfnjtzQ+OZSqPQGPOOmPuzElEpCjq+Rff0JB+YQJjCe3ic4+ewCu1e7dFD8/U507XNO2VN/4XOOsFEYWFWc85+8xxY8+q911eXFx6130PlpQGj0wtiuIN1152y41X1zvVSaPsTd//4JxFZWXl9W9KRETRUZE3Xn/FJePPa97LaLit23dVbzJfo91p6XMWPFn9SVbXqWPif++6KXD6FAAAgIZrXCTSORzOrOzcouISn0+JiLB169K5tiGYFUW56oZ79Ff1iGGnzn5wor8Madv23c+99FZQk9imeeD+Oy++cKz++cbb7tdru4KEhVkH9u8zaGDfDu0TFjy6OKjvmCiK1119yc3/uSqoJmvNuo1PL3k16H187dWX3H17/VN9rV23cea8owbmPv3UQXfedn3TxvipV0VF5Qcff/XbspXl5ZW1baOPEjnqjKHnjhnZXGVUIeB2e777cekfy/8OnK3WLyLCdvqppwwfOuSM4aeKjZkdFgAAIFBTIlGjvPv+Z5989u3dd9x4xWXBI9xwzjdv3fH7slW7dqcfysgKHFGmUV56dmGf3j30zzPnPa7X7jHGkhLb9+yR0jM1uW+fnt1TuvpLRL75/pcXXj4yWOLwoUNuv+W62jrDOxzODz7+6utvf9I7hPfq2f2lZxc2cKqvSVPnb92+y2I2nz16xCXjz/N3hWs5mqal7dl34GBmTm6e0+nyeL0mo9FiMSfEx3Xt2im5a+emdZc7Tni9voLCosLC4qLiErPZFBUZERkZ0aF9QmuVdQEAQFvS4pGouKS0oKCo3mmtFEUpKSmrtNtdLrdPUVRV45pGREwfsEjw/8cEQZAkSZIkWZYMBtloMEREhPtfir/+vqKkpKxHanJq927Wo0dA9tM07eY7J+flFYw8Y+hVl1/Us0dKvXdRUFD06Rff/bR0+bNPLWjIFF26nbv25OUXjhh2qtHYoOG8AQAAoLW0eCQ6Pu1N3x8dHRUTHdWovZxOF/oxAQAAtEknaSQCAAAACNSgNjEAAAAAbRsiEQAAAAAiEQAAAAAiEQAAAAAhEgEAAAAQIhEAAAAAIRIBAAAAECIRAAAAACESAQAAABAiEQAAAAAhEgEAAAAQIhEAAAAAIRIBAAAAECIRAAAAACESAQAAABAiEQAAAAAhEgEAAAAQIhEAAAAAIRIBAAAAECIRAAAAACESAQAAABAiEQAAAAAhEgEAAAAQIhEAAAAAIRIBAAAAECIRAAAAACESAQAAABAiEQAAAAAhEgEAAAAQIhEAAAAAIRIBAAAAECIRAAAAACESAQAAABAiEQAAAAAhEgEAAAAQIhEAAAAAIRIBAAAAECIRAAAAACESAQAAABAiEQAAAAAhEgEAAAAQIhEAAAAAIRIBAAAAECIRAAAAACESAQAAABAiEQAAAK/qLtgAACAASURBVAAhEgEAAAAQIhEAAAAAIRIBAAAAECIRAAAAACESAQAAABAiEQAAAAAhEgEAAAAQIhEAAAAAIRIBAAAAECIRAAAAACESAQAAABAiEQAAAAAhEgEAAAAQIhEAAAAAIRIBAAAAECIRAAAAACESAQAAABAiEQAAAAARSa19AdBAXNNUzhXOVeIaJ07EiRgjRkxgTGRMEgSRiLX2dQLA8UhRVFXVVE3jnHPOW/tymgFjjDEmCoIoCpIktvblVMFzPqGxtvEza6s4V72eYo+3yO0usNvTHfb9Lle211OiqHbOFcYkSQwzGKPN5kRrWLewsBSTKd5oiDUYYxhr439xAaCBvD7F51Pa9j/1jDFZlgxya/6Sj+fcBiASHad8vrKKil3lZdtLS9eXlW11Og4IgleWRUkSRFEQBMaIceKaxlVVUxTN51M1zWCxdo2M7B8VNSQism94eC9Zjmzt+wCAVqOqqsfr07ST5R95QWBGgyyKof6FEM+5zUAkOu74fOWFBSvz838rLVlfWZlmsYjh4War1WQySQZZkmRRFAWBMcaIc9I0rmqa4lO9PsXtVhwOd0WFy+lUbbYeUdFDEhLOjYsfKcsRrX1PABBqPp/i8fpa+ypagdEgyyEsxsBzbksQiY4jnGslxWv27XujpGSdz1cQHWVJiI+wWk1GoyRJoiD42wlZGLMSSUQK5w4ip75W07iiqB6P4nC48wvKS0qdshwfHX1at+S7YmKGMoam9AAni5P2Pa0L2dsaz7mNpSJEouOFprp37Xri4IH3VK0yJtraqVOCLcwkigJjehISmdBREPsKQjfGwgO6CmqcV2raPk3dzrVMIpWIOOeqqlXa3RkZ+cUlDlGwdel6S6/eMwXB1Fp3BwAho6qqy+1t7atoZWaToaVrdvCcKSTPOZQQiVof52plZdqmDRNKSzdYLKbk5MS4uAiB+cuEJCYkSfIoJnQiEohUzjUi/0+NMSYQiUQa1zIU3wquZREp+nca54WF5fv2ZTud7qiowYMGv2Sz9UDLa4C2zelynzztWmojCMxibtlfAvGcKSTPOZQQiVqZqjrz8//YueNRj3tfbGxUt65JZrMc8L1BEPsL4mAikXOFSKv9SAJjEpGqqRs0dSuRzx+bXC7v/gPZRUWlRlNynz7z4hPGiKKlRW8KAFqL16d4T+KqnEAGg9xyfaPwnP1a9DmHGCJRa1IUR3bW13v2PMu17I4dOyQlJjDG9CjDucq5WxAHCuIAatTPiDFN3aKpmxkz+QuEOKes7PzMzBwmJKamPpCYdLkkWVvijgCgdTmcbvyrrmOMWS0tVYCB5+zXos85xNpIsjsRca5kZ3+btnuxKBZ1TekaFxutN6DmRJpmV5UiYlGC1EHjZY08LhHroGqbiOeIUqwgWBkxxigpsb3RaDxwIDNt92JirFOnaxnDTx+gTVEUFe9pP865oqgtMbognnOglnvOoYeXYqvJz1+2a+djkliWkpIcHR0hCHqLaU1VihQll2tO2dCPcwc16f87QUjyedM0bpek9pIUS8QEkcXFxYqivHfvvl07FxmN8e3ajW3WGwKAVqaqddStn4xUVWuJVzWec5AWes6hh0jUOuyV6Zs2TCQq6dY9NSYm5nC3Mu7zZSlKFnGViIjJvLFFRH5MJtK4Zvf59nPuleVOREwQxJiYGFXV0tL2bNow8cyR/xdmS2muOwKAVqdqeFUfpYUeCJ5zkDbzQBCJWoGiVG5Yf7fXm5+SkpKQ0O7wau7z7lOUbP9mmloqCE38e6Zp5YePqiq+Q8QV2ZBCxBijhIR2LpcnPT19w/q7R5z5rSTZjuVeAOD4gdqcIC30QPCcg7SZB4JIFGqa5k3f81J5+baEhHadO3fRJ2rl3Kf4DgbmISLStAzGOjb1LFmBi4qSTSRIchfGZCLq3LlLZaW9oGBb+t4XU3tMEwRDE28GAI4nbebN1FwQiUKjzTwQRKJQKylZn5n1pdksp6b2OtwjTFOVXEXJCdqSa/maYGKs0S35OXdznh+0UlFyGDNKckciiTGemtqzsvLfzMyvYuNGxcaOaOLNAAAAtBWIRCHl85VlZ33lcWf37t3LaDTr/e1VtUhRsvWBp4+maGoWY5HEGlOKw72clxGvPmCGqijZTAgTxXgiwWi0JCen7ty5Kzvzq4jwPrIBE8QCAMBJDZEopMpKtxQW/BkdHRkdHadPysE1h6Jkc+6ueQfu4byYmJExSa9iqxPnXCHu8Y9eXe1rt6JkCyycCVYiio6Oj47OLSxcUVa2JS5+1DHcFgAAwAkPU4GGjqI4ior+crkyOnToJElG/eGrWrGmFlNdXe0V4k6uVXJu59xZ+x871yqJO2vLQ0RExDW1WNWKiIhIkCRDhw6dXK6MoqK/FMXRvDcLAABwYkEkCh23K6egYHlkZKTNFiEIImMC5x5Vyalzmg4dJ9KIK8S9tf/Rp/uot42bpiq5nHsYEwRBtNkiIiMjCwqWu13BLZkAAABOKohEIcMdjgMV5duiouKNRiuRQMQ0tUzTSqu+5o2bt6Ox/MNGaFqpppYRMSLBaLRGRcVXlG9zOA40IE4BAAC0WYhEIaKp3uKif2RZsNkiBUEiEjiRqlaVzXg8fMUK32+/e/PztWYPRm4337hR+elnb2ZmVQtuVc3hRJwEQZBstkhZFoqL/tFUbzOfGAAA4MSB5tUhomne4pJ1FovNbAnnVQ2r3aparH+bm6vNf9hZUszPOku66ELDsKFyeHi9janrpyi0d6/y0y++n3725uZq908w332XyBipajHXfEyQOZHFGm6x2IpL1mmaVxCNx35SAACAExEiUYiomru8bHtcXLTZpNeakaaVEFV1lY+MZKcOkT79zPPlV961a5WzRsvXX2/s20cSj2HSmKIi7bsfvN995926TXU4eL++Yu/eYtXEIeTTtBJRCCMio9FqNFkKC7armlsijGQNAAAnKUSiEHE6MjTNbjIlCaKsr9HUIv+3kZHC3DmWsedKzyxxb96ifvSJd/kK39VXGf97t9FqbXTlJud8xUrlxZddWzarlXZus7EHHjDdcK2xQ4cjCUtTiySpMycSRdlktGhahtORYTTGHfudAgAAnIjQlihE7PZ9giAajRYigZHASDgyDRkREUVFsvPGGr/4zDZ/njkqig4c0J58yjXqrIrvf/D4fA1tXsQ5ZWSod//Xfu31lStXKi43P+88+cfvbLMetHTuLMrykS01rZyToF+M0WgRBNFu39eM9wsAAHBiQSlRiLjduYIgyLKR6ZOaEXFur75ZRIRw7z3mUSPl199wr1ipZGZp9010jD3Xe8ftpkEDJZOp1gZGmkY5OerX33rfetudm8vDrKx3b/Hmm43jzjfYwmrYi3M7ESNinEiSjYIguN25zXi/AAAAJxZEohDx+SoYEwRR5iQQMSLOec09vASB+vWVFj9lXbbc9/EnnlV/Kd//4Nu5U336Kevw4bJQSygqKNQWL3F98aXX66WePcRLLzVcfaWhY8da2yJx7iWqOpgoyowJPl/Fsd8mAADACQoVZyHCuUKMMSYyEogYI6HuERpNJjZ6tHzWaFmv7Sor53Y7r2PkII+bl5ZyRSEi6txJuGS8nJRUd9tsjZFAVXVnIhHjvI5hrwEAANo4RKIQYUwiTsSJmMCYQEwgqiuy7N+vLnzM+cJL7ooK3qWLcP8E85DBklD7j6tde+GO201nnSUbDLRipW/WXNfPv3i93joaIYmkXwYTOHEizphc+8YAAABtHCrOQkSWwznXVFVl+qBERIyZa2xO5PPxZct9L73s3rxF8XjojBHStKnmgQMki6WukYqMBjZsmNyli/jxJ+6XXnavXOnbl65u22a49VZTfFwNSYoxMyNBT0yaqnHOZTm8We4UAADgRIRSohAxmdprmqooXk5M7+olCDUMAlRRob30snvC/Y41axVFoQn3mT74n234MLnuPKSTROqYJEyfavniM1vnzkJmlvbs8+77Jtp3pynVR8Rmgo2ToNedKYpX01STqV2z3CkAAMCJCJEoRMLCkjVN9Xhch9sSMSYcNQiQotL27co99zmeeMrldtOggeKHH4TNn2uxWhs3jLUg0NDT5e+/Cb/5JmNEBFu5Urnq6spPPvOUl/OjN4tjxPQr8XhcmqaGhSU3w30CAMCxqay0f/DRZ2+89V52TtM7AldUVH7w4afHeJCTDSrOQsRi7SQIYW63Q1U1UZSISBQ7KL6t/g3S0pQbb7bn5GrtEoQLLpBvv83UrVvTx65u105YMM98yiDp/Q8827YrU6c5DuxXZ820+FsjiWIHPRCrquJ2OwQhzGLtdEx3CAAAx0zT+ITJ09PT9xPR5198s/iphQMH9GvsQXJz8+6bND0/v4CIvvrmh08/fDsqKrL5r7XNQSlRiIiCKSKyr9vtcLud+oBAohjPmMW/QVkpl2Q6Y7g0e6Z5+jRzSrJYW3/7BrLZhKuuNC581HzdtcbERKGo6MiEsoxZRDFevwy32+l2OyIi+4qC6ZjOBwAQ4ODBjH/Xb/R4PK19ISeY7OxsPQ8RkcvtnjZj3tZt2xt1hNy8/AmH8xAR2e32TZu31r0L6FBKFCKCYIiJPi0jY5vTWW61RhERY0ZR7KgoafoGgwZJSxZbY2OF7imi1Ew/FlmmIYPlzp3Ei8cbEjsI/hnTRLEjY0Y9EDud5U5nRadOpwmCoXnOCgAnvVdee/ujTz4noo4dk15/5dmIcPTeaKjo6GiTyeh2V0VJl8s1ZfrcJU8/1r9fn4bsnpdfMOH+aXmH85CufXs0FW0QlBKFiCAaYmKH+3zeyspiTdOIGJEkSsn+rvgWCzvzDLlXz2bLQ35xccLIM+XkZH81nChKyUQSEdM0rbKy2OfzxsQOF0REIgBoBi+89Jqeh4goMzPrp59/a93rObFYrZYH7r+XsSPVBC6Xa+qDc7Zt31nvvvn5BRMmTQ/KQ5dfOr5Xz9Tmv9C2CJEoZJjF2jU8vF9pabbH4yBiRIIoxopSxxBfhyh1FMU4IoGIuT2OktLs8Ih+VmtXomOrqAMAIHrhpdc+++KbwDXFxcWtdTEnqIsuPH/K5PsCU5HT6ZoyffaOnbvq2KugoHDC5Adzc/MCV1580bgpk+9rqQttcxCJQsds7hAfP7q0NK+ysoRzImKM2USxO7EQNuJhJlHszlgYEeOc7JUlZaV58fFnmcwdQncNANBGVc9D0DSXXzq+eip6YNrsnTt317h9QWHRhEnTc47uXHbxReMenDYp8CBQN0Si0JEka2zcmWZzx+zsnYri0yfTkKSOkti17pGsm48oiV0lqSORSCQoii87e5fJ3DE2doQkWUNyAQDQZiEPNa/qqcjhcD4wbfau3XuCtiwsKpo4aXo28tAxQyQKqcioAXHxo0tKcoqLM/W6M8ZsktxHEKJbvt6KCUK0JPdhzKb3NSsuziwpyY6PGxUZObCFTw0AbRzyUEuonorsDsfkqbN2px1JRUVFxRMnPZiVnRO4I/JQ0yAShZQsRyYmXWE0dUjft9rj8ffG7yAbhrAWrj5jzCQbhohiB/2kHo8zfd9qo6lDYscrZAPGqwCApkMeajk1pCK7fdKUWWlpe4mouLhkwuQHM7OyA3dBHmoyRKJQi44e0rHjFS6nPS3tT845ESMSJSlFNoxoyR+HIBtGSFIK6ZPeazwt7U+X056UdHl09KktdlIAaPuQh1pazalo6szVa9ZNmDw9MzMrcGPkoWOBSBRqgmBI6T4xPKJPXt6egwc36mU2xGVZ7mcwntcyjYpEg/E8We5HJOunO3hoY17envCIPt1T78dwRADQZMhDoVE9FVVW2qfNmJeRgTzUnBCJWoEk2YYMecNgiDt06N/8/DTONWJExGSpp9F0AWMRzfdzERiLMJoukOWeelslzrX8/LRDh/41GOKGDHlDkmqYehYAoCFee/Nd5KGQqZ6KgiAPHTtEotYRZksZNPhFJkTs27e6uPiQpqnEiRiTpGSj6XxR6nbsTYsYM4lSN6PpfElK1vOQpqnFxYf27VvNhIhTBr8YZktpjlsBgJNRQWHRRx9/1tpXcXKpIxUhDzULTOjRahISzu7Ve3barqf37l3ZrdvQuLgUgURigigmCoJN8aWrarqq5hKpjT+2KIrtRTFFklMYqxpHX9PUwsL0/fvXqJqlV+/p8QlnN+/tAMBJpby8XNN4/dtB46Wn73/3/Y9cLvcVl40fMXxo4FeXXzqeiJY89zLnRx5+jXkobU/6/z742O32XHHZxSOGnx6aKz/RiQ899FBrX8NJijEhLCzZYIgqKtpYXLRbEITwiAT97zQjoyglCEI7QYwhEojcRErDjmkWxc6yYaAsD5Ckrv6iJs61rKwt+/ev4TyiR4+piUmXiyImeQVoa7y+Bv1D0SyiIiNX/b26pKS03i379e192qmDQ3BJNTIY5GY/Zos+Z5/Pd/vdE3ftSsvOzvl92Yro6KiePY6ajqNXzx5RUZFr1v6rh6JLxl9QPQ9t3LRl8tSZ+/YdyM7OWfbnynPPOSs8vGWbSbTEcw49lBK1JkmyJnW8wmCI3LHj0fT0vysq8pKTzzCbw4kRkSCIsYIQLYndNF6haXmqmqOphZyXEwX9ZsYYixDEOFHsIAjtBBbOBGtglajLVbFv318FBfuMpk59+syLTxgjipbQ3igAtDWCIDz9xKMTJ00PGhEHjlFObl5xcYn+mXO+eMmLgiBcfNG4wG0uu+SiPr17rt+wOSW5a/W4uWnz1ukz5/knjlVVdffuPUmJmKKgfohErUwULe3aX2ANS960YUJ29sbS0pzu3c+Mj08RBJE4ERMYs4lkE4X2sjSAk8a5wrmdczeRSiQyZmIsjDGJMUEfDjswL2maWlCQvnfvKqezNCrqlEGDX7LZejAWmpGyAaCNi4+LffH5p5GKmleH9u1ioqOKDxe/cc6fWvy8wNhFF54fuFlq95TU7jW0B928Zdv0GUfyEBGJotgT0742DCrOWh9jgtEY16nzNZqmlBRvzsvfVVmRZzKFS5JREETGmN7ympjAmMiYLAhWQYgQhChBiBAEK2MyI5GY4B//mhNXFG9FRX5a2rKDhzZwLien3DP41FdNpvaMoUE9QJsVyoozndVqGT3qjL/+XlNRWVnbNqg4axRRFHv16rFs+QpFOdKQ9O9/1iYkxKd2T657363btk99cJ7L7favYYxNnTwhBM+/bVScIRIdLxiT4uJGRsec7vNVlJUfzM7eUFlZQEREnDHGmFhXVwJGRKRpms/ncrpKS0oy9x9YvX//Wp8ixcWN7td/UefONwhCW/j7CgB1CH0kIiKrpZ5UhEjUWO3aJfTv12fZnyuPTkVr2iXEd689FW3dtmPK9Lkul8u/hjE29YEJl11yUYtera5tRCIW2Godjgc+X3lhwcr8/N9KS9ZXVu6xWiPCw9uFhcWaTOEGo0WWjKJkEJjIGHFOGldVn9enerwep9tdYbcXVVTkORzlNltqVPSQhIRz4+JHynJEa98TAISC3eGqf6OWUVhUNHFS8MwSuuuuuWLCvXeF/pJ0YVZzsx8zNM950+at02bMDawCEwQ2e+a0ceedU33j7Tt2PTBtltPZOnmIWuY5hx4i0XHK5yurqNhVXra9tHR9WekWp/OQIHCDwSJJRlGSBSYyxjjnGldVxacoHq/XqWnMYukcGTUgKmpIRGTf8PBesozJywBOIq0Yiaj2VIRI1GQ1pqK5s6afN3ZM4GY7du56YNpsh8PpXxPiPESIRBACnKseT7HXW+RxF9jt6Xb7fpcr2+spVlQn5z7GZEm0GIwxZnNiWFi3sLAUoyneYIg1GmPQhhrgJNS6kYhqSUWIRMeixlQ0b/aDY8+tGltu587dk6fNat08RIhEEFqca6rGFc5V4honTocbXevNrgUmMUH0t7AGgJNQq0ciIioqKp4waXpgKrr5xuvuuuOW1rqeEz0SUc2pSJg/98Fzx5y1a/eeyVNm2h0O/1etkocIkQhCiXNSuKZoXNW4xolzzvUZXBkTGIkCkwQmMQGDuQOczI6HSERHpyLG2CsvPtO/X5/Wupg2EImollR02y3/+fTzr+12u39la+UhQiSCEFA5L3J4C52ePLt7b7E9vdSRVe4qcnntXkXRuCSwMIMUazYkRZhToqzdY8LahZniLMZYq0FEOAI4+RwnkYiIysvL33v/k/yCggvHjQ2akiLE2kYkoppSUZBWzEOESAQtqszt21FQsSW/fG126ea8svRSp5OLZDCQJJMoEhOJEXEiTSVNJcVHPq+F1JQoy8B2kacnRg1IiOgTHx5pagu9IgGggY6fSHT8aDORiOpMRa2bhwiRCFpImdu3/EDhz+n567JLdxZV+kxhFB5FVhsZzWQwkiSTIJIgUFUvfK0qEnk95HGRo5IqSmW3vXes7bTEqHEpCWd1jUMwAjhJIBJV15YiEdWSilo9DxEiETQ7jfN/MkteWrdvdVZJjlNRIuMorgNZbWQwkmygw3VhJoEsAokCqZycGrn9Q3lxToqXPB5yVFBhrlRW2MEiDUuKvu+0biM6xqCdEUCbh0hUXRuLRFQtFR0PeYgQiaB5uRXtkRW73tx4sMyrKVFx1CmZLOEkSXoSEog6GKinhboYWZjoT0fEOdlVOuih3U6e4yWtaq1Gqkr2CsrcJ5UWRsrCnYO7zB/VyyRhNg+AtgyRqLq2F4mIaNPmrXPmPVpeUSHL8pTJ9wVNCtsqEImgeaic7yqsvPOHTWuyS8lspW49KbYdHZ6MTGTUwUDDw4VEA4m1RxqVU7aH/qnQcryk+n+kXKPCPDqwm1yOoYlRb44f1CvOhpbXAG1Vq7+qj0NtMhIRkd3h2Lt3X6eOSTEx0a19LUSIRNAsnD711335c5bt3FXm4TEJ1LUHmfx/sZhBoL5WNjiMGavCUB1phhORR6MNlXy7k3u1qjVERG43HUhjJXm9IoyPnd1nbHK8RcZAjgBt0PHwqj7etNVIdLxBJIJj5fAqn+/IfuLvPXtcRIldqENnEo4UBAmMDbCygWFCo0p1ONFmu7bFwbXAn6ymUe4hyjqYaqaZI1Kv7pNoNUjNdhsAcHzAq7o6RKLQaBuRCO/FVqNo/Iud2QtXpe1XZOqaTLEJVZ3IiIgYMSHewJLNzKk1+sjJZiHXx/M8nEirOiBj1L4TycY9GfsWrkojRjf27yQ1LmsBAAC0ZYhErea3ffkL/tyVoRqoWypFxpBwOA8xgZhIxDoYyM2PVH81SgcDy/My4oxIJb3VNWMUE0+iuH9/2kN/7mpnNY7r3q457wcAAOBEhkjUOvYU2+/8YVO2l6h7MkXHVHUhY5xI1PMQEUmM7EoTjy/pBUCMEROJE5FKRCQyio4hLTlj7847f9i07OYzU2PCmuNuAAAATniIRK2g0qPc8u2GbIePuqVSnL+oRs9DR34ilWrTSoiIiOz+wYqIEZOOpCLGKK4duV3Z+/fc8u2Gpf8ZYTPi7wAAAAAiUch5VW3J6vTN+eUUl0BJnQMqxqTAPEREhV4iQxPPUug9erkqFR0udErqTJXlm/Pzn1mdPuvMVGMdnfsBAABODohEobY2q+TTHZkug5m69SDytx8KzkNEVKqSrJCh8W2gvZxK1WprmUScEz+cipJ7uOwVn+3IPLtr7MjOsY0+BwAAQNuCSBRSpW7fZzuyD1R4KKUPGQzE9YbPIlENAwWpnIp8ZBVJbkwq8nFyqAGjNR5FJNKIq0REsoE6pxxI3/HZjux+8RFRZsyDBgAAJzVEopDalFv2x4FCT3g0RUUdrjITiEn+saqD+DhVqiQzElldozTqOJHKycdry0NETCCSiGtVfdCioj0R0X8cKLy8V9mYrnFNvCUAAIA2AY1IQsfuVVYcLNpb5qJ27Uk6HEaZUPdPQeXk0cilkkslt0oerYY/brVqA49Wex6qIhyOX5xEkRLap5e7Vh4qcnib2rcNAACgTUAkCp3sSvfvBwrU8AgKCyNGxDgxRkyi+iYd40QakUqkEPl4DX+Uw6MP1d9DzX9GRiQQWcNUW8Tv+wuyKt3NdJcAAAAnJESiENE47S9xbMwrp8gokg3EOXFOxIiFfLoxJhIJVRdgMFBk1Ma88v0lDg0zuwAAwEkMkShEvKq2KqPYLRrIaiWBVRXosFZq1FzVu42TwMga5hYNqzKKvWrjpw4BAABoKxCJQsSraquzislsJpOZ6PA8HaEvItJVnZcTcTKbyWxenYVIBAAAJzVEohBxK+qW/HIyGMhorKq0Ojxxx1E0jVx2qigmt6Oqi35jcU5eD1UUk72M1NoaTTMi8UjdmcGwJb/crVQfywgAAOBkgU74IXKozFnmUcloIkE43Aw6oIiIcyrIoKUf0uY/qSiHFC/JRkroQqefR+deT+ExDTpHZSmt+Zn++o4ydpPHSYJIkfHUbwSddyN17hXciLtq7jMiQSCjscyrHipzxluNzXO3AAAAJxpEohDZW2LngkAG+Ui3MP9YRJpKv7xPrzxIFUX6F6S3NTqwg9b8H331Ik18loaOq23sIiIizmn/NnrxAdr05+HhHxlxoow02rqKvnyebplP104nMSCEMeHIlRgMnAl7S+ynJkY1820DQAgxxjhHR4kjWH39eZt8WDznQC30nEMPkShEcivdJAgkiQE95UUiIq+bfnqX3n2YKksopgMlpVCXXmS2kaOc0rdS7n7KTqfnJtJdi2jk5STXMufZwR309F20ax1ZI6hdZ0oZSJFxpHgpcy8d2kVF2fT6LCrMobsWkiU84OyHr0QSSRBy0Q8f4ASHV3UQRKLQQCSCxilz+4gxEgIjESOu0c619P3rVFZAfUfQTbPplDFHco/bSX99R58upr2b6IvnKTGFegyuYRAjr4c+WEQ711L7rnTZfXT+TRQRW7WZz0u7/6UvnqNV39LP71HH7nTpf0mUqs7uvxJBJMbK3L4WfgYA0LJEQdA09K+rrgAAIABJREFU9JM4QhRapL0snnOQFnrOoYdIFCK+quldiYhXRRFG5KikNT/TgR3UuRfdt5h6n37UPiYLjbmWbNH0/ERKW09rf6EuvchkDT709tW04msKj6GL76aL7yKL7chXsoH6jaDYDlRRTJv+pD8+pdPOp47dq87uvyRGRKTglx6AE5woCj4MRB9AFFsmEuE5H62FnnPotZHbOP7JerEN14jzqt7vnJPiI3sZGS10yT2UMrCG3Rij/iPo/JtJNlJpASk1/V9Ymk+cU99hNOaao/KQX/uudPtCCosil53spVUrAy+Da0QkC22k5BPgpCVJYpupwjh2jDFJapGBTvCcA7Xccw49lBKFSKRJJs7pqLJWTmFRdM0UOud6Su5Hhlp6e5msNP5O6nkqte9ClrAaNjj9fHriB2rflRI61Xr63qfT49+R6qNufY+c3U/TiPMIYyuNGwkAzUeWJa8XleBERLLcgi84PGe/Fn3OIdZ27uQ4195mIk0jn+9IFuEKiUbqmEodU+vakzGKiqfTxta6QVhEXd/qRJH6n3HUGq4cuRKfjzStvc1Uz0EA4LhnkCVFUbSTfoIeQWCGlnxV4znrWvo5hxgqzkKke3QY0zTyeg8PXc2Jt2pddFUk4kScvF6mad2jayqCAoATjdGAEt9QPAQ8Z2pzDwGRKEQ6R1oijSJ5PKQeHiSae1vzgqrOzklVyeuJNIqdIy2teT0A0ExEUWxjL6rGMhpkUWzx1i14zqF5zqGESBQiJkkckBBBXi95PFUzaXAf8VaaQ4OrpPmIc+JEHg95vAMSIkxtpX0cAMiydNK+rY0GOWStW/CcW/sqmhkiUYgYRGFYUgy53eR2H64400jztM7VaB4ireoy3G5yu4clxRjaSi9KACAiWZbMJoNwMvUkFQRmNhlC/J7Gc25L8BYMEYMonNkpxqQq5HCQpscRjTT3UT2/QoST5q6KRJpGDodJVc7shEgE0NaIomgxmwwGuc33GGeMGQyyxWxqlXocPOc2ow2mvOOTwKhblGVQQsTq8gqKjSaTiYgT95LmISG0Xb00D5G3Kop5PVRecUq7iG7R1pPplxyAk4hBlgyypCiqqmqqpnHO28ZkFIwxxpgoCKIoHA/j4uA5twGIRKGTGG4+p1v8un/SVaeTjAYiRqSS5iRmqGtK1+bFNdKcpClVE3o4nWKl/Zz+3ZPQAx+gTZMksc2/z44HeM4nNNSVhE6YQRrdJbZ7pJnyi0g53Adec5PmClX1GSfNRZq76rOiUH5RSoR5ZOdYqwHhGAAATmqIRCE1qH3kmK5xxspKKqs43MhaJdVOWkhGQdV8pNqJq1WnLqswVlaO6RZ/SrvIUJwdAADgOIZIFFJRJvmaPoldw02UmXNk2EbuJbWixTvkc5XUCuKHT+r1UWZO13DTNX0So8wnaSdSAAAAP0SiUDs9KfqaPh3NPi8dzDo896pGmpPUMmq5tnick1pGmrOqoxnndDDT7PVe3Sfp9KToljopAADAiQORKNQMojB1WMqA+HAqLqOcgqphG0kjpZJ8Rfqk9M2Ma+QrIqWSuFZ1upwCKi4bkBA+bVh3I/reAwAAIBK1CptR+t9lQxKtBsrJp+KyqlGkiUizk1JI3Nd8ra05cR/5CklzHK6k41RcRjn5iVbD/y4bYjOiVTUAAAARIlFrSY0Je3P8oE5mibLyqLyCNLUqBqlO8haS6myG4iKuVR1Nc1YdXNOovIKy8jqZpTfHn5Iag3leAQAAqiAStZpzkxMeGt2rm0GgjDwqrSB+eIYN7ialiJSSY+icz0lzkVJCShFx95GubaUVlJHXzSA8NLrXucnxzXw/AAAAJzLUm7QaSWBX904koif+2rMnI5d8PkqIJn08eK6QWkGaiwQTCRYSTMQaNvYXV0lzk+YkzX1UBRznlF9CuUWpFnnGiNSreydKGKwaAAAgAGsbI46fuJw+9dd9BXOW7dhV5uJRNuqYQMbALvGMmEhMImYkwUzMSEyioGl0OCeuEPeQ5iLuIa4cHnnoMI+PMvNZaWWvSPPCs/uclxxvkTG4KgAAwFEQiVqfyvmuwso7f9i0JruUTAbqlEDR4RRciKMvC0RETCISiAQijUgjfngg7CoBP1DOqaSSMvLJ7R2aGPXm+EG94mxiW5+YEAAAoAkQiY4XbkV7ZMWuNzccLPMpSngYdYghi4lEIbhMqGacAjMU56Rq5HRTTrFUYY+UpTsHd5k/qpdJQtMxAACAmiESHUc0zv/OLH553f7VWSU5zv9n774D5Krq/vF/zrll6vbZkq3Zkk1PCAkh9IQqKCD6CMhXgUekKE0pCoKAD0XUCAJBpaigPgo/RUB4AKlJgDQSQkgjZVO2ZXubsjNz7z3n98dsNpvNtuxO2fJ+sX/szN5y5pPLzHvuPfecsJnkooxkctpIV0lVBs9GUpJpUdikQIiaO1SvP9epn5Cffv3CkpMKMjhODgEAAPQPkWjUaQsaH+xtfHN3/bqa1m1NXsOmkdtBThvpGqkKqQopnCKdoyWRlCQEmRYZFoUNCoTI16mFjBmepIV5aeeWZS8pzky1Y74OAACAQSASjVJtQWNrQ8em+va1Na0bD7RVtAUCUpKqksqJH4xERCQikUiQaToZK011zpuUenxe2tzslJlZyQhDAAAAQ4RINKpZUjb5Q42BcJ0vtKvZt7vVV93R2egPBwzTFFLlzKmpmS49P9lRluaekuHOcdsynbrHZUMfagAAgKOCSDQ2SEmmlKYQlpBCUuQ/YsSIcUYKZyrnKmMIQgAAAMODSAQAAACACT0AAAAAEIkAAAAACJEIAAAAgBCJAAAAAAiRCAAAAIAQiQAAAAAIkQgAAACAEIkAAAAAiEhNdAMAAMYY07QsS1hCSCnHx2i3jDHGmMK5onBVVRLdnC6ocxygyIetOz5KAAAQB2HDNAxzfL9tMsY0TdW1RH5hRp3jAEXuY/nxXQ4AgKiwLCsUNoSYKG+YnDObrilKvM9koM5xgCL3B5EIAGAQhmGGwkaiW5EANl3T4ngaA3WOAxR5AOheDQAwkAn7EUJEobBhGGZ89oU6x2FHKPLAyyASAQD0K3KJIdGtSKRQ2LAsK9Z7QZ3jUGcUedAiIxIBAPRrgn+ERMShCKgzxb4IKDINVgREIgCAvoUNc+J0QR2AEDIcy8s6qHNETOuMIkcMXGREIgCAvsWtG83oF9NSoM7dYlcKFLnbAKVAJAIA6INpWrght5uU0jRj0tMFde4pRnVGkXsaoMiIRAAAfbAskegmjC4xKgjq3EssCoIi99JfQRCJAAD6YAl8ihwmRgVBnXuJRUFQ5F76KwgiEQBAH3ChoZcYFQR17iUWBUGRe+mvIIhEAAB9wKdIL4hE8YFIFAeIRAAAAAD9QiQCAAAAQCQCAAAAQCQCAAAAIEQiAAAAAEIkAgAAACBEIgAAAABCJAIAAAAgRCIAAAAAQiQCAAAAIEQiAAAAAEIkAgAAACBEIgAAAABCJAIAAAAgRCIAAAAAQiQCAAAAIEQiAAAAAEIkAgAAACAiNdENAACYKFpaW1/99xumaX7lvHMmTcoZdHm/P/DSy6/6fIHzzj1rclHhoMuHw+F/vfJaY2PzWWcunja1PBpNHj9Wfrjq881bppSVnn3W6YyxIa5VV9/w8iuv2Wy2r331/NTUlJi2cBwwTfPV196oqqo5+aRFC+bPG/qKn23a/PHqtZNyss//8rmalrBkwqSUido3AMCo5fN3RneDhmH8v8uvrqk9QESpqSkv/PWPSUnuAZavqqr+0U/uraysJiKXy/nX557OysocYPmmpuYf/+S+L3bsJCJNU599allZaXFUXwG5XY7obpBiUOc+vfb6mw//6jeR36++6oorL79sKGut37Dx7nsf8Hp9RFRUWPCX555SFCWGrTwo6nWOT5GJ6Oe/fPT1/3sr8vsV3/7m1VddMZT0uenzLdffdFskjZx7zpl3/+T22LaSiPopMi6cAQDEw+6KvZE8RERtbe2fb946wMKfbNh49fdujuQhIvL7Ax+vXjvA8tu/2HnVtTdG8hARGYa5fMWH0Wj1OLHiw1Xdv6/8aNUAS3Z7+dXXb7n9rkgeIqL9lVU7d1XEpHHjyLvvfdD9+/N/+ftd99wfDAYHXWvlh6u6z84sX/FRrBo3BIhEAADx0OuzobOz3y/uL73871t7fBgfXL7fj5b33l9x/U23NTU1D7C7Ca5nNYL9VzLCsqxHHnty6SNPWJbV30agT8FgqOfDFSs/vu76WxoaGgdb61BhOxNaZEQiAIDRwrKspY888chvnuz1YdwfKeWzf/zzPT97KBQKDb40DIHP57v19rte+te/E92QcWLX7orvXnvjtm1fJLohQ4JIBAAwKnR0eH94209efvX1IS4fDIZ+et+Df3r+f2Paqgmlqrrmu9fd/MmGjYluyLjS3NJ6/c23v/3uB4MvmmiIRAAAibe/surq627a8OlnQ1y+obHp+zfe8sFydBiKmvUbNl593U1VVdWJbsg4FA6Hf3b/w08/+9wov6MLkQgAIMHWrlt/zXU3V9fUDnH5bdt3fPfaG3fs3B3TVk0ovTpTQywc7HA9ei/yIhIBACTSP1565bYf/9Tn9w9x+Xfe++D6m25rbm6Jaasmjv46U0MsrFj58fduuKWhsSnRDekbIhEAQGKYpvmLX/3mN4//TggxlOWllM/84fn7/ufhcDgc67ZNED6f79Yf3Y3O1PG0c9fu715zw+jscI1IBACQAO0dHT+49c5/v/7mEJcPBoN33XP/c3/+W0xbNaFUVddc/b2bP1n/aaIbMuGM2g7XmNADACABHl/2lGmaQ1/++b/8/aiWh4H1HJka4i/S4Xrfvv1XX3VFottyCCIRAEACHG2+QR6Kopdfff3Rx36LzkMJ9/xf/r6/ssrhiP5EMcODSAQAABNIVXX10keeSHQroMvyFR9xPtRZeGMNfYkAAGACEWJUD40zAY2efxFEIgAAmEA8nowZ06cmuhXQJSnJPWPGtES3ogsiEQAATCAup/PJx5eedcaSRDcEqCA/7+nfPlZeVprohnRBJAIASIDTF5+q6/rQlz/pxEVutzt27ZlQdF2/7547rr7qCsZGSy+WCWj+scc88/vHCwvzE92QQxCJAAAS4LRTT3ry8aUZ6WlDXP6YubOf+d1jBfl5MW3VhHLl5Zc98LO77XZbohsyEX31wi8/uvShpKTRlfIRiQAAEmPG9KnPPr1sannZEJcvLMx/5vePL5g/L6atmlAWn3by75Y9kpXpSXRDJhDO+Q9v/v7tt9ykKEqi29IbIhEAQMJkZXp++8QjSxafMsTlk5Lcj/zqwYsu/EpMWzWhlE8pe/bpZehwHR9ut/uRXz34X1+7MNEN6RsiEQBAItnttvvvu+u/r/h/Q1xeUZTbbrnxlh9cPwq/ZI9RGelp6HAdB/l5uc/87rHjFhyb6Ib0C5EIACDBGGPf/c7l9993l8021H4tX7/ogl//6sHR1hVj7EKH61gbhZ2pj4RIBAAwKpy+5NTfPrHU48kY4vLHzZ/3zO8eKygY1Z8xYws6XMdIpDN1cnJSohsyCEQiAIDRYtrU8j889cT0aeVDXL6gIP/Z3z92HDpcRw86XEfXaO5MfSREIgCAeOh1RYYrfb/9ejwZTz6+9MwzFvd6vr95oNxu969/9eDXL7qg9+443t4P6Vl8NtiMWuVTyp596okjO1zjmtqgepXI7Xb/+pcPDNqZuudaiZ3vDP/PAADEQ0FBfs8vypOLCvtb0maz/eyeO7/7nct7flSUlZb0t7yiKLf84PpeX8Sn9L/8BFRcXHTo98lFAywZkZGR3qvDtaqqA/yTQURpaXH375HO1AuPmz/oWof/60yORcOGSLnvvvsSuHsAgNEpbJjR3aDT4cjKyty2fYeu69/9zuWnnnLiwMvPO2ZOaWnx5i3bpJSXXfqN879y7sDLT5tWPnfOrC1btoVC4Qu+cu7/u+ySqJ/V0HUtuhukGNS5T9OnTd1dsaelpXXG9Km333pT0hDGAVcUZfFpJ9vttu3bdyYluW/74Y0zZ06PQ1MpBnWOT5GJaOaMaZs3b/P5fYtPPfnhh+7LysocylpTykprD9TVHqgrLMi/685bh96dbiT6LDKTcrTMQAsAMHr4/J2JbsKo43Y5or5N1PlIUa8zinykPouMC2cAAAAAiEQAAAAAiEQAAAAAhEgEAAAAQIhEAAAAAIRIBAAAAECIRAAAAACESAQAAABAiEQAAAAAhEgEAAAAQIhEAAAAAIRIBAAAAECIRAAAAACESAQAAABAiEQAAAAAhEgEAAAAQIhEAAAAAIRIBAAAAECIRAAAfWKMJboJo0uMCoI69xKLgqDIvfRXEEQiAIA+4FOkF0Si+EAkigNEIgCAo6BwvD0eJkYFQZ17iUVBUORe+isIygQA0AdFwdvjYWJUENS5l1gUBEXupb+CoEwAAH1QVQWXG7oxxlRVicWWUeeeYlRnFLmnAYqMSAQA0DdNUxPdhNEipqVAnbvFrhQocrcBSoFIBADQN11TOcd3a+Kc6bH8QEWdI2JaZxQ5YuAiIxIBAPTLpmuJbkLixaEIqDPFvggoMg1WBEQiAIB+KYoywT9IbLqmKDHpRdQT6hyHOqPIgxYZkQgAYCCapk7YDxKbrsWtDwrqHIcdocgDL8OklPFpDQDA2GVZVihsCDFR3jA5Z/E5P9QL6hwHKHJ/EIkAAIYqbJiGYY7vt03GmKapMe1PPSjUOQ5Q5D6WH9/lAACIOtO0LEtYQkgpx8dbKGOMMaZwrig8RuMPDQPqHAco8mHrjo8SAAAAAIwEulcDAAAAIBIBAAAAIBIBAAAAECIRAAAAACESAQAAABAiEQAAAAAhEgEAAAAQIhEAAAAAIRIBAAAAENFAE38wxuLWDgBIoMSNYi+FsKQ0pbRICkmSSBIxRowYZ0xhTOVcIcJ7EQDEXCIn9gOAiUlKKxxqDoWbgsEGn2+337ens7MmHGoxLZ+UJmOqqrh1W7rDkedyl7jdZXZ7lk336LYMxkbFtFAAMC4NNMdZ5CzRmjVr4tgeAIirRYsWURzPEhlGW0fH9va2La2t69vaPg/493Ie1jRFVbmicM4ZIyZJCiEtS5imMAxLCN3pKk5NnZOWtiAldVZy8nRNS41PawFgQsFZIgCIB8Nob2xYWV//TmvLeq93h9OpJCc7srNS7HZV11RVUxSFc8YYIylJCGkJYRpW2DCDQdPvr21prqiu+mdS0tS09AXZ2WdlZp2qaSmJfk0AMK4gEgFAbEkpWprXVFQ83dKyzjAa0tOchQW5LpfdZlNVVeG8u5+QkzEXkUpkSuknCkSeFUKaphUKmX5/sL6hurp6Z339u+npC0tKr8nIWMQY7hEBgOhAJAKAGBJWcPv2h/ftfc4S3ox0V2FhcZLbrij84N0bCuMFXJnFeQljyT3ugRVSeoWoENYWTlW6bum6ze12ejypXl+wsrK+ru61xoblk4uvnD7jDs7tCXt5ADCOoC8RwIQWu75EUlpe746NG25obd3gdNpLS/MyM1P4oftYVcbzVe00xguJOJElpSDqbgZjjBMpREKKStNYIUU1kRn5m5CysbG9oqImEAimpc2fN39ZUtJU9LwGgBFCJAKY0GIUiSwrUF//3rat94eCFR5PWklxvsOh9fi7zpU5XJlPpEhpEon+t8QZU4ksYW0Q1udERnds6uwM79lb09TUarOXzpz506zsMxTFGd1XAQATCi6cAUCUmaa/pvpfO3c+KkVNSUlhfl42YywSZaS0pAxyZRqxUmG1DmVrXQmIlRLzCeszxuyRE0IOh2PG9LLqmvqqqv1bttxbHm7Ly/+aqrpi97oAYHxDJAKAaJLSrKl5ZccXSxWlqbisONOTHulALYmE8FlmE7E0ruYK2XaU2yViuZbYSLJWUT2cuxgxxig/b5LNZtu7t2rHF0uJscLCSxnD2xoADAfeOwAgmurr39++7UFVaSsrK01PT+E80mNaWGaTaR6QIqDps6X007Cu1HGeb4R3COlT1Umq6iFiXGGZmR5F0Xbtqti+7SGbLSsn5+yoviAAmCgQiQAganze3Rs33EjUUjKlPCMj4+BtZdIwqk2zmqRFRMQ0ebSniLoxjUhI4TOMPVKGNa2QiHGuZGRkWJbYsWPnxg03nnLq/7mTyqL1igBg4kAkAoDoME3vhvXXhsP1ZWVl2dk5B5+WRrjCNGu6FxNWK+cD9KceiBDtB7dqmcZ+kqaml0VuBcnOzunsDO3evXvD+mtPOuUVVU0ayWsBgAkIkQgAokCI8O6dy9rbN2dn5xQVTY5M1CqlYRr7euYhIhKikrGC4e6luudD06wh4qo2mTGNiIqKJnu9voaGzbt3PVE+9TbO9WG+GACYkBCJACAKWlrWV1X/0+HQysunHxwiSFjmAdOs7bWkFPWC2xk76vEVpQxKWd/rSdOsZcymagVEKmOyvHya1/tJVdVLnszTPJ6ThvliAGBCQiQCgJEyjLaa6pdCwZoZM6bbbI7IjfOW1WSaNUTWEYubwqpmLJXY0ZzFkWEp20gaR/zBMs0axt2KkkXEbTZnaWn5tm3ba6peSkmeqemYIBYAhgqRCABGqq11U2PD8vT01PT0zMikHFL4TbNGymDfK8iQlM3EbIypkUtsA5JSmiRD3aNXH/HnoGnWcJbMuIuI0tOz0tMPNDauaGvblJl12gheFgBMLJgxEQBGxDT9TU0fdXZW5uYWqqot8q5iiWZhNdNAt9qbJANSeKX0SRno/8cnhZdkoL88REREUljNlmgiIiKuqnpubmFnZ2VT00em6Y/uiwWAcQxniQBgRIKdtQ0NH6SmpiYlpXCuEJEQnZZZO+A0HRGSSJIc5t1nhxOWeUBRcjh3MUZJSSmpqakNDR8UFFzsTpoSje0fZmM7bfPRvgA1hanTGt4QS6MII3Io5NFpspNmuGleSqIbdJBpWpYlLCGklLGYhi/+GGOMMYVzReGqOipm5cPB3BMiEQCMhPT793a0by4uLrPZXEScSAqrTYiuyToiH2Rs0ItjwyUERQaDFKJVWG2cu4mYzeZKS8vau3ez37/XnVQ2hGtzQ/VmA73fRB0DnLEagyRRwKLKTqrspJXNlKzS6R46NyuRTQobpmGY4yMG9RTJdkIIwyQWZpqm6lrCPoVxMB8JkQgAhk9Y4eamVZrGk5JSOVeJSJJlWV13mYVCcvVqM2zIuXPUrCwe3WAUDMpt26zaA2LuHKWgQCEiy6pVtHwizjlPSkrVNN7ctCoz8zSu2Ea+u61eerGW6kMj39Jo12HSK3W0upUuyaWZcR/dybKsUNgQYryFoSNJKcNhwzRNm64pSlzPGOFg7g8iEQAMnxDh5pZ1TmeSw5ksuzpWBy2rOfLXAwfEPT8LtDTLJUvUr3xZP2GRlpwchVhkmrRrl/nGW8Ybb4YPHBA33eC49hqFMbKsZikMxjVJ5HQlO51JzS3rhAiPPBJ90Ewv1Ay+2HhSH6LH99KlebQkI347NQwzFD7ypsLxTAjZGQzbdE2L1+kiHMwDQCQCgOGzRLC9bUtmZrrDHrlqRkK0EHV9qqWmsuMWqC+8GPrnS+G1a80li7XLLrPNmqmO5CtxU5N49bXwq6+GP99s+f1y9ixlxgzl4PknQ4gWhbuJyGZz2ezOxoYtlgiqNKJzHRPwI6Rb5IXHJxVNwDzULfLC45CKcDAPfDDjjjMAGL6Av1IIn93u5IpGxIiYsJq6/5qayu++y/nHZ12zZyn79ov//Xv46mt9jz7W6fcPp0u1lHL5CuPa7/t+/vPOtetMVaUf/tD+pz+4T1ikdS8jrCZGjIgpima3OYXwBfyVI3mBW70T9yMk4oUa2uqN+V4i18tivptRLBQ2LOvIQbyiCQfzoAczIhEADJ/PV8G5YrM5iTgjzogfmoaMiIjSUtk5Z9v+8WLSPT91pKXR3r3iF7/sPG1Jx79fCxnGUPuLSEmVlda13/Ndepl35UqzMyjPOUd7/dWkO3/kLCpStEOJiIRol8QjjbHZnJwrPl/FSF7gi70H356I4lCECZ6HImJdBBzMNFgREIkAYPiCwQOcc02zRc7NSGJS+o5cLCWFf/86x9/+mnTJxXpODq+qFtff6L/u+77Va4xgcKBgJARVV1tPPNn5lQs7Xn7FcNjZwuPURx9xPfmEe9o09cj+2lL6iBgRl8RVzcY5DwYPDPvVvdkwIbqgDqo+RG82xHD7YcOcCP2pByWEDBuxugEMB3PEwAczIhEADJ9hdDDGuaJJ4pIUIi5luM8lOafZs9Slv3T94ufOs87UOGf/fs245Vb/+g3mAJ+GDY1i6SOdv/hl54EDctpU5YYb7L//revi/7Ilufvupi1lmIgzYoyYomiMccPoGPare79p8GUmiJiWwohZDhhzYlcKHMzdBigFIhEADJ+UJjHGmMKIEzFGfOARGu12tnixtmSxFrna1dYufT45wPBwoaBsbZWmSURUVMgvPF/Lzx+4b7ZgxKnr2plCxKQc5mfMxvbxNmTLSHSYtLF98MWGwTSt8Tf+0LBJKU0z+j2KcDD3NMDBjEgEAMPHmBoZg5oYZ4wT40QDRZY9e6wHHgw8vizY0SEnT+Y33eBYMF/l/b8P5Uzi373KvmSJpuu0YqVx592db74VDocH+ARVKNIMxiVJIsmY1v/CA9nWxwXACS1GBbGsqAxfPn7EoiA4mHvpryC4CR8Ahk/TkqUUlmWxyKBERIw5+uxOZBjy/Q+MZU8GP9tkhkJ08knqbbc6jpmrOp0DjVRk09kJJ2iTJyt/+3tw2ZPBlSuNit3W5s36f/+3PSuzjyTFmIMRjyQmYQkppaYlD++l7QsMb71xK0YFsQQi0WFiURAczL30VxCcJQKA4bPbJwlhmWZYEovc6sV5H4MAdXSIZU8Gb7jJv2ataZp0w/X2vzyfdOIJ2sB5KEJVqCBO8J8gAAAgAElEQVSf336r8x8vJhUV8apq8ehjwetv9H2xwzzyegvjSZJ45NqZaYaFsOz2nOG9tKa++0RNXDEqCK6a9RKLguBg7qW/giASAcDwud2lQlihUOfBvkSM8cyeC5gWbdliXne9/+FfdgaDNO8Y5a9/cd9zt9PlOrphrDmnRcdr/345+YrLbSkpbOVK8xsXe//+Yqi9XR6+WGbk3jdGLBTqFMJyu0uH99I6YztGzNgTo4IgEvUSi4LgYO6lv4LgwhkADJ/TVci5Oxj0W5ZQFJWIFCXXND7vXmDHDvPbV/hqD4icbH7eedpV37GXlAx/7OqcHH7vTx3HzlP//JfQ5i3mrbf59+6x7rzD2d0bSVFyI9/0LMsMBv2cu52uwuHtCx/UvaAgYxf+7XrpryCIRAAwfAq3p6TOCgb3B4MBlyuFiBQlizGnlF3X6ttaparRySeqF3/DdtbZWnraSM9MJyXxb/yXrbycv/BiePkKo6lJdH+pZsypKFmRee+DwUAw6E9JnaVw+wj3CAATBCIRAAwf53pG+sLKys2BQLvLlUZEjNkUpcA0d0QWmDdPfWSpy+PhU8oUNUrvN5pGC+ZrRYXKBefrebm8e8Y0RSlgzBY5SxQItAcCHYWFCznXo7NXABjv0JcIAIaPK3qG50TDCHu9zUIIIkakKmpp9634Tic75WRt+rSo5aFumZn81FO00tLuy3CKopYSqURMCOH1NhtGOMNzIlcQiQBgSBCJAGAkmNNVnJw8u7W1JhTyRybTUBSPohbEuR2KWqAomUSciAVD/pbWmuSU2S5XceQ6GgDAoBCJAGBEHI7crKzFra11Xm+LlETEGEtSlCnE4tiJh9kVZQpjbiImJfm8LW2tdVlZS+yO3Pi1AQDGOEQiABgRVXV5Mk9xOApqaraZphGZTENVC1SleOCRrKNHUZViVS0gUoi4aRo1NdvtjgKP5yRVdcWlAQAwHiASAcBIpabNzcxa3NJS29xcFbl2xliSqs3kPD32160Y5+mqNpOxJCJGxJqbq1paarIyT0tNPSbGuwaAcQWRCABGStNS8/K/brPn7q5YHQoFItFEUXI1fQGL8eUzxuyavkBRciM7DYUCuytW2+y5eQVf1/TUmO4aAMYZRCIAiIL09AUFBV/vDPh27FgupSRiRIqqlmn6SbF8n+GafpKqllFk0nshd+xY3hnw5ed/LT39uJjtFADGJ0QiAIgCzvWyKTcmp8ysq9u5b9+nkXM2JDVNm63bzolNpyJFt52jabOJtMju9u3/tK5uZ3LKzCnlN2E4IgA4WohEABAdqpq0YMHTup65f/8n9fU7pBTEiIhp6jSb/TzGUqL3hsMZS7HZz9O0aZG+SlKK+vod+/d/ouuZCxY8rap9TD0LADAwRCIAiBp3Utm8+U8wnlJRsbq5eb8QFkkixlS11Gb/kqKWjLxrEWN2RS2x2b+kqqWRPCSE1dy8v6JiNeMpx85/wp1UFo2XAgATDiIRAERTdvbp02f8xLKcu3atbGzcLaRFkoi4ouTZbIs1bZGi5A/3OpqiKPmatshmW6woeZG3LyGsxsbdu3attIRz+oyfZGWfHtVXAwATCOY4A4BoYkzNy7uIpNy589GdO1eGQv6CgmMYcSJilKzpxyhWoSVqLHOfELVSdg5tmw7OcxV1sqLkcZ7e/V1OSlFdvWn//g2MpU+d+sO8vIsYw3saAAwT3j4AIMpU1ZVf8HVdT9269f7duz/u6KgrLT3Z4UgmRkScKx7O01WlRMgOIeosq1ZYjVK2E8nDN8MYS+FKpqLkcp7DWTLjrp4ntjs7OyoqPmpoqLDZC2fO/GlW9hmK4ozvCx2Oporta57/TWdH65TTzjvmoiv7XKaxYlvNprXN+3Z11FWH/F4pLN3pdqZ7MorKs6fNyZ+7SNHQeRzGBl/jgf3rP2zeu6O1em/I7zWDnbrTZU9KTS8q85TOKFpwis2dfORa3obaVX9Y2n6gsuDYE4//9k1ciVNWQSQCgOhTFGfOpPNc7tKNG26oqfm0tbV2ypRTsrLKOFdIEjHOWJJCSQqfpKlzJQkpTSl9UgaJLCKFMTtjbsZUxnhkOOyeeUkIq6Fh965dHwYCrWlpx86bvywpaSpj8Rkpe6Te/tWPfI0HiGjdX5dlTC4vmHdi95/McGj72y9tfePFjvqaI1ds3rez6tNVRKQ73WWnnnvMRVe6PdlxazbA0ZFy3ycrNr3y5/odn/f599qtG4iIK2rBsSfO+/p3sqbM6vnXFb+9v3bzJ0TUVrMvOTt/5rkXx6HJhEgEADHCmJKcPOOU097Yvu3hfXuf27zlLU9G4eTJC91uj6rqjLFINiLijIgxneiIczyHnzaSUppm2Odr2rdvXVNzpcKdU8p/MH3GHZzHcTK1kQl2tEXyUERjxfbuSLR3zfsfP/OLQFvzoBsJB3zb3vrHF+++MueCby245BquarFq7viy8sNVn2/eMqWs9OyzTmdsqIOq19U3vPzKazab7WtfPT81NSWmLRw3WvbvWv7k/zRVbB90SWGZ+z9Zuf+TlZMXLj7l2p84UtMjz/dct3H3tlg19AiIRAAQQ5zbZ8y8Jzvn7D0VT7e0rPv005fS0wtycqa53Rk2m1tV7Zz3f5MHIyISQphmMBTy+XzNdfVftDRXq1p6Ts55JaXXZGQsYmws3SMihNXzobQsIhKmsfJ3D+5c/vrRbco0PvvXnyo3fHTOHb9OysLstoN47fU3H/7VbyK/H6irv/Lyy4ay1voNG+++9wGv10dE7763/C/PPaUoY+NkZAJt+b8X1vz5MWEaR7XWvnXL67ZvPP2HD+bPXUREUojuP/X8PdYQiQAgthjjHs+JKSkzGxtW1te/09qyfvPmt1yulOTkHLfbY7cn6zanptoUVedMYYykJCEtywgbVigcCgSDHT5fU0dHnd/fnpRUnpd/cXb2WZlZp2raePjKHvZ73/7FbZGLCL1wRXFnTnKmZnBN72xr9jXVGZ2BXsu07N/1yp1XnnvX456SaXFp71i14sNV3b+v/GjVUCLRy6++/uhjv7WsrhS7v7Jq566K6dPKY9XEcUDK1c8/uvm1v/X5R7cn25nm0Z3uYEebr7kh2NHaa4Ggt/2tB28+9Xt3ly85P/Zt7RsiEQDEg6al5Oadn5l1SkfH9va2La2t69taN9XXr+Nc6rpTVW2KqnGmMMaklEJalmmYZigcDgjBnM6itPQzS0oXpKTOSk6ermnjZPKyzvaW1+65tnnfzl7P589dNPX0CwqOPVF3urufFJZV98Vne1a9u+O9Vy0jfGgjbS1v/M/1Fzz0x9Tcoji1ewwKBoOHfu8MDrAkEVmW9diy37/0r38PsBE40tq/PnFkHkrNL575pW8UHXeq25PT8/mW/bv3fbJi6xsvdra3dD8pLGv5sp8FfR3xaG5fEIkAIH40LTUj44T09IW5oQvD4aZQsMHn2+3z7ensrAmHmk0rIKXBmKYqTrs7w+HIc7tL3O4ymz1L1z02W8ZY6UM9RNv+889ez6TmF5989Y9zZy04cmGuKLkz5+fOnH/MVy9f/dyje9e83/2noLf9zftv/PrS/9VdGLZ7pHw+3933PPDJho2JbsgY88W7r2x65c89n9Gd7kVX/GDq6Rewvi6OpxeVpReVzf7KNze9/PzGf/2p59WxNc89GvPm9gORCADijTHFbs+y27MoebrHc7KQppQWSSFJUmS4a2LEOGMKZyrjSlevovGu6LhTT7/5Ac0xyFAC7sxJZ93+y02v/HndX5dJ2fVB4m2o/ejZX55+8/2xb+Z4VlVdc/sd91RVVSe6IWNMR131qj/+uuczqXmTz7njkZTcwoFX1OzOBd/8Xs6MY9975M5Q4k4OdRtLPRMBYJyRkpnEw1ILCltAOAKWw285A5YjIBxBYQtLzSQu5YTIQ9POuuicH/960DzUbe5XLz/l2jt7PrN75Zs1n6+LQdMmivUbNl593U3IQ8Pw0dMPm6FDw64mZeVe8OAfBs1D3fLnHn/hQ390pmbEpnVHAWeJACDeLCmb/OHGQKjOF9zV7Nvd6q9u72zqDPvCpimkyplbVz0OPT/FUZbmmpLhznHbM502j0tXhnzv9NjCFSXQ3PDWz39IRKpuy5934rQzLhx0rWlnXdS0d0fPq28bXnwqb87CGDZ0/OrVmRqGrn7H59Wb1nQ/VG2Oc+54xJ40+N0P/paGTS8/39FQG3loT04dyiAUMTV4JJo0aVIc2gEAE0Fb0Nja0LGpvn1tTetndW27WwMBqZCuk6qRohCzESOSRAGLWjppfwcZYSdZZWnOY3JSj89Lm5udMjMrOdU+3kbiEZZV+enH3Q/3rH6PiIaSihZd8YN965YHWpsiD+u+2NRYsS2zdEaM2jku9deZGoZo8+t/7/lw3tf/O71oCFMvS/l/P7u+rXpvrJo1LDhLBADx0BY0Ptjb+Obu+nU1rduavIbdTclpVFhINgfpNlI14gpxTl134QsSFpkGhUOBUOfnfu/nu1v/vqV6hidpYV7auWXZS4ozx2Iw4nyo3cNrPl87lEik2uzzL77mw6ce6n6m4uN3EImGzufz3X3vg5+s/zTRDRmrzFCwcsOH3Q8dqemzv/LNoazob2kcYh7qs3d2jCASAUBsCSlXVbUsW1exurqlNmCaqZk0dQq5kki3kabTwWthdk5OTgonS1JAULD7CoaUZIYpFDL8HZsaD2zdXPOfivoT8tOvX1hyUkEGH1OX0uzJqe7MST0HsO5PeuEQvmcTEdGU085d9cel3bflV3+2hi6/efhNnEiqqmt+dOc9lZXoPDR8dV98ZoYOjU1QdsqXVJtjKCs6UtPtyWlHjk50pMyy+EV8RCIAiKGgKf5nxfZnPt3XFhZmWiaVlZIzmVQ1koQ4Ua5O05w02cbcSnc6IinJZ9G+EH0RkLVhJnQb6TZyu8mTbfo6KqsqanfUv7en8er5k+85bbpdHUu3iZx9+y9X/enXHQeqZO9pbruouj3/mEVzLvjWEDeo2hy5sxdEpj8jorbqvcI0MMvHoHqOTA3D1mtUraIFpw5xRa6oZ/946Zrnf+M72JfoSIpuKzru1Olnf21ETTwaiEQAEBOWlNsbvVe/tnFNTSs5XDRtGnly6OD8GwrJXJ1OTOZ5OilHRhpGaZzSNJrjYjUhWtUhasNkESNFpZR0Sk41G+ua9n7x8493fbCv6Znz503PTBorPa89pdMveODZ6G4zY/LU7kgkLNPXVJecUxDdXYwz6EwdLR0HDjvH5imeOvR1c6bN/erP/xTtFo0IIhEARF/AsN6uqL/r/W3b20KUnU/FU8keOZ0uiZjOaZaLzXczG6cwEYkB0ozM1OlL6XyDV24JyLAgIkmMUdYkSk6jvTvWNtRd8s91D54+8+zSLKc2rgZyHDpnmqfnw5Dfm6iWjAlV1dVLH3ki0a0YJ3oebIqmj/XBQhGJACDK/GHz/9ta8/DHO3d2Ek0up9wi6tFBkjOa6WRzXdySFBj8W3pXWprrZpLEJr8U3Zeb7HaaOlseSN5Wve/H725p7Sy/eGaeS5+I72mqbuv5UJhmoloyJgjR9yVLGAZhHTrYlMOPw7FoIr59AEDsmEL+Y1vNAx/u2GNqVFxKnuyum8iIiBgxnqWzUgcLHP3k1qUOfsCQdSFJJLo2yBhNKiTNtrOy4oEPdxCjb88pVPnYuIIWRb1Gc+k5MxocyePJyMr0bNu+I9ENGQ96Hmxhv9cywoqmJ7A9IzSWuiUCwOj3TkX9vcu37zFUKi6njCzikYGGJDFGXCHGc3UWlOQXR/0TlJSrM2KcKDLFx8HNZmRRcfkeQ71v+fZ3KuoTXYAE6NVB1TEKRgEezVxO55OPLz3rjCWJbsh40GvIae8Q7qYczRCJACBqdjb7rn5tY2VQ0uRSSs8ghRERMUmME+uaqkxl5DOH+aNGTgAdTFfEJDFJCqP0DJpcWhmUV7+2cWfzhLuHqOqz1d2/u9KzhjJw8ASn6/p999xx9VVXsDHSK3/USp88pefD6o2rEtWSqEAkAoDo8IbMK1/ZUOM3qKCYMnMO3lIviRRianevIK81nFNEkR/vob5HjJhKdLA/NWOUmUMFxTV+48pXNnhDE6gzTcPOzf7mhu6HWeWzEtiYseXKyy974Gd32+1jvgdMAmWXz+75MDLw+tiFSAQAURC2xCOrd39W306Z2ZRf1HVV61AeOqQxTD5rmD+N4cP32pWKDu4rv4gysz+rb//16t0h6+g7K41N6194qufDkhPPTFRLxqLFp538u2WPZGV6Bl8U+pKUlespnd79sG77Z2N67mFEIgCIgrXVLS9srerUHVQylYiRlCT7yENE1GpRm0kB66h/2kxqPfIOtUgq6todUenUTt3x4taqtdUt8XjZiVa54aOeM27ak1KGPlYeRJRPKXv26WUzph/FgDrQ09Ql5/d8uObPvxGmkajGjBAiEQCMVGvQeHFrzd6OEBWVka6TjNwRxg9d2OrBktRkULtFAXEUP+0WNRlk9X33tELEu1KRplNR2d6O0Itba1o7x8b7sq/xQPVnq0O+jqNdsaOu+oPH7+n5zJwLvqXa7NFr2kSRkZ6GDtfDNu3Mr/YcGat5786Pnn54GNtp3rezdvMniY1TuAkfAEZq44G29/Y2hpLTKS2Nuuap4MTU7rGqezEkeS3SGCmMBu3dKoksSYbsLw8RMU6kkhREgogoLT2Ukv7e3savTW87ozhzmC8pXvatW/Hur+8QpmFPSll8w32FC04Z4orehtq3HvpBzyCVlJU768uXxqaZ41+kw/XkyYXP/vHPUmLgoqOgaPrCb924/Il7u5/54r1XnemZCy65lobWe90MBT/8/UO7Vr5BRJmlMy548NlE3cmPs0QAMCK+sLliX9Outk7KmUTqwW9ZjA/89mJJCgnqtKjToqBFIdHHT9DqWiAk+s9DXfjB+CVJUSh70u72zpX7m/zh0d7Pev0Lv4t8LQ562//z8K2f/vMPUgzeC6p609qXf/Tttpp93c8wxhffcN8QZ9yE/qDD9fCUL/5y0XGHXbH99B/PvrP0x+HA4Ld/dtTXvHrXdyJ5iIgaK7ZVfPxOTFo5BIhEADAiNd7gu3sbrOQUcruJRW65Z8TUQb8gSiJBZBGZRIbs48cksogE9TM/ak/de2REnMjltpJS3t3TUO0NDrpqYnF+6NqilGL933/3z1su3bdueX/BqGX/7rd/cesb/3N90Nve8/lFV/xg0sxjY9vWiQEdrodn8Q33pRWU9Hxm75r3X/j+hZtf+5sZ6uxzlc62ljXPPfqPm7/RvPewuWO5mrDrV7hwBgDDJyTtafF/WtdOBcWk6YcGlWZxn26MKSQ5SYuISNcpNe3Tqr17WvxT0t2jeTjrRf99y1sP3GSGQ93PtFbtefsXt9mTUwvmnZgxudyZmsE1vbOtuaO+uurTVT3PDHU75qIrZ59/WfwaPQb1HH+IDXZAlE8pe/apJ+64675eI1xjEKMB2NzJ5979xGs/vdrbY+DQoLd99XOPrPvfZXlzFmZPneNKz9Sd7mBHm6+5vnbzJ/U7NkvZO/rnzj6u5ISE3TWJSAQAwxe2xIeVzUFFJ5fr4EDVjJiWmNYwlaRBJIkzcrmDiv5hZfOS4ky7OnpPh+fOnP/l+373n5//sNdZn2BH264Vb+xa8cYg6zO26PKb51zwrRg2cVwoLi76dOOmrt8nFw26fEZG+pOPL33o4Ufeee+DyDOqqk4uKoxhE8c+tyf7wp//6a0Hb27a80XP5y0jXLnho8oNHw26hZITz1py08+4krD5m0fvOwUAjH5hS6yubiaHg+yOg+MDUQJOEUV07VcSSXI4yOFYXd0cHvUDFGVPnfO1pX/Lm7PwaFd0e3K+fO+TyEND8Z0rvrXwuPkOu33O7JnXf+/qoawS6XD9/euucrtcGelpd91xa2oqhgUfhDM144IH/zDry98cYsfqbqrNfuJVt595y0OJnSKNDdC1PnKScP/+/XFsDwDEVVFREREN+xabBn9o2pPvtCZn0JSpXdPdc524s/dyQlAoQEaIdDvZHP3diTYQKckIU9BHXCGHm5R+znBbAZLhrj3u2pHW0fzF9WdluYbTW/baz4ex0ghIufuj/3z6j2f7vDTWi+50z/ryN+de+G3NcUSpY+mpOdHfps/fd0eTicztinI3+XgfzEQNOzevf+H31ZvWDrokV5SyU8499uKrk7Pz4tCwbn0ezLhwBgDDt78t0BayyGYnzg92g+5xikhKaqik//yVPltOTbVkhkmzUfZkOv4cOusySh7a7KTeVlrzJn30KlV+QaEAcYVSs2j2SXTOt6loeu8vo0w5OAgAJ5utLWztbwsMLxLFG2Nlp3yp9OSzaz5fV/HR2zWfr/M11fVaxOZOzi6fXXzCGcUnnKE7XAlpJsBQZJXPPu+eJ5v37az46O3KDR+2Vu/tdceAoukZxVOLFy0pPelstycnUe3sBZEIAIZvV4tPck66dui2sO4zQMKit/5Mv/0RdTRF/tA1e/3erbTm/+ilJ+jGR2nRuQOdMZKS9mymJ35IG5dTpBsmYySJKnfQ5x/SPx+jK++hS2+nnj0PGD/UEl2XjO9q8R2Xlxbllx0zjPH8uYvy5y4iorDf21FfE/Z7hbB0p9uZlun2ZCe6gQBHIWNyecbk8oXfusEywu0HqkK+djMU1BwuR3Jack4+46Ou6w4iEQAM3wFvkDgnVelxp7xCRBQO0ht/oj/9jLwtlJFL+WU0eTo5ksjfTrs/pwN7qGY3/eZGuuYhOvVr1F/vgX1b6VfX0PZ15EqhnCIqO4ZSM8kMU9Uu2r+dmmroqTupsZaueYCcyT32frAlqkKcHxj19+H3R3cleUqmJboVAFGgaHp6YWmiWzE4RCIAGL62oEGMEe8ZiRhJQdvW0r+forYGmnUSXf4TOvaMQ7knGKCPXqUXltKujfSPxyivjKbO76MzZjhEf3mItq2lScV00fX0pcspxdO1mBGmLz6hf/yGPnyF3nyOCqbQV793sHcRO9QSrhBjbcGxMa0HACQcIhEADJ/RNRAREcmuKMKI/F5a8ybt3UpF0+n6pTTj+MPWsTvpjEspKZ0eu5F2rKe1b9Hk6WQ/omfMltW04l+UnEEXXEsXXEPOpEN/0nSafRJ5cqmjmTYup/deoIVfooIpXXvvbhIjIjIxOQMADM2ou5IHAGOIFjlt0zXPqySSJCWZBvnayOakC6+jsmP6WI0xmnMSfekK0mzU2kBmX9NutNaTlDTrBDrjksPyULdJxXTVA+ROo04f+Vq7nuzZDCmISBvNAzUCwGiCs0QAMHypdo2kpMPuJZHkTqNLbqEzL6PS2aT3c7eX3UXnX03TjqNJk8np7mOB479ED79Gk4opu//x8WYcTz9/lSyDSmYd2ns3IUjKFFuCxo0EgLEGkQgAhm9Skp2EIMM4lEWkSYqNCsqpoHygNRmjtCxaeHa/C7hTBvprhKLQnJMPe0aah1piGCTEpCT7IBsBACAiXDgDgJGYku5mQlA4fHDoakkyoZPPd0UiSSQpHGZCTEnv6xQUAMAREIkAYPiKUp2pNoVCIbKsrqcig0cnStfeJVkWhUOpNqUoNa7jOwPA2IVIBADDZ1eVudkpFA5TKEQy0qnZ6JqOPv6kRcIgKUkShUIUCs/NTrGrCZtCEgDGFkQiABg+XeEn5GdQMEjB4MELZ4JEKDGtESEi0dWMYJCCwRPyM3QF73IAMCR4swCA4dMVfkphht0yye8nEYkjgkTwsDu/4kSSCHZFIiHI77db5imFiEQAMFR4swCA4eOMStKc87JTqL2DwpGTQ5JkOAEnikSI6GAv73CI2juOzUkpSXdhWCIAGCJEIgAYkbxkx5klWYrXT4EASUEy0qcn0DVRa3xIQSJAwiRJJCUFAorXd2ZJVj7uwAeAIUMkAoARcevq4smeKakOqm8i8+A98CJIojNel88kiU4Swa7fTZPqm8pSHKcWeVw6hl4DgKFCJAKAkZo3KfWM4kyb10ttHQc7WVtk+UjEZcpVYZDlI2l17bqtw+b1nlGSdWxOajz2DgDjBSIRAIxUml27ZGZecbKdqmoPDdsow2R1xPyGfGmR1UGyuxeRQVW1xcn2S2bmpTkwlQcAHAVEIgCIguPz0y+ZWeAwwrSv+uDcq4JEgKw2it1c9FKS1UYi0HWjmZS0r8oRDl88M//4/PQRbhvdsntBQcYu/Nv10l9BEIkAIAp0hd96QtncrGRqbqPahq5hG0mQ6SWjKSZdraUgo4lML0nRtbvaBmpum5udfNsJU2wjvvfegSEeDxejgjCGz+vDxKIgOJh76a8giEQAEB1JNvX5ixbkuXSqrafmtq5RpIlI+MhsJGlEr7e1JGmQ0UjCf/AinaTmNqqtz3Ppz1+0IMkWhV7VHn3k2xhXYlQQRKJeYlEQHMy99FcQRCIAiJryDPcz588rdKhUXUftHSSsrhhkBSjcSFY07syXomtrItC1cSGovYOq6wod6jPnH1ueEZ15XidjbrTDxaggCsfH0GFiURAczL30VxAciwAQTWeVZt+3eHqJzqmyjlo7SB6cYUMGyWwis2UEN+dLEp1ktpDZRDJ46Na21g6qrCvR+X2Lp59VmhWtFzIjOslq/IhRQRQML364WBQEB3Mv/RUEg3YAQDSpnF08I4+IHv5o587KA2QYlJ1OkWsB0iSrg0QncTtxJ3E7saH1cZAWiSCJAIngYRfgpKT6FjrQVO7UfnxS+cUz8tToDVY9L4WSVeowo7W9sS1ZpXkpMdmyqioszGTs+uCPKYwxNQYTFeNg7mmAgxnxHACizKWrl8zM/8WZs2a4dVZVTxXVFDp4kzwJkiGyOshsJOMAGY1dwxcd+YkoZdeAQ0YjGQfIbCSrg2SPiV1DYaqoZlX1M9z6w2fOunRWftQHZjzdE93tjWExLYWm4ct5l9iVAgdzt6nY7skAACAASURBVAFKgQMRAKLPqSnnT80pS3dd/drGNTWt5A1QYTalJx+8+VWSFCQNoiBZ7V3fzZhKxIk4kSASJA8OhE0HV+kmJbV4qbKeguHj89KeOX/e9MwkJQadUs/NotWtVB/36dpGm2wbnRu1C5J90DXVNE0hJvqJIs6ZHrNIhIM5YuCDGWeJACAmFMZmZSV/cMUpd540xUNSraimHZXU4SfT6nFOKBJ6LCKLZIhkJ0k/yU6Soa4nuxaQRERSkmlRh592VKkV1R6Sd5405YMrTpmVlRyLPBRxSW6MNjyWxKEINh3jasa8CDiYabAiDHQFN3Ir4P79+6PeJgAYJYqKiogopj05hJQfVzU/uW7P6uqW2kDYTHJRRjI5baSrpCo0aJqJJKGwSYEQNXeoXn+uUz8hP/36hSUnFWTw2N/C/UEzvVAT652MXpfm0ZKMeOzIMMxQOC4zwIxKNl2LwwVEHMwDH8yIRAATWhwiUURb0Phgb+Obu+vX1bRua/IaNo3cDnLaSNdIVUhVSOEU6Rwdmc1eCDItMiwKGxQIka9TCxkzPEkL89LOLcteUpyZao/feYUJ+0EStzwUMWFTUXzyUAQO5gEgEgFMaHGLRBFtQWNrQ8em+va1Na0bD7RVtAUCUpKqksqJH4xERCQikUiQaToZK011zpuUenxe2tzslJlZyfEMQ922eunF2gnUFSPbRpfk0sykeO/XsqxQ2Jg4/Yo4ZzZdU5S4Di+Ng7k/iEQAE1qcI1GEJWWTP9QYCNf5QruafbtbfdUdnY3+cMAwTSFVzpyamunS85MdZWnuKRnuHLct06l7XLbY9Rkaojcb6P2mcX4zc7JKp3ti2596UGHDNAxzfN+ZzxjTNDV2/akHhYP5SIhEABNaQiJRNynJlNIUwhJSSIr8R4wYMc5I4UzlXGWjbsqHje20zUf7AtQUpk4ratOUJAojcijk0Wmyk2a4YzX+0DCYpmVZwhJCSjk+4hFjjDGmcK4oPBbjDw0DDubDVkckApjIEhuJAABGD9yEDwAAAIBIBAAAAIBIBAAAAECIRAAAAACESAQAAABAiEQAAAAAhEgEAAAAQIhEAAAAAIRIBAAAAECIRAAAAACESAQAAABAiEQAAAAAhEgEAAAAQIhEAAAAAIRIBAAAAECIRAAAAACESAQAAABAiEQAAAAAhEgEAAAAQIhEAAAAAIRIBAAAAECIRAAAAACESAQAAABAiEQAAAAAhEgEAAAAQIhEAAAAAESkJroBAABjzMZ22uajfQFqClOnRTLR7RkhRuRQyKPTZCfNcNO8lEQ36CDUOQ5Q5MNWl7LfCjDGiGj//v0jbCIAjFpFRUVENMD7APT0ZgO930QdZqLbEUvJKp3uoXOzEtkG1DkOUOQjIRIBTGiIREO01Usv1lJ9KNHtiJdsG12SSzOT4r1f1DkOUOT+IBIBTGiIREPxQTO9UJPoRiTCpXm0JCN+u0Od4wBFHgC6VwMADGTCfoQQ0Qs19EFznPaFOscBijwwRCIAgH5t9U7cj5CIF2poqzfme0Gd41BnFHnQIiMSAQD068XaRLdgFIhDEVBnin0RUGQarAiIRAAAfXuzYQJ1QR1AfYjebIjh9lHniJjWGUWOGLjIiEQAAH17vynRLRg1YloK1Llb7EqBIncboBSIRAAAfdjYPs6HbDkqHSZtbI/JllHnnmJUZxS5pwGKjEgEANCHbb5Et2CUiVFBUOdeYlEQFLmX/gqCSAQA0Id9gUS3YJSJUUFQ515iURAUuZf+CoJIBADQh6ZwolswysSoIKhzL7EoCIrcS38FQSQCAOhDp5XoFowyMSoI6txLLAqCIvfSX0EQiQAA+oApTnqJUUFQ515iURAUuZf+CoJIBAAAAIBIBAAAAIBIBAAAAECIRAAAAACESAQAAABAiEQAAAAAhEgEAAAAQIhEAAAAAIRIBAAAAECIRAAAAACESAQAAABAiEQAAAAAhEgEAAAAQERqohsAABOZFMKS0pTSIikkSSJJxBgxYpwxhTGVc4WIJbqdADD+IRIBQLxJaYVDzaFwUzDY4PPt9vv2dHbWhEMtpuWT0mRMVRW3bkt3OPJc7hK3u8xuz7LpHt2WwZiS6LYDwLiFSAQA8WMYbR0d29vbtrS2rm9r+zzg38t5WNMUVeWKwhXOGDFJ0rKkzyvaWoVhWELoTldxauqctLQFKamzkpOna1pqol8HjCufvfzcrhVvOJLTFl3xA0/p9EQ3BxIGkQgA4sEw2hsbVtbXv9Past7r3eF0KsnJjuysFLtd1TVV1RRF4ZwxxkhKEkJaQpiGFTbMYND0+2tbmiuqq/6ZlDQ1LX1BdvZZmVmnalpKol8TjAdVn65a99dlRNRK9PavfnTZ719LdIsgYRCJACC2pBQtzWsqKp5uaVlnGA3pac7CglyXy26zqaqqcN7dT8jJmItIJTKl9BMFIs8KIU3TCoVMvz9Y31BdXb2zvv7d9PSFJaXXZGQsYmx83iPS2d6y/Z2XhWlMO/Orbk9OopsznjXu2d79u6/xQLCjzZ6M05AxVLtlfdWnq1LyiqYuOZ/x0fX/LyIRAMSQsILbtz+8b+9zlvBmpLsKC4uT3HZF4YxFkpDCeAFXZnFewlhyj3tghZReISqEtYVTla5bum5zu50eT6rXF6ysrK+re62xYfnk4iunz7iDc3vCXl5stNXse/2eawNtzUS0/e1/XfLES7orKdGNGreksA5/KBLVkomg+rPVb9x/Y+T3vavfO/vHSxVNT2yTekIkAoCYkNLyends3HBDa+sGp9M+rbQoMzOFs+5zQirj+ap2GuOFRJzIklIQdX84McZTFH6cos6XotI0VkhRzZipqkpaqpaS4m5sbK+oqNm189GmxpXz5i9LSpo6bnpe98xDRNTZ3lK34/PCY09KbKsAomLPmve7f6/auOrtX9w2qlLR6DpnBQDjg2UFDhx4Y93aK32+TZMmZc47Znp2VgZnKpFCpBA5uDJfUc+TMtkymyyzzjIbhdUsrJaDP82W2WiZdZbZJGWyop7HlflEDiKVSOFMzc7KmHfMtEmTMn2+TevWXll34A3LCiT6RUdBrzxERMRYUtakxLUIIJqSs/N6PoykIssIJ6o9vSASAUCUmaa/uuqlrVvuFdb+kpLCGdPLHA5HJAxJSUIEiZUQKxVWq7CapGiToqP/nzZhNQmrlVgpsRIhOqWkyKYcDseM6WUlJYXC2r9ly73VVS+Zpj/RL31E+shDRHMv/HZafkmimgQQXbPOuzSzdEbPZ0ZVKkIkAoBoktKsqXllxxdLOasvKyvOz5vEucIYJ6YI2WmatZaQxHKFbBPUfhQ/so1YriWkadYK2RkZyJFzJT9vUllZMWf1O75YWlPzspRmogswTH3moTkXfOv4b9+UqCYBRJ1qs3/5vt9mTZnZ88nRk4oQiQAgmurr39++7UHOG8vKSjIzPVxRiSnEmGU1G8Y+y2rgPF9KvxRtR/0j/ZznW1aDYeyzrBZijBjnipqZ6SkrK+G8cfu2h+rr3x+8iaNPP+eHLl90xQ8S1SSAGNGd7vPueTJryqyeT46SVIRIBABR4/Pu3rjhRikaS0qKMzIyONeIFCJuGLWGsUcKH5EgpknZNrwfYhqRkMJnGHsMozZyBY1zLSMjo6SkWIrGjRtu9Hl3J7oMR6fPPHTMRVcefznOD8H4pDvd5937ZFb57J5PjoZUhEgEANFhmt4N668Nh+sLC4uys3MYU4g4ETPCe0xjP8muu8mE1SrFMH+E1dq1M2mZxn4jvIeIEXHGlOzsnMLConC4fsP6a03Tm7AqHKU+89C8r39n4bduSFST4P9n787j5KrqvPF/zjn31q29q6v3fUs6+0IWdiSJAoIyiiIwzDOjjgq4/h5nhlF5FMd5HB2BEUf0GccXijM4iuCCLIIoIogEErKQpBOSTqfTnd67q3qpve695/z+qN6SXpJ0d3WH9Pf96pfS1VX3nrpJbn/qLN9D5oHD5XnX3d8tWrZ2/IMLnoooEhFC5oCU6aNHvjM4uL+oqLiqqhrgAFfKNtPHLKv95Ge2zriXSMoT4w9lWe1m+phSduZ0VVXVRUXFg4P7jzY+IOXCz0s4rUnz0IYPfHTzrZ9YqCYRMm90l/u6L32nePm68Q8ubCqiSEQImQPh8Osn2n7ucun19StG+odgW52W1XHKM5XslqpXIXK2X1L1KtV9ytEsq8O2OgEFCMZEff1yl0s/ceIX4fDOeXrnMzVpHtp4022bbrljoZpEyDzTXe5rv/RA8YoLxj+4gKmISjUSQmbLNAfa236RSravXLnCMFyAAmDbfZbVPq764ihL2m2MBcDOpj6bSis1AGVO+IFtWe2Me4UoBLhhuOvq6g8ePNR+4hc5/lW64xzdmWHSPLTq2ptWXnNjYiA848Pqbo/mMGbdOkLOTio6JK2ZL/bc8qkvP3fPneGWxtFHFqqKI0UiQshsDfS/0dvzx2AwEAwWZPqHlIxZVrtSyclfoFJKhcAMxjSATf6ccc9WyoJKAZPfc5VKWlY7Z37GPQCCwcJgsLO398WBgTcKCq+cxdvKlmhf18Q8BKDhmUcbnnl0NkdmjC+98rotn/oy2GmvKiFzINrX9duv/13o+JE5P/KJPa/87t5/fOcX7p/Pv8w0cEYImRXLivX1vZxItJaWVmqaMTxkJkPSDmW6i6Z6HVRcyYhSUaXiU39FlYxAxafKQwAAJe2QLfsAAFzTHKWllYlEa1/fy+dm8cY9P//hxDw0J5SSR/74VMvrf8rGwQmZaPdjD2YjD2W07nq5ddfLWTr4pKiXiBAyK8lER0/PC4FAwOfL4VwAkDJhWx3AabfPVICCmpNdNqVtdQpRzLmHMfh8OYFAoKfnhYqKm7y+pXNx/LmUGMxKHhp3/JkPvZ1/4uHenT/9j0hPR/WFW1Zfd/PMuhxi4Z7Xf/q9SE9H9UVbV19385w38q0r23/Z4vP7l5kiESFkNlQs1jw0uL+mZolheAAOKGkPSDm8Wl4pAFns+ZYSnGf+o1/aA5x7AWYYntzcwubm/bFYs9e35AzG5ubV0ivfdXzHi1k6uNOXU7nx8iwd/K3ohW9/uX3/DgAdB17vbzt2xW1fONu/jpGejie/dFu0rytzEE+woObibVlp61vQ0rdd17LzpSwd3PD6qzZekaWDT4oiESFk5qSdDvW9ouvc5wtwrgFQsG17eJVZKqW2b7fSplq3Viss5HMbjJJJdfCg3dEp160VFRUCgG13CL0c4Jxzny+g6zzU90pBwZVcnFszjmsu3nbhX31yx/9895THay99R27FrLYzMzy+mkve7s7Nn81BzjPdR/aP/veh537JuLj8Y58785dHezufvPv2TB4aPSBFolG1l77jPXk/7GzYZVsTlz6cheZX/xBuOanIqsPtvfaL33YFgrNr4NmhSEQImTkp06HwDrfb53L71fDE6qRtDw8MdXbKu78SD4fU1q3au9/luORi3e+fg1hkWWhstH7zrPmbZ9KdnfIzn3LdfptgDLYdUtJkXFeA2+N3u32h8A4p0+daJAKw/n0fBnBKKups2L3hAx8LVtYtUKPOT0X1azK9RBkHn32MMXbZR//xTF4b7et68u7bo72dpxxwjpv4Fle0bO0pFRfP1qHnfhlubRr/iMPtve7u75yy6cc8oOnVhJCZs2VycOCAYbhdzsyoGZcyDAx/XgwE2OZNWv+A/Pkv0l+6O/4vX4u/sc+yJ67KPxt9ffK/Hk5+7gvxB76T3LfPLi7iK1eKkf4nU8pwphmG4TGc7sGBA7acYtXbQlv/vg9f+FefHP9IYjD81JfvGL8Umcze2z7xRW9+0fhHGp559JUf3nfaF0b7up+6+/ZIz0mFtVZc9T7qIppbB3/78z99/+vDQ+wAFi4PgSIRIWQ24rFWKaNOp5sLHWAAk3bf6E8DAf7F/+P+4YOeNavF8Rb5Pz9Nf+z26P3/nojFZjKlWin1xxfN2z8R/frXE6/tsDQNn/2s86EfeC+5WB99jrT7GBjAhNCdhlvKaDzWOgfvMzsmpqLkUP9T//Tx7C3hWYR8haXv/ufvn5KKDjz9yPaHvjnNq2Lhnqe+fPtQ90mF15dfdcMVt38hK61crBqeefTl7//rOZKHQJGIEDIb0WgT58Iw3ABn4AxcysHxT8gNsGuuNh77me/uL7lyc9HcLL9xT+LKrUNPPJkyzWmW6J9EKbS22rd/PHrLrZGXXrISSXXNNfpTv/Z94R/dVVVCH0tEkHJQgWcaYxhuzkU02jT1gRfeZKlo4Kkv39HXfHihmnT+8ReVTUxF+5/6yav/9a1Jnx8P9z519x1DXW3jH1x+1Q1vu/0uKvg0hw785md/fvCe8Y8sbB4CRSJCyGwkk52cc103Mn0zCkyp6MSn5eTwT9zh+smPfTff5Cgu5ifa5Cc/HbvjE9Htr5rJ5HTBSEq0tdkPfDfx7vcM/epx0+VkF27W7v+m57sPeJcv1yb+elIqmtkIVoFrusE5TyY7JzvwOWRiKkpFh57+p4/3HXtzoZp0/pk0Fe174sevPfztU4pnxfp7n/zy7YOdJ3UuUh6acwee/ukrP7h3/CMLnodAkYgQMhumOcQY50JX4AoC4EpNvjMR51izWrvvHs83vu6+6h065+yJJ82/+/vY67ssOXUo6umV930z8Y17Ep2davky8alPOb/3/zw33Wj4vJP/clIqDXAGxsCE0Bnjpjk0J+80qyZPRV/5RG/TwYVq0vln0lT0xuP//ebvHx//yG+/9tnBDspD2bX/qZ+88sN/G//IuZCHQJGIEDIbSllgjDHBwAHGwKev0Oh0si1b9K1b9Mxo18CgikbVNDWuU0nV368yuydVVfL3XK+Xl4tpWyQZOIbHzgTAlJr51kvzaYq+ok/0NDYsVJPOP5Omoli4Z5pvKQ/NuX1P/s8pE7nOkTwEikSEkNlgTMvUoAbjjHEwDkwXWY4ds7/6L/Fvfyc5NKSqq/lnPuXatFHjU9+Hikv4Rz/i3LpVdzjw4kvmF76YeObZdDo9zVibQKYZjCsoQDGmT/3kc8vEVJSOR3/79c+mY5GFatL5Z9JUNBXKQ3Oube/2V390//hHzp08BIpEhJDZ0HW/UtK27czcaoAz5pr0maapfvtc+v/7bOzhH6c6O+Xll2n/fr/ng39j5OdPdxcyHOySS/R7v+H5zKedYHjpJfOLX4rf/61ET+/kfVGMuUZ7iaQtlVK67p+D9zlfJl2Z33V430K157x0hqmI8lA2HHv1D+O/PafyECgSEUJmw+kskdK2rLQCyyz14tw38WlDQ/I7301+6jOxV1+zLAuf+qTz4f/yXXqJ7naf/veNJlBRzu/8e/djP/NVVfETbfL+f09+8tPRNw9bakJvEeM+NRLOLCstpe10Fs/JO503p6YixnyFJQvXnPPTaVMR5aEs8ReVjf73uZaHQJGIEDIbXm+dlHYqlRiZS8QYLxj/BMvGgQPWHZ+M/es9iWQSF6wXP37Ye/cX3R7P2f2y4RwXX6Q/8Sv/B//GyMlhL71kfeCmyE9/lhocVCc/rSCz9o2BpVIJKW2v961XDHr9+z58xR13uYMFTn/uxR/837nls9rlg0xqmlREeSh7Vl93S91lV+tOd0Hdynd/5XvnVB4CbehBCJkNt6eSc28yGbNtKYQGQIhSyxwb6Dl82PrrD0Y7OmVxEb/uOv0jf+usrZ1+fvR0iov5l7/k2nCB9t8Pp/YfsP7+H2LNx+wvfN49OhtJiNLMJz3btpLJGOdet6dyVu9wgay46n0rrnrfQrfiPJdJRU/dfVu0r3v0QcpDWaUZzrf/3dcWuhVTol4iQsjMCe7MCaxOJmPJZBzDZaMLGXOPPmGgX2k6Lr9Uu+vzrjv/wbWkTvDZ/a7x+fgHbjS++n9df3mLUVbG+/rk6PAZY24hCjPNSCbjyWQsJ7BacOeszkfOa5lUFCityny7+rqbKQ8tZtRLRAiZOc4decELW1v3x+ODHk8uAMYMISosa7j48gUXaN+8z5Ofz5cuEdoc3W90HZs26lWV4i+ud5SVcjHS6yREBWNG5pNePD4Yjw9VVl7IuWNuzkrOU/6isvd/86e9Rw+6coI5pW/JPkUyVygSEUJmjgtHXv6lTU3/EYmE8vIqOReAJrQ6yzoK2ADcbnbF5VlZBl9QwAsKxvdzC6HVARrApLQjkZBppvPyL+WCIhE5DaE7ilesX+hWkIVHA2eEkNlgbk+N37+mv789lYplNtMQIl9oFfPcDqFVCFEAcIAlU7Fwf7s/Z43HUwPQIAgh5IxQJCKEzIrLVVpYuKW/vysSCSsFgDHmE2Ip2DxO4mFOIZYy5gWYUohGwgP9XYWFW52u0vlrAyHkLY4iESFkVjTNk19whctV0d5+0LLMTJlETavQRM30laznjtBEjaZVAALglmW2tx9yuiry8y/TNM+8NIAQcj6gSEQIma1A7rqCwi3hcEcodCIzdsaYT9NXcR7M/rgV4zyo6asY82XWmoVCJ8Lh9sKCKwMBmh1CCDkLFIkIIbOl64Gy8vcbztKjTdtTqdHV+KW6YxPL8vAZY07dsUmI0sxJU6n40abthrO0rOL9uiOQ1VMTQs4zFIkIIXMgGNxUUfH+RDx6+PAflVIAA4SmLdEdl2XzPsN1x2WatgSZTe+lOnz4j4l4tLz8fcHg5qydlBByfqJIRAiZA5w7liz9tD9nVVfXkePHd2f6bKB0XV/jMK7JzqQi4TCu0fU1gJ453fGW3V1dR/w5q5bWf4bKERFCzhZFIkLI3NA036ZN33c4ClpadnZ3H1ZKggFgurbccF7HWM7c3XA4YzmG8zpdX56Zq6SU7O4+3NKy0+Eo2LTp+5o2ydazhBAyPYpEhJA54/UtuWDjA4znNDVtD4VapLShAMY0rc5wvlNotbOfWsSYU2i1hvOdmlaXyUNS2qFQS1PTdsZzNmx8wOtbMhdvhRCy6FAkIoTMpaKibStW3mXb7sbGl3p7j0plQwHgQpQZxhZdv1iI8pmOowkhynX9YsPYIkRZ5vYlpd3be7Sx8SVbulesvKuwaNucvhtCyCJCG3oQQuYSY1pZ2Q1Q6siR+48ceSmVilVUrGfgABj8umO9sCtt2W5bx6XsUCpxZsd0cV4qtGohyjgPjn6WU0q2tb3R0rKLseCyZZ8tK7uBMbqnEUJmiG4fhJA5pmme8or3OxyBhob/e/Ton4eGuurqLne5/GAAOBf5nAc1USvVkJRdtt0h7V6lBgF18mEYYzlcFAhRynkxZ37GPeM7thOJoaaml3t6mgxn5apVXyosersQ7vl9o4SQ8wpFIkLI3BPCXVxyncdbt2fXp9rbd/f3dyxdekVh4RLOBRTAOGM+AZ/gJbq2TkEqZSkVVSoJ2IBgzMmYlzGNMZ4phz0+L0lp9/QcbWz8Uzzen5u74YKN3/H5ljE2P5WyCSHnLYpEhJCsYEz4/SuvuPI3hw7+6/HmH+0/8Gx+XmV19YVeb76mORhjmWwEcAYw5gAm9PGc3G2klLKsdDTad/z4jr5Qq+DupfX/e8XKz3M+j5upEULOXxSJCCFZxLlz5aq7i4qvPtb0/XB4x+7dvwgGK4qLl3u9eYbh1TQn51Mv8mAAIKW0rGQqFY1GQ13db4ZDbZoeLC6+rrbutry8ixnL1hoRNmEkb5HL0s4sdJ1PkY3rTBf5FFNdZIpEhJDsYozn51+ak7Oqt+el7u7f9Ydf37//WY8nx+8v9nrznU6/w3DrmiE0B2eCMSgFqWzbTJt2Kp2KJ5ND0Wjf0FBXLDbo89WXld9UVHRVQeHbdD0nq812CcTtrJ7hLcaVnZFJus6nyMZ1pot8iqkuMkUiQsh80PWc0rLrCwqvGBo6NDhwoL//9YH+N7q7d3CuHA63phlC0zkTjDGllFS2bZmWlUqn41Iyt7sqN/iO2rpNOYHVfv8KXZ+PzcvyHWg9o/Vwi0V+duqB03U+RTauM13kU0x1kSkSEULmj64H8vIuCQYvLE29J53uSyV7otGj0eixRKI9nQpZdlwpkzFdE26nN8/lKvN6a73eJYaz0OHIN4y8+ZxDXe2m3yInqc7Oej66zqfIxnWmi3yKqS4yRSJCyHxjTDidhU5nIfwr8vMvl8pSyoaSCgqZctdgYJwxwZnGuMjaPJbprPTipdD8n/bctdKbrcPSdR4vG9eZLvIpprrIVL2aELJwFCABmzOTwxQsLZASLC1gCmZy2BxyweaFXpADP31mHOHXcEF25m7RdR4vS9eZLvJ401xkukiEkPmmpEwPDKQHB1PhcLStLd7enuzpSQ8NWfG4sm0mhOZ2O/x+Z2Ghu6zMW15uBIOOnBxHIMCmWZ6WBdvy8XjXfJ7w3LUtP7sHp+uckb3rTBd51DQXmSIRIWT+mNFopLl5qKlp4NChocbGeHs7T6V0QAM4IEZWC9tADBgETEAahruszL90aWDFCn9dna+mRvdmZwhngmsLsb0f3an5Odu5q8jAtYVZPD5d54ysXme6yBnTX2Sm1JS90owxAC0tLdloFiHkXFBVVQVgmvvAXDGj0b49e3pfe23g0KFIS4vbsvyABzAAx0gk4iORSAISsIA0kAJiwBAQ1zRfVVVgxYqCiy7Kv+CC+QlGDRF8u3keznNO+0wNVvmyewq6zsj+daaLjNNdZIpEhCxq8xCJlFL9+/cf/9Wv+hsazFAo17YLAA/gAPTxE6cdDhgGE0LZNlIppNPDLwdMIA3EgF6gXwg9Ly931aqqG24IrlmTuU1l1QshPNKe7ZOcu24pw9a8+TgRXed5uM50kae/yBSJCFnUsh2JZDp95Ec/an36aTsazbXtSsAzMkAGAJyzvDxeWcmKi5nLBcaQqdWolEokVFeXbG1VoRCkxLgBtVagXwjh9Va+6131H/oQd2SnYM44i/YXybzloQy6zvOALvI0KBIRsqhlLxIpKaMtLfvuvXfg/X+2ogAAIABJREFU4EEXUAMUjO8T4pzl54tVq3hBATjPPD76UzX6v1LK3l67oUH19WWCUebxXqAZSACBlSvX3nmnt6oq2zOvGyL4WccimopRZODm0qyPl01E13ke0EWeCkUiQha1LEUiO5ns3bnz8A9+kGxpyVOqBjhpa1Zd5zU1Wn29cDjYtEWHMnWK7HTaOnJENjfDNEd/lASagRBjzqqqZR/5SMHmzcKZ9f1fn+nBH/owZGX7PAvJr2FbfnbnU58WXed5QBd5IopEhCxq2YhEdiLR8cILR3/yE9XWVgaUjQs9DOCci7o6UVc33YavE0gp7aYmu6lJSjnaVgW0A+0AKy9fcuutpVu3CpdrDt/IVPYM4mAUx+PoSyNhv+U31GSASyDfgWo3VnqzVX9oBug6zwO6yCe9nCIRIYvZnEciZdttzz3X+PDDoqOjCsgbVxCWAxoggkG+di1mMM4lpdy3zw6HLUCOPgaEgBbALi1d+td/XX711UzM36YfhJDzCdUlIoTMpd6dO4889JDo6akFAuPykAB0QADIz0dqhrMYeH4+D4c5YAKZjb05kAcIoKmj48hDDxm5uYUXXzwX74MQsujQhh6EkDkTO3Fi3733yp6eaiB33P1FB4xMHgIgBJLJGX4JAUAABqCPHJwDuUA1IHt69t17b+zEiXl+14SQ8wP1EhFC5oYVj+/9+tfToVAtUDDucce4+AIA8ThmPE6XGN7OmwEOgAHpkW8LgCRwLBTa+/WvX3TffZo7O/u2E0LOXxSJCCFzQJrmsUcfHWpqKgDKRx5kgH5KHgIwMAAAMyixqNTwa0dkjmyOLNovByJAX1PTsZ/9bMn/+l9cP/XMhBAyDYpEhJA5MHDwYMfzzztTqSXj1pdpk95iIhFoGrSzv/lYFiKRUx7TRspbA2DAEiCaSnW88EL+hg3BdevO+hSEkEWMIhEhZLbMSKTjhReSXV3LgNFK0gLQJq05JCUGB+F0Qogz7StSCraNZHK0WuMoBmiAHJlt7QBqgMOdne0vvOCrrdV9815qkBDylkWRiBAyW4ONjX27d+eaZu7II2xkJ9fJWRbicWjaGaWiTB6yrIl5KIOPpKLM8FkACJhmaNeuwbe9LX/Dhhm8HULI4kSRiBAyK3YiEd67N9nWVjPuhiJG15dNRUqk02AMnE+XipSClKedjp05XaYMrwYUA4fa28NvvJG7YsX8FG8khJwHKBIRQmYl0dfXu2uXX0rPyDAZGzdkpgCplMnYiXS6xzTdnNc6nR7GeKYPKdMDdAYkIIGYUseSybiURbpe7nDoSnHG2MgZbUABDPAAfil7X3+99B3v8FZUZO2tE0LOKxSJCCGzoFS8vX2osbEKMEYeG+0iGrDtdqfzTz4fLrywbNWq/Pz8/kTiF0ePRnfuXNHaui6ZDALa6QbOLKXCwBtO56HKSu/mzTVLlzqdzkN9fb9vaMCOHVdEImXJZECI8R1FBhAAWhob4+3t3vLymaxuI4QsPhSJCCEzJ00zvH+/I532nlyoWgGttr2nooJff/0H3/te1/jRq23b1Mc+tmfHjj888siKffuWmaZz6s09klIe1vVDa9fW33LLpy+8kI0PN9dfn0gkfvf440effHL9iROVQoxGIg54AUc6Hd6/P3/DBu5wTHF4QggZQ9WrCSEzJ02zv6HByZiLcwgOwRlnAjhhWbtWrTKvvfZwW9t99933/PPPW9bYjtuMsQ0XXbT1c59rueaaQ7puTTFVyFLqkK4fuuKK9Lp1v/nd7771rW8dO3Zs/BNcLte7brpp2ec+t2vVqlbLEgDjLNMMF+dOxvobGqRpZvcSEELOF9RLRAiZOWmaQ01NeZwb+vDNRNj2UDp5oLxcbNny40cffe6551Kp1IYNG/75n//5mmuuGf/aouLiSz/84Wf7+kp37Cia7OAhxg5s2JAuK/v2/fcfOnTIMIxXXnnle9/7Xl5e3uhzhBBLV6+2P/rRhvvuC7S1OV2GJTQABmCYVqipiSIRIeQMUS8RIWTm4l1ddjTqFELTNebQmK5xsF6XK7ltWziRePXVV2OxmGVZe/bsefrppye+PL+g4JKPfvSFKco2vqBpq266aX9Dw4EDB0zTjEajL7744muvvXbK04QQy9avT27b1utycTCma0zXNF1zCmFHo/Gurrl/24SQ8xFFIkLIzMXb2gTg0AR0HZoOXbdsa6/Hc8n11wsh1LgRMTXF6FhdfX375s1ywk+lUu2bNy9dvhyAnKIi0ShN0y65/vq9Ho9lS+h65suhCQHE29pm9xYJIYsFRSJCyMwl+vo4Y7ommKZlvhRYqKqqpKRk27Ztl19+eW5urs/nu+CCC2688capDrLh6qt3TNipY0cksuHqq30+31VXXbVhwwa/3x8MBrds2XLllVdOepCSkpJwdbUCmKYxXWOapmuCM5bo65vLN0wIOX/RXCJCyMxZsRhjTIhMHWoAYIzx6moA5eXl3/zmN59++umhoaG3v/3tGzdunOoga9aseTQSudjvH//g7kjkpjVrAFxzzTXBYPDll1/Oycm58cYbPR7PVMdhVVVs//7RlgihMcasWGxO3ikh5LxHkYgQMnPKtgEwwZkYrlatGGMjqaWiouKOO+447UH8fv/AuPVoGQOWlZOTg8yg2CWXXHLJJadvjcsFxpg23BIm+GgLCSHktGjgjBAycyzTJcMZNDH8Baiz7JgZGhoKTJhhHdC0wcHBs2tNIgEocDH8xRgY2BRztwkh5BQUiQghM6d5PErBZgxCZL4Ugzx+/KwOsn///g0Ttqzf4PPt37//rI6jWlrUuJbYnCkFbeqBNkIIGY8iESFk5pz5+RLKUmCcZ764EHktLZ2dnWd+kN3PPXfhhEh0oc+3+7nnzvwgnZ2dwePHuRBM8MyXpSChnOOKGBFCyDQoEhFCZs5TXi4V0rYNzsEFONfc7vWx2PYnn7QmTA+aVNORI2U7d/IJ25Bxxsp27mw6cuRMDmJZ1vYnn1wfi2lu9+jAWdqWUsFTXn7W74oQsihRJCKEzJy7uJh7PEnLloxlJlkrryc/kXD+4Q+H9+61Tze1ua+3d/uDD26dIjxttaztDz7Y19s7/UFs2z68d6/zD3/ITySU15PpIpIMScviHo+7uHiG740QsshQJCKEzBzXdX9dXcq2U7YE5+AcbleO07mqre3wgw82HjgwTSrq7ur680MPrdq1K2+KKo55Sq3atevPDz3UPXUFatu2Gw8cOPzgg6va2nKcTrjdmWakbJmybX9dHdf1OXifhJBFgNZiEEJmjut67qpV7QcPxk3L43SCAboufd5Ky0JDw95vfOPI9ddf9d73ulyu8a9SSu3ZsePII4+s2LdvmWlqfPLPZhpjK0yT//a3L3R21t9yywUXXshOHl9LJBK/e/xx9eSTG0+cqNQ06fNC1zLPiVtWPG2WrVpFkYgQcoYoEhFCZo7renDNmuafPxZJpfL8Ps45lFK5ATYwWCVEzokT7T/84X899hguvLBs1aq8vLxkMnn86NHozp0rWlu3JZNBYKo8lOHkfJVlleze/cbBgw9UVno3b65essTpdIZCofaGBuzYcUUkUpZMBoQAYyo3kFl7L5WMJlNphuCaNRSJCCFniCIRIWQWGHOXlvqXLO0/0VoSDLoyRYDcbuX3scGhgBA5prk8FDKfffbEE090m2Yu5xudTg9jHJg4pXpSGmOFwNtTqa2NjbEjR44lkzEpl+v6VQ6HrhRnLFMlUvl9cLshBANSKas/FvMvWeouK8OZnYUQQigSEUJmxVlQkL9xY/Phw9FUyuVyMgCGUwaDPBpjts0AwZgAljocSx2OGZ+FAxzIYeyC8WNwI3FHaUIGg3AaTDHFEE2l+uOJ2k2bXPn5s3tzhJBFhKZXE0JmRXO58tavd5aWtofClpTgHIIjx69yA/PUQ8OYCgSQ4wcXENySsiMUdpaUBNeuFSfPYSKEkGlQJCKEzFbO0qX5GzaE4/FwJMoYZ4zDcKKwULnnI5EotwuFhTCcmVOHo9FQIp6/cWNOff08nJ0Qct6gSEQImS3d5yvdutUoLGxs70jbVqaMNfx+VVqqsjy7Wem6Ki2F3585adq2jrZ1GIVFpVu36hMqYhNCyDQoEhFC5kBg5crSbdsStn2opVUxBs4hBPLzVVWlytrwmWJMVVUiPx9CgHPF2KGW1rhtl27dGli5MksnJYScrygSEULmANf12ptv9tfWdofCx7u6hss2ahqKi1X9UjXtSvuZUZyr+qUoLoamZU53vKurOxT219bW3nwzrb0nhJwtikSEkLmhud3r77pLz81tbu/oCoUVGBgDFygqVsuXK6dzzmZbM6acTrV8OYqKwAUYV2BdoVBze4eem7v+rrs0t3tuTkQIWUwoEhFC5oynomLtnXeynJym1tbQ4KBCZsYzR0EBVixXeXnQZl34Q9NUXh5WrGAF+eCccSaB0OBgU+sJlpOz9s47PRUVc/FWCCGLDkUiQshcKti8uf7DHzb9/iPNzT3hsATAGOMcgVzUL1U1NQjMdHE+YyoQUDU1qK9HIAAuGOMS6A2HjzQ3W35//Yc/XLB58xy/H0LIokGlGgkhc4kJUbplC5Q6+pOfHD52LJVOV5aVMcYBBaeLlZer3Fw2OIhQCIODMM0zOqiuIycHeXksJ0d5PJlExQCp1ImOzuNtbSoYXHLrraVbtmQqWRNCyAxQJCKEzDHhcpVu26b7fId/8IMjx48PRCLLamtdTicAMMZ8Pni9yM9HMomhIQwOIhJBIjHJgVwu+HzIyYHfD6cThoFx+74mksnDzc09fX1Gaenyj3ykYPNmkTkFIYTMCFNKTfkzxgC0tLTMY3sIIfOqqqoKwDT3gRlTUkZbWvbde+/AoUMel2tZXV1RQcGp+5opNfxl20ilYJpQCoxB12EYEAKMDX+NI5Xq7u093NQUSyQCK1asvfNOb1UVy8KiNkLIokKRiJBFLXuRKEOm00d+9KPWp5+24/GC3Nzaykqfx6MJwc5+OpFSyrLtSCx2rLW1t79fuN2V73pX/Yc+xGexdRohhIyiSETIopbtSJQ5eHj//pZf/aq/ocEaGMgLBEoKC30ej+Fw6Lp+ar/RBFIp0zRT6XQkFuvs6QkNDGiBQO6qVVU33BBcs2YG0YoQQiZFkYiQRW0eIlGGGY2G9uzpee21gUOHoi0tXqczx+/3eTxOwzAcDl3ThBB8ZPBLSmnbtmlZqXQ6mUpFYrHBoaFoMumtqgqsWFF40UV5F1yge73ZbjMhZFGhSETIojZvkSjDjEYjzc1DTU0Dhw4NHjmS6OwUUuq6PhqJGKDGRSLTNG3OXSUlOfX1gRUr/HV1vpoaCkOEkGygSETIojbPkShDSZkeGEgPDqbC4VhbW6y9PdnTkxoYsFMpZdtMCGEYRiDgLCz0lJV5ysuNYNCRk+MIBGgONSEkeygSEbKoLUgkGqOUsm0pJWxbKQWllFKMMTDGGEOm3yiz7owQQrKM6hIRQhYOY0zTqLoiIeRcQL3QhBBCCCHUS/SWogApla1gK6UApZQCGMAYY4BgTDDw065pJoQQQsgEFIneAqTCQMoaSFmhpHVsMNk8lOqIpsMpK2ratlKCMa8ugoZW6nXU+I3aHGeeUwsYWsDQOIUjQggh5MxQJDqnRdN281DqyEBiV0/0jb74saFUHAKaDk0H18AdAAMU0hIRia4IrLAbdq3fWJfv3ljorQ+4avyG10FTNQghhJDToBVn56ioae/uif2pY2hnd/RAKGE63fDmwOWF0wXDCd0BoYGLTCKCbUNaMNNIJZFMIBFFdFBPxlfnuTYXea8o9W8o9Hh1CkZkEgu84owQQs4ZFInOOUphfyj2s8bQq52Rlrhl+oLIK4I3B043HAZG6rIYHC4OwWArJCRScvT1EukUEnFEBxHq1iPhKrd2cYnvpqV5a/M8NM+InIIiESGEZFAkOrekbfXDg92PNoba4lbKF0RZFbwBGM5MEuJAkY46F8oczCsg2EgnkULURnsaTQnVbWI4HUkb6RSGBtDRYkTCZS7t5vq8v11Z5BAUi8gYikSEEJJBkegc0h5N37W9dXtnJKU5ULMMBaUQWqZIHQMKHLjUxyoMpnNMmmpsBVPiREq9ElG9aQz/uSoF20JPB44fNqz0JSW+r11SWealncPJMIpEhBCSQZHonGArtbc39uVXTxzoTyp/EMvWwe0e+SHjDMtcuNzPnMNRaJpuHgUgaauXh9ThBKQafgRgiMdw+A02FF6d6/zKxZXrC9yCRtEIRSJCCBlBkWjhpaX6c/vQvbs7GqIWSipRvQzjNnJiYPVudpmfnVW9IanUn4fUkbhSGPfnKyWOH0Zn6yqvdueG0svK/A5apr/oUSSaCtv35EI3gZA5ptZev9BNOKfRIvwFJpV6pTNy356OhjhQtRQllWAMyCQZBsZydb7GwxLytEc6BVvjYb2mCpsSkCNdRQxVS+EwGk4037engzG8rcxPlR0JIYQQUCRacPv74t/c3X4gDlQtQWEpOAcUFAMYGAfjFQbSCukZfYavMFjYElAMkIACFDhHcQW4ONB69N/2dOQa2roCz1y/J0IIIeSthyLRQuqMmV/d2fbGoIXqJSgsgZYZL1MAB+OZHegMjpg9w+MbmeOxzP9JZNaiaRyFJZDWvuNHv7qz7dtX1pZ49Fm/FUIIIeStjSLRgknb8hu72l7vjaOsCsXlGN4OXAECTIzOoU7I6WZTT29suI1xgEEBsAFAEyguRzLxenvLN3a13XNZNa3MJ4QQsshRJFowvzga/n3roPT4Ub0EmhhZGibATvpD6TORN9M/pZA1/jsGpkGpsVRUvUQO9P++dfDnxaFb6/NneA5CCCHkvECRaGEcH0r95HBvRAIr1kJoyKyWZ/yUPASgz4TBZ9JRpIA+c8KjTIOSUBIAhMDKtZHX//yTN3svLfZV+40ZvBFCCCHk/MBP/xQy19K2evxYqCmSQlUdXG5AQWWmVOsTaw6ZCt1pxGzE5Vl8xWx0p2FOMil75CwKUIDTjaq6pqHUr5pCaZuWYRNCCFm8qJdoATQOJF5qj8QMD4pKR9bbA0wfmQd9qoSEDTgY+LRVGjMUIIG0QnqqdfuMQ2lAevjbotJ4b9dLHUNXVQZW57mneA0hhBBynqNINN/SttrZHX1zIImqpdC14SlELDOleupXSVgY3tQMUwQjNfK/tsJpyhgxAXAoGwB0DcVlh1saX++J1gdcNM+aEHIWRup7ABirCzt6n2ILPxTBoLiSAjZXkkExKDbcZKbAJOM2hGRczXwdCzl/UCSab31J85XOSMzhQk4APPNvk4EN72U2DQnIM/hXe0ajX4wBGmADCowhJxAzXK90Rq6uDJR6aPszQsi0FJAC0gpJIKoQAxIKacAavp9BAxyAi8EDeBmcgIPBOINe7rnDIf12xG9HAtZAidlVku7Ks8J+O+pUSQHbhkgy55DwhrRgp6O4Uy8e0AJDwjckfHLBQxxZOBSJ5ltnLL2zJ4qCMjgNZHZRYByYrotovLmb75PpKLIAwGkgENzZ3d4ZS1MkIoRMyQSGFAYV+hUGgDjAHHA4oOkQAlwg8ynPspG2MWDCTEOm4QYCQC5DDoOfIct10DwyVpFqq0m3Lkk21aaOl5g9Xs3WdaFpXDg454yBKSgplW1Ly5Rm3I5aolMvPGZUH3XWNTsqTxjlMU41bBcjikTzypRqb2+832bw+iBGF96fvoto7jEGJQATAISA19ffxfb2xtfme3Ta+IwQcgoT6JXoVugHIgouP/y5KPTBcMFhQNPBBTgHY1AKUkLasEykU0glEIsg1I+2IfgYcoEihgKejWDkkbHV8YMb4m8sTTZVpNtzPLo/z+XxBJ1OzaFrmi6E4JyxkTYqW0rLtNOmlUxa1bHoqqGdg72vnHCUNTrrdrvXHXCvpGC02FAkmlemVK/3RJXLBZdr5DE2ceH9PGHayKg64HYrl/v1nuhfLsunSEQIGaOAsEKTRFjB0hAoxPJSeHxwGNAdox/nnBxuDsFhK8QlkqM195WClUYqhdgQejvR3oNuC0GFOo4gm6uhNAa1PHHk2oHnlicb8zFUGPQUFZZ7PE7D0DRN8LF7mpsxD6ABllIxIJ55VEplWXYqZcViyZKewerwyxfE9r3pXPpM4Ko3XctomtHiQZFoXqVteSAUgzMAp3Oki4hPstBMKUgbUoILiDNZZzYZKWFbYAxiil6oTEnrzFRsw4BhHAgNpm3p1mgonRACALCBNyWOS9gCwUJU1sHthzZ8S+FAqQPL3ag2mFeM3WaUQtTG8RTejKuONJMOAw4DXi/yixAdwokmdPWg10Y1x3J+xrMGpuSQ6Q+Ef3X10B98SBbmeSsra31epxCcDTdIMF7BxWrOaxnzj5vvLZWKSNkk7QMcJxwO2+EwvF53fn6gMppsbe3OD72+LnHgOf+2x/JuSDOaUbAoUCSaVwMpqz1mwu+AEMMTifjJfwTxCFoPo+cEhkJIJ2G4EChEcRUq6uFwntE5zBS6WtBxDP09iA9BaPDnoaAcVcvgC576ZKZBWgAgBByO9lB6IGUHDPpbQciip4CIwh6JfsDlRf1y5BePfn4TUKUOXOrnZQ6IiZ+hGHI5cnWs9bD2FF4Zkh1p2GAQGnKC8AfQ24XmN9EYQ5+NCzh8M+wu4pBl6Y5Pdn9/WeqY2+2sq6suKMjhY58ANcbLNf1KxisBDthKyeHy/QDAGM8RfLPQNirZapkvKtnGmKVpIjeg5+R4e3sHm5rabxx4ck2i4btFt7U7Smnm9XmPfvnNq+bBlM04HAYYRpbfj/wbUwpH38AfHsHuF9DWiNgQpA0h4AuieiUufCe2vB/lS09zgv4evPRLvPIUju5FuBu2Bcbh8qC0Fmsvx7ZbsOayk3qMGB9pBmAYNuPNg0kqY03IYmcD3QoHbSQdKCpCzTI4M2P9CmAOjtUettHLDI40ADlNnFEFDrwzyHdF1IG4SksMr3ItLIE/F82HEerCDhMrOYrY2XYXGSq1Prb/1tCjtegpKCmorSl3ucZPUHJwsZaLjUoJafVhusoknDG/0K6T9i5p7wNMQHGGosI8v893rLld62v9h85v/yTvpr2eNSlGt8fzGUWiedUeS4PzsXJEwPBaM6XQ8Coe/ipefx5mCt4c1KyC041EDB3HsPdFHNmNY/vxV59D3dopjx7px8/+Dc/+N/q7oTlQtgS+ACwTve04th/NB7D/z/ibL+LK940biRNjLdE0cN4eS09xdELI4mAB7QpHJKQX1dUorQIf6x3hDKvcbJ2H2wpxe5qjZAzfatZ5mYJ8I6bk6J3P6cSyNej0o+04GmIwOcrYmf9GcsrUZdFXb+h/Yok+WFlRWV5WxNjwzEilbKWSXCwHq5N2/5kcbbhRrA4sKu29jDkZEwBcLtfKFUva2rv1Ex1/HfqpV8b+7L04ySkVnbcoEs2rcNIE5xCjn4bU8MB2dwt++QBe/z3AcPPf48r3w58LocGyEO7Gsz/Ccw/jpV/C7cWH/wl5JZMf/fmf4tffQzKOi67Fe+5AaS0cBqREdAA7f4dffgeNe/Hgl5BXgtWXjrxmpJcIDEKA83By4r5ohJBFQwEdEocVeA5q6pBfNLyIDAAYGC90sDoXi5+mGuwk6ly801RdKQXIkfojDCWV0A20NuHwIMBQeUYbOgplXxJ97cbw40tdiZqamoL8YGYCtQKkjNpWH1gu10qlGji7JiqAldpyD1SH0PI59zAwxlBeVmIYhtZ84sbw4xJ4yXe5PW1lXfLWRZFoXiUy+4hxNtY3wwDLxI7n8OcnYdv47Hdw7YegG2PDW5XLsHwTSuvw0Jfx+5/igm3YcuO4UDVioA8//AriEVz5ftz+ryipGftgpxSWrMeSdfinW3DiCB69H3Vr4fIOn33kSeBsrIWEkMWpW+KghMhBTT0CeeBsrHwaEwArdSCpZlghrdTButKZ8tH28EgWY8grhBA4dhiHBmEAxaefr7Muvv+W0M9rXaklS+qCwRw+fK+TttVnWZ1KxnXHGqViM2sk5+Vm+rBUUU0r0bR8gHHBCgryhdBVY9MtoV8MipzdnvUzOTQ559FksQWi1PAXgKEQ3ngJyRi23oRtt8DhPHm6D4PLg3f9LS69HokoXv8d4kOTHPCFxzDQi4pluP42lNWN7+gGY9AduORduOUfoBSaG3Bkz2QtUZjX6rKEkHNMFNgjIZ2orkMwD5ntfZgazUMANIaoNcMvbXijDwYuwDiYAlMQDME8VNdBOrFHInqaNpamOz/R82CFFq2trcnLy+NczxSeNc0O0zymZBSQYLpSAzP7AtMBqWTUNI+ZZgcgAMG5npeXV1tbU6FFP9HzYGm6M8t/EmRhUC/RvHIJBihIe+xDllIw3FiyDn0deO/H4fVP/spgEa7/GAZDqF4JfbLloHWrseJCXHwt1l0x+REYw02fRcN2eAPILRw7+2hLpASUk1bgE7I4WQq7JNICtTUoKB55VAFifO20iD3zGvrRsblHDEyDwvD6L8ZQUIxkAseOYJeNy8RUv5qcMvHp7u/ly8HKyiVFRWONNNNNltU++jRp93N+9mN7mdfKwZGj2pbZAmXpjiUAYwxFRcWJRCp99Oinu7/3z2WfT3DXtEcibz0UieZV0KlDKtj22Awe2PD4ccMn8e6Pwu2fpEZRBhfYfDWWbYLbC+dkBVXXXI5/fQIe/3Rr9b05+MrPkE6NRSKMmx5p25AqSCvwCVmEJNCoMKhQUITyqnEDY9optWR708BMa/T0nrJ4YzgVWcPfllchMoi+DjRKLOMTxzA0Zb2n/zc1qdai4uKqqupMr5VSpmUeH5+HAEjZyljFzBopZdv4by2rHeCaXs2YDqCqqjoSiSa7Wt8z8Juf577HWqhCuyQ76I9zXpV5HJASpjm2c7SywXQ43XC6T/NiTUewaMqfMjYu6EzNGzjpW2WPrU01TUgH1HabAAAgAElEQVRZRnucEbIIhRXaJZxe1C4DRucPnZqHAPTb0C04zn6IPa3QP3GFGtOg1PBmiwDqliE6hPYoChjyTz1HffLoZZHtQY9RX7+CDU9wlrbVaVkdpzxTyW7JnYydWS238S9USaW6T3nQsjoYMzS9AtAYU/X1yyORnZcNbd/nWnXQtfxsT0HOZRSJ5lVNjlMoaadSUGp4wpAygbP+dztn1Mj6MqWQSgkla3IWrjGELBJpE8fbUF+z0O0YYQLtCkmBpUvgcEBlJj6LSbejthX6THgE9LNJRaZCzMYUizcEIKFsANAdqFqCxv1oV8g5aYNYj4xdFnm1VPXX1a0yDFfmU6Vt91lW+0m93cMsabcxFsBZVZ1WaaUGxu6KY2zLamfcK0QhwA3DXVdXP9TQcHlke6ujIipoH7TzB0WieRUwRJlHb02nYVnQNACQaXC1ANu+IrNtSHr446BlIZ0u8zgCBi0uJSRrDjfj+Vfwp10I+PAfX1no1owYUOhVyClAbu64jYa0qcbxTYWIDZ1BnEHRaQXYCqaaKg9lCsZqUHK4xzo3iEA+enswoFAwdvja5PG1iQMlecFgsCCzMEjJmGW1K5Wc4sQppUJgBmPaGawbUUpZUKmxUbxTf5y0rHbO/Ix7AASDhSV5nWv6G2pTx/e5V53u4OQtgyLRvHIIvjrP0xpKIZmE1wNk+mksZGNX6NOzoEaG8JJJpFKr89yOSYrzE0JmJzyIF17F89vR1jX8SMC3oA0axwL6FBIcVSXDn9OQiSnT3QpsBanAMPI1WeRQCpnlG2ewZp+DcSgJKAiBohK82Yc+hdzh4o1OmVydOFRuh0pLN2iakdmc0ZYhaYemPbYFZSvFTvd25PCppzuUknbIFn0a9wBc0xylpZU9fbtXJg4dcdYlOXWunycoEs0rnbNNhd5n2rtUIgmfJ1NqFTIJsRCRSCbHbgGJJEumNhXm6pyW4RMyR9ImXnsDz2/H3kOQM1wAlXVJhR4Ffy683pGNhjJdRKe5FZyUIGZZzowxQANsQIEBHi/8AfSEUaHgZQDyrP61iQN5ubk+Xw7nAoCUCdvqmHabjnHNVHNy8aVtdQpRzLmHMfh8OXm5uetiB/7ku6zdMUX5XPJWQ5FoXumcrS9w5woVjkYRzBmuuCiT4G7MczlUZY9FIttGNJor1PoCN0UiQuZGezf+4RuIxU960KEjfY4ViI8Bg0BVLnTHWFHp+a/OzAQUH55R5HAgkIuWMGKAFwyqyOyuS7Xkli8zDE+m5r60B6Qc3qxjtNVZIuVwoTcp+6U9wLkXYIbhyc0trAsfLjK7OxzFimq6nRdolGS+lXgcmwq9GBxCMjnyCcaCTMx3O2QCyhpuQDKJwaHNRd4SWm5GyFxJJMfykM+D667EfZ/D+69Z0DZNIIE+Bd0Jj2esqj5bkHF8jKxuU+AMHi90J/oUJDRlrUwe9hm6zxfgXAO4Amx7eJVZKqVefNH83e/T3d1SzXXt/WRS7d5t/eaZ9IkTwzO4bbtDAQqcc83nC/gMfWXysKYmn4FE3nKol2i+5Tv1S0t8f+7qjA1F4MoUqpaQCXBj/u5EyoRMDH8gUwpDEXc6dWlxMN+5QLdCQs5LQmDTamy7BJtXD0/T2dWw0G06mQTCCi4XnK6xYmkLtYHX8HkVALhccLkQTkJC51Z9otHt9rncfjU8sTpp26HMizo75d1fiYdDautW7d3vclxyse73z0GHjWWhsdH6zbPmb55Jd3bKz3zKdfttgjHYdkhJk3FdAW6P3+32LYs36soyFypHkjlFkWi+OQS7sMi7PODc1d2HYAAOHVCQadgJaGI++u2UhJ2ATA/fekwT3X3LA8amIq9DUN8vIXOktAj/fQ985/YKbVthUCHogGEMjz9xMcn6LCmRisNMweGE4Zqyouw0lIKZRjIKLuDyQkz6q4cBYmzszOFAWMGGBrM61WrkFrmcmVEzSBkGhscfAwG2eZP2yM9SP/9F+rXXrK1b9FtvNVav0ibuA3nm+vrkr59M//rX6X377VhMrVktVq4UIwNzppRhwb0ADMNjON1V/a26NEGVrM8LFIkWwNKA621lvjcbemI9fSjP1KS3IaOQDszDygWVhh0FMissGHr63Knk25YU1gfonzQhc8f9VliFFAdsDsMJzkd6icZFCaXQ04rf/hh7/4i+Dlhp6AaKqnHRNbjqVvjzzugUkX68+gxe/jVa30QqDi4QKMSay3DNX6NqxakzgJgYKQLAYRiwOeKq0NXrR9LpdPORZSjS7ht9RSDAv/h/3Fdfpf3bN5N737D/56fpF140b/qA8fHbDY/nrKObUurFl6wHvpt4Y68diSqfj332s86/usUoLR27LNLu07QqBQihOw23H8kCq3dQm2IvJvKWQpFoATgEe29t3vOtg/vaOpEXgMsJAMqC1Q+9YGK52LmUOcto7Y1EEm2ddQHnDXV51EVEyKITVeB8uK86Y7QHSNp49r/x//4RQ5n8wZCZa9TcgFefxi8ewKfvx8XXTtdjpBSO7ccDn8WeP46Uf2RQQOth7PsTfv7v+NDduOVOjO/PYXysJQ4HOEdUloguITTDcAPDqz/GtiEDAOQG2DVXGxdfpD/8P6n//H6yuVl+457EI4+k7v6S69p3OvQzqympFE6csL/6tfgTT5q2DYcD11yj3/U517Jl2imxTcrBzPgdAwzDLYRWku466qw7k7OQcxxFooVR7Tf+cnlB8462SONxrFqKTDUglYbVB61wJv3SZ0JJWH1QI/sM2RKNzT7Obl1WUO03snJGQsi5LAlwDk2MW0YvACCdxG8ewkNfQSSMvFKUL0H1Crh8iA3i6D50HkP7UXzr07jta3jb+ybfiBrA8QbcexsO7YAnB8VVWLIegQJYaZxoRMsh9LXjP7+A3g7c9lW4/ePOPtISTYBzJGWut59zrusGGykSoFR04tlycvgn7nBd+Tb9P7+ffPEl60Sb/OSnY1dflf7oR5wXrNeczimDkZTo6LB/+Xj6wR8kOzuV18NWrhQf/KBx7TsdPu8kr1IqminGpABNNzjnuXb/mVxscu6jSLRgbqzLe60z8sTxftnagYpiCAEG2EmoHmhBcP0MKq6eOQVpwgpDjlR6tW2c6OKx+Nurc29ccmYd4ISQ84ypwBj4+EjEoCQOvoYn/hMDPVh9Gf7mLmx4+1juScbx8q/xyH1o3IPH/h1lS7Bs4yQr4NMpPPw1HHwNJTW44ZN4598gJ3/4aWYab+7EY9/Cnx7HMz9CxVK89+Mjs4vYWEu4AGMwlUcmGONc6Ao88wSl0qeeLvMKjjWrtfvu8fzhBfMnP0396WXriSfNgwfte+/xXHrplAVGenrlfd9MPPbzdDqN5cvEe9/ruOlGR0XFlHORlEqP9lcJoTPGPfO/ZJhkBy3CXzAOwT6/qXxTgQe9YfSEYNvDtwKZgBWCnZij8mIj86nN0EghIgXbRk8IveFNBZ7PbyqnITNCFinFgOEd5aEUlAID4hG8+gyaG1C1Ap+8Dxdde1I/kNONt9+Cj30NZUtw+HW89ixS8UmOfGA7Xvwl/Hn4i9vxF7chUDAWm3QH1lyGj9+DdVcgGcXzj6CjefhHDMPNwEihHwWhbDDGmGDgAGPg01dodDrZli361i26rgPAwKCKRtU0xSRTSdXfrywLAKoq+Xuu18vLp5+bLRky5bA5gwCYUBM3WSNvSRSJFlKJR//i5vK1OQ509iLUD9sanvUsk7DCsIcw+3IXyoI9BCsMlRw+uG0j1I/O3rU5ji9uLi/x0NpRQhYrpgBAyeEUkglGlonoAAw33nMHlqyf7FUMay/DOz8I3UB/D6zJblP93VAKqy/B22+Ge7LdS0pq8JGvwpuLRBTRkYGn8c3IfCbkzM7MuVYA44xxMD7pfrSjjh2zv/ov8W9/Jzk0pKqr+Wc+5dq0UeNT/64rLuEf/Yhz61bd4cCL/z97Zx5fV1nn/8/zPGe5e3Jv9qTZ0zYt3WhpaSlQBESQRRwRGBkdcRxGxGUUGNfRcR0dncUBdZxh3FBB+SmCIAzKTllaKF1TmiZp0jR7cpPc9azP8/vj3ixtkzSUNjdtn/crr3Jz7jnn+V6SnPM53/U5+3NfTD/2uGVZM/Q4YsiYQWhmZomTq7YFkhONDJzlmOWFvtvPrvjOtq7dh/rgcpREsh5ZYcJ1wNNgAdDA8XRmFQI8ATcBYY5N8AG4QH8UPQPL/MrtZ1csL/Sd4M8jkUhOIVQCIQ4fNiIQCOOGT+PS96F+ObRpsgw9flz9t2hci7Ia+AJT7HDu5fjWH1BWi5KqaVdfei7++SG4NuqWTaw+DucQAgqS1CsEd12XZJoSAYR4p0wnsm3x1NP23d83tu9wTBPnb1TuuN27aqXi8810/dQ1smGDWlPDfnWfcff3jeees1tb3F27tJtv9hQXTaGkCPES0KxP3+VCiJSswD9dkJIox1BCzisP3oHy72zr3nOoD7aNypIxj7ELkYIwQWJgQVDfbIvRhAOehJuEsDDZoysEDvWhL3pWULt9dfl55UF68nrgSySS+Y8H4By2PaFFhAOmo3IRKhfNdCAhCBdj3WXT7hDIm+ndDIxhxfmHbcm21AcA2DY4hwfDLMy56zjW2JxZUBp03SMlUSzG//fH5g/+yxgZEYqCj93muf1TXr9/Vpc4haFyAb3zdt+mC9VP/H3ywAH+798zXt3mfO0rvsWLjqw4IzQoxlp9O47FuTvMwrNZRTL/kYGz3KNRcmFF6Gvrq5aHNNI9gKYDSI8l/YyP+7AHYB6C1QN3FNzE0Y3rhQA34Y7C6oHZCXsQPDUxsgMCaQNNB0j3wPKQ9rUNVZsqQpocZyaRnOEECDiHZR12wckhky9ZlgXOESA9WqnruqaZHsslIoQWTT7IcbF7t/OR25Lf+pe0YeDsVewX9wa+9EXfLPXQOJRi/bnqww+G/voDel4eee45573Xx+/7tTk6Kg7frYiAZCwxzbTruj1a6Qn47JJ5gPQSzQsYIWuK/T+6uP7zLx18qSdm7mlDZQkK8sDIWMhMABzcBk+MVaIpINn6Cwg3O0Q6y6SqDSHgcgzF0Nmnu+6G8tA3N1RVBOQsM4lEAvgImAvThOtm+wMJC8hdx+1sKZmAy2GZYBw+ZYAVxaAbRtJ1OWMKAMbKHXvn+EH79jnv/+tEdw8vLaHvfKf6Nx/y1NUdf3JPaSn98j96V5+t/Pxec9du5/Y7kgfa3M991jeejcRYecab4LqOYSRj0AeUopnOKDl1kJJoHlER0P7n4vofN/X9unmo62CvOTSKkjACXqgqDvPoZOSOfVQNhcB4kQYALmDbSKTRN6wn0xVe9YZFJR9aWiLryyQSSRYG5BFYFkwT3kxCjA3h5mbMmXDBx0J4pgnTQh4Bg03Vdr2q2kgYRsrvzwPAWDEhPiGylW4jw0JRcf55yvXv1d9+mRoJv9XoRzBI33udvmgRvf/X1jPP2oODEwNlCfExVpy50hpGyjCSHXqVTWWRymmClETzC42Rv1tWuqEs+Jv9Qy/3xDvaum2/F+EA/B7oGlQFx4h2CXAB24FpIWliOK4m09U+dX195PqFBSsK/DJ3SCKRTECBCMFBA4Yx1kafg5tguSi84ObYoCHAMGAYqCKgsInS7F24NvVsKjXq94cBEKIzVuk4+zLHnX228m/f9RcW0oUNTDlB9zRVxTlr1Ooqds3VWkU5He+wzVglIXrGS5RKjaZSsX3es+2TOnJAMofIH+S8gxCsLPTX53m29Sef745t7Uvs7uizdRU+D7waNBWaAlUBoyBjLfa5AOewHdgOTBtpCylDNe1lBb61iwsvKA+tLvYHVFkmKpFIDocChQStFpJJ5IWyScPcAPOe0Faxs0GAG9mGQ1wgmYRtoZCCwoHS5FkcH/m/eHyooKCKUgYoTKl3nBbABeDzkQvOPyl+mqIiWnRY0RljSj2gAIRzNx4fiptGU3ixIyXR6YL8Qc5TAiq7sCK0ush/IGY2j6Rf609sH0gd6EumBKAwMApKsxl+QkAAnMPlcFwfQW1QX1UVWlMcWJTvrQ3pAU2KIYlEMg1+IA8YjaEwAo8HEBAWuDkXI6gnw03AyrqILBOjMeRlk5oESJ9a3KpVlg13lZUt8nrzAMJYIVMqXad9Lm1kSiVjRRkXkWEmo8NdrXpVn1oi5lo+Sk4WUhLNawIaW17oO6vA97YFeSOmM2Q4baPGgZjZnbSGDDtlc0cIhRCfSgs8nnK/VhvS6/I8BR4lX1fydUWWlEkkkmPgISgmaEkglYKuAQRwwVMg2skatng0goOnwJ1saUgqhVgCCwnGBpMNKZGdvmWN0cfi8ajHk0cIISTI2ELX7YUwZj73CYN4GFtISAAgQohEPDoU7dmR984hRVbgnz5ISXQKQAkiHiXiUWrzsLrI7wq4QgiR6fCa6dRBCAHLdLyXvYYkEsnsUYBCgi6OvkEEA8gk43ADJA3mm5PwmQBPj41fFHAc9A3C66KQjd+gDOrZ7V16XuKV4q6mcHiBqnoAoSiV3K11nOZM+OwkwxRWqyiVmcbZjmN0de09xCJN3kZjjt1pkpOJ7Et0iiGATO99DsEFsl9jW2ZoQS+RSCRTk09QRBAbxUhsrDuRCzcBbs/F6tyGm4Bws0uPxBAbRTFF/mFqrM1Ts9O7rGfo0NBQJ0AASkhQUc+iNHLydRuhNKKoZxESzDyEDg119gx17vKe1abXnuSlJXOK9BKdAnAhhgwnajgDabs9ZrbHzJ6kNWw6CYe7XDBKAgoN60qZX6sJ6TUhvcirRjxKgUeRDiOJRHJsVKCCYMBFZzdCfmgqAAgLbgwkfHIL8oULNwYxnkXkoLMbHo4KhsMTppPUvzm4fnlqd6j1pXB4ga77ATBWrmrnWOYzQpzEWfSEeFTtHMbKM9rLNJMtrS/10PwXghsSLHc9nCQnASmJ5jUxy20eTjdF09sHk3uGUh0JKw0FmgZFBfOAMBCAA4aLlIuBFOwRr3CqA9pZBb5Vhf6lEe+isDck06slEsnMRAgqKPan0X4IC2tAAAjwFFwCFjmeGYuzQQi4I+CprB4SQHsnzDQWUkSmWLHZ0/BiaEPx8CP79j2zfPk7CaEAU5QGIWzLfCpbrXbioaq2UVEaMiEzwfm+fc9Ek6Ob869s9jScnBUlOUNKonlKzHJf7Ik9cyi2fSC5f9RwvEGEilEQhO6FpkNRQRkozVaccQ7uwrFhmWkz/UYy/kbP8ENtnQvzPKuK/BctCJ1XFpLCSCLJPX95Ff7yqlwbMRUUWEjRxzE0An8/yosAgAg4cXAOteDEp1oLDnsIPDmxpXsAQyPIAxbSKXM6HKI8lP/Olckdnt7mYLC0tnYtAAhVVZcDqmU+cRKSipimX6aqjeOxufaObb29zQe06ofCV8ra+9MP+ROdd3CB1/oTP9vb/1p/st/iTn4xGsvhD0LToWrjj2seCh8Fo3AFUhzG+KVACDgWTNNJxvYO9Ow/0P9sV2xNsf8DS4rOKQ7KGjSJRDI1CnCOgucddPdBVxHJy+oAnoDDoURAlBOUtSMgHNhR8PSEfyg6iu4+aBznKDPcl9LUe1fJrV/t+obWsdXnCxUXLySEAkRVGglRLPM5IeInyF1ECQlq+oWK0pD51ELw/v79HR1bB2nwrpJb09R7IlaRzC+kJJpfmK743vbuX+0bjDnCjRSjsR6+EBQlo4QoUK6h0YcanQTYhDNbCCRctJt4IyW6LcI1HZqOQACFJU4i1t3Z2new/4Xu+PsWF35yVbkuB3pIJJIpCQBnU2y3cagXjCAUQGayl5sCd6HkgXrfqrtIcPA0nFEIM7uFc8QSONQLZmMVQ+AYJ+jWyn5Q/OG/6/+x1voSY1okUkUJAyGKUk+Iz7Zf4+4h8dYq8wnxULZAVdcwVpbRQ5y70ejB1taXOh3tR8Uf6tbK3sr5JfMWIqavUiKEAOjo6JhDe85cXCFaR4zPbO7YNpiC14+6RhSWjl99GEG5hvNCtEIDm/6K5Ap0mXgxxrstuOM/WMEx0IsDbyCdXF3o+/bG6vp8D5OZ1xIAQHV1NYAZrgNnLGTnH3JtQi4QwEGBfRzEi4piREITz16EgfrB/KCe43IXCXADbhI8CTHm1hYc0Ti6+iHSWExRRWZzYibcTfEX3ht9aJGP1NWtLypqoJnESkCImGO3uG6L6/YcVxyNMVbGWIOiNhASymzi3B0YaGlre7k5JR6IvOvZ4PluTmbAnQjEiqtzbcK8RkqieUHa4c91xb6zraslyUVBCWoXwzPulSUaxTI/WRMgelYMzXDNEABMjtfiYndKWBwYnw1rGDiwj0R7G3z0ztUVF1aEvIpswSCRkmhazlBJBMABugSaOVwNZYUomZxeTUBUUA+oD9Qz22I04YIb4ClwA8KeuCgJgb4oegbBLCwiqKCzj1t4uLkx8fK7hx9eqFrV1WsqK1eRzAOkyAzbiLq8y3XaOe+eZTEaIV5Ky5lSw1gFpZHxDjVC8M7O7R0dr+23tAcj12wOrDeoPlsr5x9SEs2MDJzlnpTDHzkw/MOdvW2OgpoalFdnndUAAEpwlo+s9FNXIHXsZ57slWtlgAjwHUnBx+90Hg8WLxc9of2H2r/1ateo5V5VG/ZJVSSRSI5AARYQqBRNFjr7kEihsgR6piZeQJhwLfAkiAKig3pBdBDlyKo0ISAcCBM8DWFCOGOdh8YwbXT2YTgOj4ulFCUEb8bzYlD9heD6BPW/b+g3VsvmWKy3vv58rzcEAoBSVkhpRGF1XMQ473Xdbu4OCDF6mAEAQAjJo6yIsXJKSykJEeqf3K4vnY61tr7Q19/ahvCvCq/f7ltunsp6SHJMpCTKMQ4Xjx4YvmtHz0F4UVuPwpJsERkAEBBarJF6L0m9+XzBei/tsUWvOamJIyEoq4Kqtx1svWtHD4F4d32BnPohkUiOhAFlBAGK110MjCCeQlUJIqGxZy4BwSFswIA7mtUQRAEoQAEOcAgn23oRY4eMIwSicRzsg2EhDJxNEZxVvOwITKJvDazu1kpv6/tvp2vP8HD3woUXFBc3UMogAEIJCTIEGS1TlZUCXAhHiIQQBuACjBAPIQFCFEJo1vJJNnLu9ve37N//fCo1vE+v/X7JLV1aOZfNjU93ZOAsxzx9aPQLLx7sIl7ULUZ+AdjYnyWhIAwgqwMoP97Hkm4T2xKZxzV3ogqDc4wMoW1fuUh/87yqty3IOyEfRHKKIgNn03HmBs4m4wJvcLRzuAR5QZQXwOcBo7PrVCQOi/ILAZcjZaB7CKNxMIEaikb6ppxDU6IJ671DD14WeyoIq6SwpqZmXSBQqCgaIeQIE45ho4CAcBwrkRhsb9/SN9geh/ZE6OIHCt5tEe2tWjk/kIGzmZGSKJe0jZo3Pr6vz2VYuDTrH8pMPQTL6CEA64LwHe+TSYpjSzzzMqOKxlMaBQb7sL+phLn3X764Lk+6gs9cpCSaDimJsgggKtDKERWwKUIBFITg06EpUNixtZEQcFxYDlImhmKIJaByRAjqKSLH4xyaEgLRmN53xcifGo39hUiWFFSVljYGAgW6HlAUD6XHuIZyzh3HMM1EIjHU2/dG32DnIHxveBY+lv/2N7yLT6dB91ISzYwMnOWMpO3e/sKBPoOjrgFFpWObM3po4ucSd4+Mfs+exETuEQFRIJBVRYSgqBRGuq+t+fYXDvziskV+VTqEJRLJVBCggCDEMCDQJzAcR2sMHh0BL3w6NBUKg8LAKDJReIFs/1jHhe3CspEykUjDMBEkWEBQwlBEjpjX8RYRIHu9jQf1ymWpptWpHQtHWiv7/5gfCIdCpYFAoccT0nSfquhM0Shh2Qa3wnVty3ZNy0wZRiyRGIzFekcSw51a+X7/+m2+lbt9S5NUzus4s5CSKDdYrvif3f1NQ2kUlWJB9aRAu4LDO6IOWMDxumwHrMO/z6oiJ/vtgmrER5uGev97d99tK0s1mVQkkUimQwXKM9NhBUYFhi2MWIgChEJRoFDQMUkEgGckEYfjQHD4gEIgTJFHEDrBYmgySep/JbB2t29plXmoxjq40GitHWgv69kfUKim+RRFZ4pKCSOECCG4cF3HdhzTslIJh/coRQc8jfuL6tu1qoP6AimGzkykJMoN2weTDx+IGh4f6hYDY/nU5Eg9BGDYhepAe/NyxRIYPrpCjSjZSpAM9YuNROwPB6Iby4LrSo/VIk0ikZzhqEABQYSgHLAEDCAhkLSRFjABdyw1RwV0wEvgBwIUHkAj0E/+xHoAQJL693oX7/MufCmwLuTG8p3RMru3zOotcKIhM+4RJhUOJ8wgvhgLDimRHl9pj1o6ouTFWCjGgjKH+kxGSqIcMGq5fzgQ7Uw5WNgITYPgAEAYpsozdAUGbfgZ1DdzNbEFku6kbo2HwQCebZWmaqhu6Ny/+w8HoovD3jz9VO0/JpFI5g4CeAAPQQgoJBOFZWLSDpl/CXIlMDjoCMsbYXmd2oI9YgmDSwUnEGTMSgEiQDihLhgn9HRKGJIcN1IS5YDdQ6nN3XErrwDh8NhVhIIo03XKtwXiLlQCNotkRAG4AraYTg8BhAIKBM/WoIUjVn7B5p7Ry6OpjWXB4/xIEonkzGTeu1QEiEuYCyY1j+SYzPtf59OOlM1f6Ym3Jx2UlkEZk6TZxhjT4gqYHGkXaReGC5NP8WW42R1MPr0eykLH5JcAYygpa086r/TGU84JGZcokUgkEsmph5REc01vynqhJ+6G8hAIgABEgJAper8ehQA44AIOYIspvhwg033o2BVq4ytm3Nr+gBvKe6E73pu0jnmoRCKRSCSnJVISzSlCoCNu7o6mkR+GqkEICAGQ2Y4KOoEQBtCsAZqG/PDuaLojbsr2NBKJRCI5M5GSaE6xON/alzAVDX4/KMk6dMhJq0mdmWx1mwAl8AdMRdval7C4jJ1JJBKJ5ExESqI5xebitf4kvF54vBMDgObeRWhRWwgAACAASURBVJQhu64ABLxeeL2v9SdtLt1EEolEIjkTkZJoTjFdvjeagqZB17NBq7HBHYfBOdIJxIZgJLMl+m8WIWCZiA0hMQLXmWYnArCJ2Jmm7Y2mzGMlZkskEolEcloii/DnlENxK+YI6B5QOpYGPclFJAT6D+L/foHtz2CwG44FVUdJDc59B97+PoQKZrVGfBgvP4YXHsLBN2CmQBnyi7F8I97xflQvOTKJm7CxJgAUuh5zxKG4WeCRvxUSiUQiOeOQN785pT1mCkqhqRNlYeO9iLiLx3+OH/wDYoOZN7ITYA/swcuP4rd34eP/jvVXTNe7CACEQNsu3PUpvP7MWPtHAgEc3Iedz+P/fQ8f/BJuvBNskggjdMISTROUtsfMlUWyk71EIpFIzjikJJpT+tI2KIXCJlXKMwCwDPzxJ/jJVxCPoqAcCxpQswTeIJKjaNmJnjZ0teA/Po5bvokL/wLqNDPP2vfgO7dg7xb481BajYZVyC+CY6FzPzr2YrALP/ocBrpxy9fhC01afcwShYHSvrR9Ej+/RHIKcc1Hcm2BRHKiab861xbMa6QkmlPilgNCQNlhre8FR9MrePhHGOnHso34wOex+pIJ3WOk8MJDuP+72P86HvgeKhqweM0UTYwsE/d+E02voKwW774Nl38AeYXZ3WwLb2zFA/+B53+Px36KyoW49lYwJbv6uCWUgZC4NV3ikUQikUgkpzNSEs0pdkZ+EAAC46+Tcbz8GA7sQfUS3PZdLD33sGM8PlxyI4IRfO/j2PcqXnkcNUvgOSq2tfslPPs7hApwzd/hmlvgmzSaQ9WwfCMKyxEbwuvP4Mn7se5yVC7Mrp6dOJtN8nZkdrVEAgAQ7V25NkEikcwpsuJsTsmObhUcQmSr34WAYyMxAt2Hd30EDaumOIwQrNiIy/8aqo7hfjhTOXKG+yAElm3AJTccpofGKavF33wdgTDSCSSGsxsnmyE4AOVYTbQlEolEIjktkV6iOSWoKRACh7VDFAiEccOncen7UL8cmj71kR4/rv5bNK5FWQ18gSl2OPdyfOsPKKtFSdW0yy89F//8EFwbdcsmVh+HcwgR1HLUJEkikUgkkpwiJdGcUuJVwTlse0KLCAdMR+UiVC6a6UhCEC7Gusum3SGQN9O7GRjDivMP2yKcCUtsG5yXeHPUSlsikUgkkpwiA2dzSk1IJ5zDssZaVwuInKYzZyWRAAQsi3BeE5rGTSWRSCQSyWmNlERzyoKgHlIITBOum90kcjp8Pru6gOvCMkMKWRCUkkgikUgkZyJSEs0pOiNLIj5YFkwzO0lD2BDusY88GQgX3IYQEIBpwrSWRHw6k+nVEolEIjkTkZJoTlEpWVPsh2HAMMYCZxzczI013AR41gzDgGGsKfarVEoiiUQikZyJSEk0p2iUri0J6I6NZBI8I0c4uHFY5dccIcCNrCTiHMmk7thrSwIalb8SEolEIjkTkRVncwohqA7qZ0W820ZjKIzA4wEEhAVugnrm1BRuAlZWilkmRmPLIr7qoC7bEkkkklkiAJcLlwtXCC6EyGwiIAAlhBHCKGE05xcVIYQrsjaO+cVBAEIIJSRrabZZreTMRkqiuabUp51fHtqxu99NpaBrAAFc8BSINtNI1xOL4OApcCc70COVYvHE+cuKS/3TTE+TSCSSMbgQ0bQVTdt9SaN5MLE/mjw4mhpMWXHLcThXKA1qSqFPq8rzLYz4FxUGSvyeiFeNeLW5VEdCcMsatu1hw+hPJFqSiZZUqssyBx0nwYVDiaIoAU0v9Pkq/IGGQKDB4ylW1bCmhcmcXYcl8w8pieYan0rXlwYfPTDc2jeIYACKAgDcAEmD+ebkSUWAp8GN7GvHQd9gtV89tyTgU+S1QCKRTEvMdJqH4k0D8Rc7o1u7h/cNJZOCQFGhqKAUlGYnSccdDFhwhuHYfiIWF/jXlofPq4wsLQouKgiG9JN733HsWDzRGo+/ER16ZTj6WiLRQoihKowplDFKCKGAELBMkU7z6CC3HVcITyDQEI6siRScGww2BgP1iho69kqS0w6ScXZO/R4hADo6OubQnjOCUcv97rau+1uiVl0NCsPZrUSDEgY9+X4absEZnij+HxzW2tpvrI/csboiT5etq884qqurAcxwHZBIAMRM56VDQ39uG3i+Y/D13lFL9yGQB28AHi90D1QNTAFl2UHSrgvuwLZgGjDSSCeQGNXM1NmleRdUF15aV7RhQcHJEEaOHR+Kbhnof3pw8MXRkR1eDw0EPD6f7vGquqaoGmOMsrF0SdflLue25ZqWY6TtVMpMJIy0wfPyVxYWnldU/LaCyDpFnWo4kuT0RUqi3LClL/HZzR2tNsFZC6FlGkYTUC+UMMjJ1CXChTMMnh7LInKwp7leFd86r3pd6VRzQiSnO1ISSWaGC7zWM/yT1zuebh9sixlWIIyCEgTy4PFB0zGmMHQKLwUjcAXSHOb41CLBYZlIp5AYxVCflhiuC3neVlN486rqNeX5JyyUJsTwyOsd7fcODjxvGB2hkF5YEAwGvV6vqmkqnSik9RDiAxTAESIFGNnPyIVl2em0HY+nB4fisZjp8VQXFl1QXfNX+flny1DamYOURLnBcsX3d/b+1+5eI5yPhTVj4TIC5geL4CRF3IWAG4WbzOohAexv90RHPrK85LaVZZosvz8jkZJIMgOmy7/3csuPX+/oiJtGIIyKagTyoXsySogCJSrqvajQSICBkTEnkUDCRZeF1rTos5FVR9yFZSI2gu4OT2K4Oqh/6OzqT65v0NlbFRzcNVtaf9jR/nPD6MoLqRUVhaGgT9cVmpVrlNByShdRWkVICGAYN1PEOe/gvFnwboAD4JybphOLp7q6BkdjtsdTUV3zgYaGWymVPWzPCKQkyhlJm9/0f82vD6VRVY7yImDs75T6oRac+FRrwWEPgScntnQP4GD32QXeX75jkV+Vj0FnKFISSaajYzR16yPbn2ofMJmG2sUoKgdTMg9sBCjScF6QVOpEpZiyw6srYHN0muLFuBiwxhqNCAHXQX832vfprnVxTdEPr1pVnec7biNTqc7tr39yoP95VRV1deUlJWGFUZJ9qiSElDJ1E2U1gIrs7/n4rzoZ283mbrtrPytEb+ZdIYTj8r6+4ba2btsmRcUXrDr7ez5f5XEbKTlVkJIol7SNmjc+vq/PAWoXIJI35hwSYD4oERDlBGVbCwgHdnQiXiaA6CgOHCpRcP/li+vy5APQmYuURJKjcbl4pSv6icd2buuLiVAEi1fCN65aCCVY7MX5IeLJSqEZLlMCgOGKF2JiXxo8W6YPgCCVxL4dJBZdXRL6zytWnlsRZm/SUS2EG42+unP7nbHYzvz84JLGWp9v8qWMUrqUqRcIoQhhj7WlPZpMxwCVEMe1n+e8CVmvlgBIKmXsfaN9ZCQeCq1Yueo74cg55KQmNkhyjZREOebpQ6Off/FgNxiqyxAKjAfmQXQoeaDet+ouEhw8DWcUYqxHNueIJdDRUw73m+dVvW1B3ls6v+QUR0oiyRFYLv9zW/8Xn9r7ejSNskrULMakDq4EZJGPbAyRN5UGxIXYHBPNqcz8oPGtHO370NN5dsT79YuXXFpXrM06iMa51d//zN49X02l9lZUlNTVVU6yhwthE9pA2Qa8qV9sQrj7kuCthCjjfYy5EG1tnV1dfT7fkiVnfam4+CI6B0Uwkhwhi/BzzAXloU+fXf6fO3oOHuxFRTEioayvSBhwbFA/mB/Uc1zuIgFuwE2CJyfGqAmO4Ti6+qso/8TK8gvKZaGpRCKZwBXiqQMDX3xq7+sjFqobUFYFQoCMkiEgJKzS5X6S5sc80xGQ5X4yYIuozQE+5ioiqF4ITX+988AXn9pLCXl7fTGbhdISwh3of3bvnq+ZZnNdXVVFeelY2pAQ3HT5iBCKqtQJMfLmbBQArXPsnYQ4jOYTqmdcYnW11bqud3Q0793zNQJSXHKx9BWdrkhJlGMUSq6sDQvgh7t62w72wLZRMpZeLRy4MfA0qAfUB+qZbTGacMEN8BS4AWFPuIuFQF8UPYO1KvnoitIra8OKTKmWSCST2NY98qWn974+aqG6AcXloBQQEAQgIBSEVuqwBKzj8ipW6iTqMAgyMV2RUpRWgrLXD7Z86emmAq+2tiJ8zPOMjGzf2/QN02yuq6suKSlmCsuczXXjjtPL3RFFvUBwQ4wVlL0pCFng2M9zFleUUsZCAGEKLS8vZ0xpa2tuavqGpkfC4TXHcWbJ/EdKotzjU+jVteE8jX1nW1dLZ59IpFBZAj1TmS8gTLgWeBJEAdFBvSA6iHJkVZoQEA6ECZ6GMCEcCPew2Llpo7OPDMcb/MqdqysurAh5ZWNGiUQyiUOx9O1P7No6kERNA4rLkL1ECICC0EwsSadIujOfZlr0zPmyyQA8m7WjUBSXgTtb21tuf2LXr96zdkHIO8NJ0umuXTu/kEzuqq2tLSkpVZTMg6JwnX7bOSR4GhCE+t+0i2gMQv2Ay92oLdIQC5hSDBBFYSUlpY4jDhzYtWvnF9au+1+vt+L4zi+Zz0hJNC/wKvTSqrzakP6ZzR3bBkYQT6GqBJHQWLhMQHAIGzDgjmaD3NloN81eWYQzNrtn7JBxhEA0joN9MKyzC33f3lhdn++ZjXdaIpGcOVgu/9yTezYfGkZFNUoXYExqAAyTRoCl+fEXfUyE2wgFCAQAFwAUhtIFMNKbD3V87sk9/3vN6umSiji39uz+8nD0lcrKioqKCkXJ3sIcu9NxOsVYB1rBY8fdykSIWPa/PGXb7UK4iloJQFFYRUWFYRidna/s2f3l1Wt+IJOKTj+kJJovMEIWhb33X7H4e9u7f7VvMNZyyM0LoLwAPg8YnShGA7IXEXH0k5o4LOVICLgcKQPdQ2w0EVLo+5aXfHJVuT5lvaxEIjmz+dmOgw/v6+X+EGoakA1FAWAgh90mBm0UHO99Y8iZ/B0BUSDEhCqqaeAjww/v6/3ZjoN/u7pmyjMc7PhVb8/jwWCgvn7hmH8Ijt1l2wfGKsUAgPNuSo+zYoDznvHXQli2fQBgiloBQFHU+vqFIyOjvT2PHTz4y5qam49vCcm8RUqi+YXOyB2rKy5aEPr53oHX+pP9b3Q4oQAKQvDp0BQo7FiPPgJCwHFhOUiZGIopsUSxrqypyvvAkqJzioMyd0gikRxNSzTx368diDkcK1eAKZnuPCD0CD0EYNCGTo+v3AOD9lFbiQLBITgAMIalK2Kvbv7RawcuqilcGDmyn34i0Xqg7cecJ5cvP19R1MwToOv0O07bZD0EgLudhHrHq8beDJzzQ0dscZw2QvTxCNry5ateeumFA60/KSy8MBCof/NLSOYvUhLNOyjBupJgY9j3Yk/8mUOj2wdT+1u7HI+GgBc+HZoKhUFhYBQZgSMAIcA5HBe2C8tGykQirRjWwnzvqrrIRQvyzisLhjRZIiGR5AbXdZv27tvX3DIyMgogPz9vSeOixsULGZsXf5Wmy3+5q/ONoSSq6+H1TaovU4+udbUF+iwEj/l0djhCIO7CnsJxQwAVsLLV8h4fquv3dR345c7Oz12weHJja86tzs7fJJMtdXULfb7A2MaY4xwQwjnqtBZ32wmJvLkmJoILEZ3oVzJhvOM47YT6KQ0B8PkCdXWL2ttbOjt/vXjx7bKx9emElETzlJDGLq/OP68s2Dycboqmtw8k90RTHV3xNABFgUJBxyQRAJ6RRByO4wWqA9pZZYFVRf6lEe+isFeKIYkkVxiG8fNf/PqX9z0wMho74q3i4qIP/NUNN914HaU5LnRoGog90dqf0LwoKR/TQwBRp9MTaQ4X0AjoLLqDCIADloA1Xd0+oRAKMDaIuqQ8MdD7RGv/NYvLVpflj+8Vi+3t73vS61XKyysz7h8hLMfp4pM78k9elycEcQhm3dpNcIE0xNRFapwnHadLVX2EaADKyyv7+nr6e58qK7syP3/lrM4vORWQkmheE9LYOSWB1cX+K2ryo4YzkHbaY0Z7zOxJWVHDSdncFYIR4vPQiEcr82k1Ib0m5CnyKhGPUuBRTthIRYlE8ubp7u79xKc/u7+lbcp3+/sHvvtvdz/3/It3/fu3PB7PHNs2junyFzqGdvYnUFUPVcmmEBE2c8sPi8NBdqgZphFGYuxfV+AYbYwIA2g2P1JVUFqxq7N1c+fQWcWhjKOIc3No8KVEfG99fZ2qegAKCM6HuTuAGc4tDAEbYDiGeBMAh3CzWU1Tw7k7wFkhY6UAUVW9oqK6tXXv0OBLodASmWd92iAl0SkAJaTIqxZ51UVhrC8NOEJwAS5EphEsAQgBJYQSKIQwqYMkknlALBa/9eN3tHcczHx7/nnrL71k04KKcs753jea73/gwZ6eXgBbtm77x6/883f++Su5srM/YT7VPphQdeTlg5JslcbRbT6OggNczMpLdGwIARTABQQIQV5+old/6sDgtYvLK/O8AExjYHDgWY+HhcOFjCkAhDBct09M49SZhAvhZi6TM9p4bDOFMFy3l7ECQjyM0XC40OPpGBx4rrz8Kq9vwWw+pWT+IyXRKYUQRHDGOeGccA5ACJGZu0IppZQSSiHocVefSiSSE8XdP7wno4cYY9/+5pfffslF42+du27N9ddd+/G//8yr27YDeOJPT7/vhvecvWpFTuzsjKVfODiIgjJ49GxCD6HAbKPtJ24QTMZR5ACAR0d+5IWDPZ2xdEYSpdNdg4Mvl5cXe70BgAGCu0nX7Z/1yWcleo6J6w5wN8kUH0C83kAkUtzd/VI63SUl0WmDlESnAJzzeDyeSCRGRkb6+vr6+/uj0WgikTAMg3NOKfV4PIFAIBKJFBcXl5SU5OfnBwKBYDCY8xwFieTMJBaL//bBP2Re3/I3H5ishzL4fN5v//M/XfmuGw3DAPDY/z2ZE0lku3xL1/CQDQSCYOOF98d2EZ14CIFggA0AjCEQHOrt2dI1vLY8nxF3OPoqkAiFGhRFAwjgum4vxrKqbVsQAkU5KTYLAdMSugZCCITjur1MKRIgiqKFQuHu7o7h6Kv54dWUqidjdckcIyXRvCaVSnV1dXV2dra1tXV0dAwODqqqGgwGvV6vpmnBYJAQIoSwbTsajXZ1dcXjcdu2CwsLq6qq6uvrKysrKyoqfBMjrCUSyVzw8iuvOo4DgFL6vhuvm3KfwoLIBRvX/+nJZwDs27d/Ls0bx3T55s4h4fXAO94wmhxdeD9HEAWCZGWZzye83s2dQx9eXe2h1lD0Za8v4PPniWxitXDdvsxBAwP8llsTI8Pi9k97Ltqk+XzkRD0JWhY6D7nf+8/0li3Onbd7/+IvdELgun1cLCOECsDnz/P5gkPRl6trPygl0emBlETzlFQqtXfv3l27drW1tfX09JSUlNTU1GzYsCESiWQkka7rqqqOSyLTNNPpdDwej0aj3d3d7e3tW7ZsKSsrq6urW758+ZIlS6QwkkjmjAPtHZkXNdWVoVBwut1qqqsyL2Lx+FyYdRSWy7f1DEMPwOMZcxHRKUq0hAB3wTkoA5tNndlUcA7XASFg03ihMi2tM+nSug5d39YzYrlcgzU8vCMU9Hs9gWytGY8LkcocNBoTIyOiaa9728dTl11qv//9+soVSihE3oqfy7LEwU7+6KPWT35mdnXxggjp7c8mcQuREjxOWCEAjyfg8fhGhndwbgH+419PMm+QkmjeIYTYv3//k08+2dLSYhhGY2Pj5ZdfXl5eHgqF/H7/eCMTQsj4H70QQohspNx13WQyGYvFuru7X3vtta1bt+7atauhoeGSSy5ZuHDhW7pOSCSS2dG4eOEH/uoGABXl5TPslkpn7+vhcP4Mu508omnrYMxAaQSMZROJ6OE3hVQcB/ehvxOxIVgGdC/yi1FajcpF0GZXJWeb6O1AdxuG+5GKgSkIFaBoAaoXIxg5cmeigDsAwBg07WB0MJq2NS1qpLuKCutVNbui6w6MH1FXyz7/We8vfmlu3eo89Adr23bn3ddqV7xDW7GCqerxXO66uvizz9kP/NbcutURAqtWsndeod3wXn382um6A5QVAVBVj677+vtbbSuqaceeViuZ/0hJNL+wbfuhhx569tlnbds+66yzLrvssrKyMo/HM54VxBhTVVVV1SPyhDjntm3btg0gFAqFQqHy8vJly5b19PQ88cQTO3bsaGpq2rRp07ve9S5VlQ5eieTksunCjZsu3HjM3cbr81cuX3aSLZqa5sGEAwJNB8FY+f3YhUUItOzAU/dj29M4tB/JGLgLxhCMoGYp1l2Oi96DBQuPscBwP577HV58BC3bEe2D64BQeP0or8OK83HxjVi+8TCPEaFjZgC67oA0D8YDwRZKoeu+cdsEHx4/glK8/VJt1Url0T9aj/zRfvVV5/s/MJ573r76Su0dl2kNDWz2cbRYTDz7nPXIo/Yzz9ojI6Kujl12qXrNNdqqlcrknpqCD2ecVYRA132UIh5v8cs21qcFUhLNFzjn3d3dP/nJT9rb24uLi6+99tpVq1ZNbm6rKIrH41EUJVtcdpSXSFVVzrnjOIZhOI5DKfX5fPX19bfccsv27dt///vfP/bYY3v37r355pvLy8tl5rVEklu6u3tffW175vXl77gkJzZ0xNKgdKIdEZCtNRMCe17GvV/Hq0/CNhHIQ+1Z8PiQTqK7DdufRfM2tO3CTZ9B/fRZ4fFh/Ppf8fjPMdwHRUNFA4L5cGwMdKFtFw7sxq7N+MAXsekvJkXi2IQligJKO2LpJUonpUzTPCQTNQM4PzLOWFREb3qffu656hN/sn7zgLljh9vcbDz7nH3tu7TLL9cKC45xubNt8do25zcPWM88ax86xPPyyHuv0659l7Z2rZoXOtLVxHl8fFSIqnkoZel058znl5wqSEk0L7Asa/fu3b/97W/j8fiGDRuuueaaSGTCpUwp1XU9k1LNGJtBzXDOXdfVNC2dTpumyTkHwBhbs2ZNbW3tww8/vHPnzh/+8Ifvec97li1bpmmyvZhEkjO+d/ePMn+hG9avXbyoISc2DCZNUIqJRy+Rvdn3deB3d+HVPwMEN9yOTe9BKAymwHEQ7cPjP8UT9+K538EXwM3/hIKyqc/+5H146L9gpHDuFXjXR1BeB00H50iMYOuf8Lu7sX877vlHFJRh2Xljx4x5iUDAGCgdTJqmf5BSypg2LkSESB+9mqqSxkZWucBz0YXqr+43f/kr8/kXnKYm98WXnNs/5a2vn7atQDIp7v+1+ZOfmQcOuJaFNavZrR/xrF+vFhbQKQeuCJHOeokAhWmUUtMcPOb/askpgZREucc0zS1btvzxj38EcPXVV1944YWTE4Y0TfN4PH6/P+MZmvlUGQdSxp+UTCYNw7AsK5NmFIlE3v/+9z/33HNPPfXUAw88kEwm161bp+tyOo9EkgMe+78/P/7EkwAopbf//W25MiPluADGOjQCAAjg2NjyBDb/Aa6LT92NKz4IVZ8Ib1UtRuM5KK/HT76MP9+Hsy/GRdfhaO0wMogffwWpODa9B3/3LZTVgk4KyTWsQsNK/NON6GzGb/4d9SvgDWRXH9spM7Ao5biumwahlCki25hWAEcPNcseHQiQFSuUxYvZe96t33JroquLP/wH66JNanU1U6a53R3s5L9/2GpudoXAJz7u+dhHPaHQ1GJoDGesazcoU0Co604h0SSnIjJ6kmNc1926desjjzzi8XiuvfbaCy64YFwPqaoaCATy8vLGOwyJ2QGAUhoMBvPy8gKBwHjyEGPsggsuuPbaaz0ezyOPPLJ161bXnaGBvUQiOSk072/9ytf/JfP6wx96/8KGutzaAwBCZL8AxIaw4zkYSbztelx8IzTP4ek+BF4/rvwQzrsa6QRe/RNSR45vA4CnH8DIACoX4+pbUFGPyb5tQqBq2HAlbrwDQuDAHjS/PpUlmdmzQLb5NCGgBOSYty3XRV8/v+v76Z5uzhgaF7P6+pkG7JYU01UrmM8HQnDffeZzz9tjD5LTkbGBglAIMslMySmP9BLlmN27dz/44IOBQODaa69dvHixoigACCEej8fn8x2dRv2mUBTF7/drmpZKpQzDEEIoirJy5UqPx/O73/3uwQcfDAaDK1fKmYUSydwxODj0iU99Np02AKw+e8VH/vaDOTTGpzBAgLsTXiIhoPvQsBKD3bj2VgRCUx8ZKcHVf4vRIdQshTpVCL5+GZasw/orsPKCqc9ACK7/FPa8hEA+wsUTq49bwjkgfCpjzCuEcLnIdAMCAGgTY2InIQSiUf70M/Z3/jXd1sbDYXLRRerHP+o56yxlBg97JEJu/7S3pJT+6j6rtdX9xN+n/vJG50M3e2qqqaZNeVh2IC4BhOCAYMw71W6SUw8piXJJb2/vT3/6U0LIO9/5zsbGxvEHGb/fn4mUAch0Hjq+82dSsDVNUxSFMZZIJAAoitLY2HjllVfef//9P/3pTz/zmc+UlpaeqE8kkUhmIJFIfvQTd/b09gEoKy357re/OpP74uRT6NfBBVx3IoMHLvwhvPs2XPVh+ELTjpGnDGsvw+Jz4AvAM1VLnuXn41sPwx+aqVY/kIev/BqWOSGJJg9edV1wUeDTdb2Qc+66tgAhIAKg1M/5kZLItsUb+9z7fm3+7rfW8IhobGQ3XK/deL1eWHjsp8r8fPqRW7zLlyn/c4+x+UXn3nvNffvcmz+oX7RJDYWOPJxQPwHNaDfXdTjnul5wzCUkpwRSEuUMwzDuueeeZDL57ne/e82aNePbM/2Hxr8dn2J2HIxrqUwcjRASj8cBMMZWr149NDT04IMP3nPPPXfccUcOB3FLJGcIlmV/8vbP72tuARAKBX/wn98piBzVmGduqQ55wTlse2JuvXBBVHh88ByruauiIlIy7buETBI60xM4vCGTcCcm29s2OK8Oeb3eSs5d2zKBrJeI0DAm1eEDMAzx6B+tX91nbtnqKAq5fg5nfgAAIABJREFU5hrt/TfpG9a/iZYjioJNF6oN9ez+35j/77fmiy85hw7xXbvcm96n19QcJlspDWMslGhZJueu11s522Uk8xspiXKD4ziPP/54Z2fnmjVrLrkkW39LCAkEApP10IklEAgASCQSGal0ySWXHDx4cNu2bY8//vhVV12lTJd8KJFI3jKc8y986euvvvY6AI/Hc9d/fLuuribXRmFRYVCBcEwTQmTv8sIGcveAJOyxFwKmqUAsKgwGtQbOhWGkILKdRxgtcdE2ftBojH/3u8ajj1ldXby2ht50k37tNXpl5fGkHFRU0Fv/zrPsLPazn5vPP2//9z3mjp3OJz7mPf/8CW3FaAnG5ooYRopzEQzmpmBQcsKRd8Hc0Nra+sorrxQVFV133XXjATKfz3e0HjruqNmUx/r9fs55KpUSQlBKr7vuukOHDr3yyitLlixZvHjxcS8kkUhm5l+++59P/PlpAIqi/Ou/fHXVitz0ZjyCiFetCnnaLAuOg8xDEbdARQ7GviIzNsTKpng7DiyrKuSNeFWVRTzeCtNM2balaV4ATKmANVElt3mz87N7TccW529UbvuoZ91aNRA4fvt9PnLJxdrCBvaLX5n3/sJ85llHYen165WxsbKEKRUZSWTbadNMeb0VqpZjb5/kRCErznJAMpncsmVLPB6/6qqr8vLyMht1Xff5fFPGyI5PFU15VEZ4jdfe5+XlXXXVVfF4fMuWLclk8jhWkUgkx+SeH997329+B4AQ8rV/+vz5563PtUVZNEZXl4VhmjAMQAACwp6uxP3k40DYWTMMA6a5uixfY5RSLRxeaRgJw0hmis8ICREyoUKWLmHr1iof/5jnB3cHLtqkvRU9lEFRUFvL/uFO7/fv8m88T9m0SWMse05CIoSEMmYYRtIwEvnhlZTKHm+nCdJLlAM6OjqampoaGxuXLFmS2aIoitfrnSF0ldE3s0wqmllCZdZyHCczqbuxsbGxsbGpqWnNmjVLly59Ex9DIpHMgt8//Me7fvA/mdefufOT77z80tzaMxmd0Y2VBb/d3y/SBoJ+CAAC3ADLxdgfbkyUm6UNYpgbKwt0RinRCiLrB/r/lEyOhELFAAhRFbXWtoYy+9bUsN/cHyTkRPq2CIFHJ5e9Xbv0Em3ymRW1lhAlU3WfTI6kUrGqqvVSEp02SC/RXGOa5r59+0ZHRzds2JCZTp8pCptN18TZ9yWaGV3XNU3LCCyfz7dhw4bR0dHm5mbTNN/6B5RIJOM8/8JLX/3GdzKvP3LLzX95/V/k1p4jUBldV5FfoBIkEnCcrIeGGxBz3rFMuGOSSMB1kEgUqGRdRVhllFI1P3IO4B0d7XccGyAAY6yakIkEcEpPVqxv8pkJ8TFWDSgAcRx7dLQf8IYj51AqB0eeJkhJNNcMDw83NTXV19eXl5dnRAml1Ov1zuWMekKI1+sdz2EqLy+vr6/fs2fP8PDwMY+VSCSzZNfupjs+++VMQ9Qbr3/3rbfcnGuLpmBByLuxsgCjsUmxMwd8ztsx8zSEMxE1G42dX1VYGcr2+/F6KwoK10ejh9LpeCZoRWk+U+rmtkciYUo9pfkZA9LpeDR6qLBwg9dbMYc2SE4uUhLNKUKI/v7+zs7ORYsWhcPhzEZVVed+3JimaeP1qeFweNGiRZ2dnf39/W8lm1sikYzT3nHwY5/8B8MwAFzxjks/e+ff59qiqSkJeC6uLQrYFmJxcA4hIDh4eqL4aw4QNngawoUQ4ByxeMC2Lq4pLA5kfeceT1FR0SbDMIaHezgXmcc6RaknNH/mE59ACM1XlDpCvADlXAwP96QNo7DoQt0zi14DklMEmUs0pziO09zcHAwGFyxYMN6o2uvNTedTr9drmmampfWCBQtCoVBzc/OSJUveRCsPiUQyFaZlfeRjd4yMZiddDEWjH/3Encc86t/+5ete71wXwOuMXlBdsKI4+GLfICL50FRAgFtw01DYXDw2Cw43DW5lE4lsG32Dy4uCG6sKdJZdnVK9oHBDINh46NDukpKFuu4HQGmZojTY9va5UG9EVZQGSssAChDbTnV17QkGGgsKZSLRaYWURHOK4zgtLS1FRUXFxdkHC0ppribSa5pGKc149YuLi4uKilpaWhzHkZJIInmLpFPpnp7e8W+3bN02m6MyFQ9zz9Ki0GX1xTtfakn0D2JBppe9C54A10BPvkQTFtwEwAEBEPQPBmzzsvrKs4oPmyUSCi0pLrmkdf/dXV1NdXXnAoIQXVGWcbfPdTsn8rJPCoTRMkVZRoieCdV1dTWlUsn6hReHQktO5rqSuUYGzuYU27Y7OzvD4fDkqNlbmWL2VqCUTo6d5efnd3Z22vYcesslEsk8QGf0puWVjQUBHOpB2shuFQ6cYYiTrNIyq8DJapq0gUM9iwsCN62oHHcRZaBUq6y83u+vb217OZUaGcsoylO1CwgJnFQbCQmo2gWU5mX0UCo10tr2st9fX1l5A6XHLouRnEJIL9GcMjg46DhOOBwe9wzlykU0vnom10HTtHA47DjO4OBgKDTNoEeJRDI78vPzdrz6XK6teBM0RAK3rKltfmJ3bH87zlqIjBwRFpxBKMXTTjp7iwgOZxBibFqZy7H/QEiht6yuXRiZQuUEAvW19Tfv3vnFnTsfOeecGxRFA8BYse653DAehjg5BbNE1z2XM5b16zu2tXPHI4TotXU3BwL1J2VFSe6QXqI5pb+/X1XV8faMAHI7RmPy6nl5eaqq9vf359AeiUSSK/56ZdXVi0poMo2D3XCc7FB614DdP5Hoc8IQ4BbsfrgGhIAQcBwc7KbJ9NWLSj+4qmq6w6qqbiopuyIWG2hp2ezYFkAgCGOVHv1qQiMnugCNEBrxeK5mrDLjlHIcq6V1cyw+UFp2RVX1TSd0Lcm8QHqJ5pTh4WFFUTLtiDJMFiWO44yMjGTyCcZr8sdLwAghjLGMcJnu/LZtj46OTj7DERVkiqLk5+ePLzp5dZ/PpyiKrMOXSM5MNEa/demyg6Pp53ui0FUUF4AxAOBpOENgeaCeE+MuEhzcgDMKYWaVlsvRP4SB6MYF4W9dukxj065CqbZs2VfSqUPd3a97vaGKihVjvqJKXb/Utra4bhdwQqL/KmMVqraOsWyNveNYXV27urv3hCPrli37isyqPi2RkmhOSafTjLHJwbLJ7Yi2bNlyzz33jIyMYBpJlJeX9+EPf/jcc89l7LDJzBlc1926desRZzhCEuXn53/4wx8+77zzjl5d0zTGWDo95/1IJBLJ/GBByPuvly2/7Y87tvYMgFEU5GcjaJnmjSwAFgB5a3cN4cBNwE2Mze4AXI6hEfQMrC0K/utlyxeEjlGB6/VWLF/xjR2v397R8RpjWmlpo6JoIISxCqJvcuw9jtMsRPwtuLUIIUFFWaSoZ1GS9Tw5jtXb+0ZHx2t+f+PyFd+QvYhOV6QkmlNc1yWETM6nnixKmpqannjiiVgsNt3hXq9306ZNa9eunVIScc7379//6KOPziBrQqHQhg0bppRElFJCSKYATSKRnJmsLs//6tuWfP6pptcP9cHlKImAEgAQJlwHPA0WAA0cT69oIcAzYsiE4FnJwgX6o+gZODvs++rblqwun1Wfofz8VUuWfqFpz1dbW19yXbuyciWlCkAoLVC1tZQtcJ03HKfluIa1KYrSwJRGxsoIyYozzp2url3tHa/qWvWSpV/Iz1/15k8rOTWQkmhOYYwJITjn41uEEOO65PLLL8/Ly5th/Krf71+/fv106UeKolx88cV33333zGfYsGHD5NXHX3POMz2KZv9xJBLJaQYj5OLaoq+/bckXn977+qE+2DYqS7IpOsKFSEGYIDGwIKhvth4j4YAn4SYhrMNGhQiBQ33/n707j4+sKvPH/znn3Fu39kqqUtn3pNOdXqAXupsdGhRwFAV1EPmOiuM+jjqOw3ccR2d+o351FMYNd1EcRWQUpAVBhUFkkaWhN3pJp5N0OntnqUpqv7fuPef8/qgknd7Se5KG837lpUkt954inarnnvOc58FwfFXE98UNrVc1RNmJRVqEsGjpFa34XNuuz3d1PWdZmUWLLiGEASDwaFoDo2WavsKx93C+T8oTamhNiI+xRk1fQmmYEO90WpKUvLPzuf7+7R5vc+uyz0ZLryicSHlVUp9/c8rj8XDO8/n89C0zg5Lq6uq3vvWts9SPLqQTzXJvTU1NZWXliR9h5iPz+Tzn3O2e60pxiqIsKC5Gr20qK3K7Pv777VsGR2Uqi8ZKeKZ2m0sH0oEwAQZqgHlB3CCuw+eNpITMQ5rgWQhzquzQDDkL+wZJKrO6LPStN5y/vqqY0ZOYeaLUVVZ2tUsPbd922/79LyUSg8uWXev1FoMAIIT6mPQyd4WUF3E+yPl+7gxJGT9iNY0QEmZaBWP1jFUS4gbYzBztbHZ8164/jo8PBIPLz195e3H4AhUPvbqpkGhOFTa6Z7PZ6Vscx5kZo8wS8ZygkzrCzNJw2Wy2UCDgNAegKMq5jlFycU34gXes/8jvtv1p/6i1ax9qyhAJgU03hZeAgLAh0lMxhAZCAQJISA7wGfEHOfi9lOACsST6hg0hrmos/d6bVtaFvEcM4fgIYeHI+vUX/WLb1k+Mjjzz4ou/XLTokrKyxZpmEBTGqRHi17QWTWuBASm5lGkpTYADjBA3If5DQhw5+VKklI5jDQ+3d3T8xbbz0dIrV676ptdbc2r/MZVziAqJ5lRpaWlhU9j0LbZtG8a8FfuaWZgxkUjYtj1dVltRlNe4upD3wZsv/OYLnT/Z2tPTN2zGEigrht8DXcchMzqFcMc+IqF5KsSYThuybaRzGB53Z826gPtvV9V94sJm49j7y06E11tz4UW/7Oz8Xs/+n+1pf+bAgfbqmpWhQJnh9lPKDg4BIIQREgJChzxfzpwVghDcMtOJ1HB/37aJxIjbXdHc8u7m5o+okoyvESokmlMlJSWFje75fL6w72zmItrcmz57Pp8vFAgoKSmZx/EoirKgGIz+08WLNtRH797W8+T+sX37BvM+D4r98LlhuKBrOM5ql4SQsB1YeWQsjKdcmVxjyLvhvJr3rqxbU1lETyFN+wiUGosWfTwavaxn/z1jo8/s2vnHUKgsGm0KBEo9npBh+Cg99tw5AQqRkJXJ5RKp1MjoWFdiYsTtrqqpubmu/m+KilaRs1SpUll4VEg0p3Rdr6mpmZiYGB8fLysrA2DbNuf89NfLTgHnfHqWaHx8fGJioqamRjU4UxRlJkrI2qrixSWB5/vj/7tv5Jme2NbekbxLg9cNjwsuHS4NugZGQcjkEpmQEAK2A9uBZSOXR9Z05Z1V5UWXLa14XWPpRdXhoHEmP30IocXFawL+lnh808jIk7Gx59rbn/Z4/IFAqc9b7PaEDLffpbuZZjDCQAggueDctvK2aVlpM5fIZMdTqZFcLl1UdF59w/WlpRvC4XWaHjiDg1QWPhUSzSlN05qbmzdt2jQyMlIIiaSUlmXNLN44ZyzLmk6vHhkZGR0dXbdundpxpijKkYKGdm1T6UXV4b2x9O7R5HN9sU0D43tHJjJCQmNgFJSCAIRASkhACHABh/soaQn71i2tvLgmsjQabIn4z2wwNJOmB0rLrg6H16bTXcnUnljshfH45tjYDhCu625NczGmE0IJIVJKKQXntuPkbduEZF5/Y7TsLZHIhcHAEr+/SdNVX6PXIvX5N6c0TWtpafnf//3f/v7+1tZWTdOklKZpejweciYmkE9c4byFkMhxnP7+/mQy2dLSokIiRVGOJWhoF1QWra4I/dWisnjOHs5Ye8fSHfF0bzI7mrEyee4IoVHqc7Goz6gNeheF/S0l/jKfEfboYY/rjCyTHZemB4uKV4WKzi8re72dH7es0XS6M53uzGYHLGuUO1kubEp0Tff6/FGvt8rvb/b7mw0jqruKXa6wWiZ7LVOff3OKEFJaWlpdXb13794LLrggGo0CcBzHsqw53v1uWdb0drPx8fG9e/fW1NSUlpbOcWSmKMo5hxJS4jVKvMaiiP+i6jAXkkspChdYEiAgACWEEcIoYXMTBx2BEGoYJYZR4g80hyPr5OQYC7UACjnVhBBKyORIz3R/NOWcpEKiuVZUVLRs2bLHH398cHCwpKSkUDDaNE2XyzWzqvVZJYQwTbNQqFpKOTg42NXVdc0116gd+IqinDgCaJRoJ1NPaD4QQjRymn1IlNcGNUM419xu9+LFi0Oh0PPPPz9doMiyrOllrLOtsGRmWVbhx2w2+/zzz4dCoZaWlnksB6AoiqIo80uFRPOgrq5u6dKle/bsaWtrK9wihMjlcjMLJ549juPkcrnppiJ79uzZs2fP0qVL6+rq5uDsiqIoirIwqZBoHvh8vvXr1wcCgd/97nfTZRvz+Xw6nZ7Z/uxsEEKk0+npckSJROJ3v/tdIBBYt26dz+c7q6dWFEVRlIVMhUTzo7Gxcf369aOjo/fff/90GGRZVjKZPHvLZ1LKZDI5vWQmhLj//vtHRkbWr1/f1NR0lk6qKIqiKOcEFRLND03Trrvuuurq6s2bNz/xxBOFG6WUuVwukUicjahISplIJHK53PTBn3jiic2bN1dXV1933XVq772iKIryGqdConnjdrs/8IEP+Hy+xx9/fMuWLYX9XwByudzExMSZzStyHGdiYiKXyxV+5Jxv2bLl8ccf9/l8H/jAB+Z4/7+iKIqiLEAqJJpP5eXlt956KyHkkUce2bNnz3QYZJrmxMSEaZqnn1pU2G9fOFrhFsdx9uzZ88gjjxBCbr311vLy8tM8haIoiqK8CqiQaJ4tX778xhtvNE1z48aN27dvn46KbNtOJpPpdHpm242TUmgVkk6nk8nkdC8zx3G2b9++ceNG0zRvvPHG5cuXn7FXoiiKoijnMpVBMs8YY2vXrpVSPvrooxs3bkwmk5dffnmhCyznPJPJWJblcrkMw9B1/QS7wxb6uVqWlc/nZy7Acc6fffbZJ554Qkr5pje9ae3atfPSblZRzglte3vmewiKcoa1tqhiK7NRIdH8Mwxj/fr1Pp/vgQceePjhh3t6et785jeHw+HCvY7jFDp+MMZ0XXe5XJqmMcYO67whpeScO46Tz+dt2+acTycnFcTj8YceeuiVV14JBAJve9vbli1bpgozKoqiKMo0MsuiTOFDt6dHXSrNBSHE4ODg3XffvX///tLS0htuuGHlypVHzuIUfimEEErpdAMQIYQQUy2GjviFcs63bdu2cePGkZGR+vr69773vZWVlXPWPERZ4AolOuemcrqiKMpCpkKihcW27d/+9rdPPfWU4zhLly695pprKioq3G73KUQwQgjLsgYHBx977LHdu3drmnbFFVe85S1v0XX9bIxcOUepkEhRFKVAhUQLjpSyo6PjiSee6OzsNE1zyZIla9asqaysDIVCXq/3uNk/nPNsNptIJAYHBzdv3rxnzx63293c3Hz11VcvWrRINbpXDqNCIkVRlAIVEi1Q2Wy2ra1tx44d+/btGxoaKisra2hoqKioCIfDgUDA4/EYhqFpGqVUCFFINsrlcqlUKh6PDw0NdXd3Dw8PV1RUNDY2rlixorW11ev1zvdrUhYiFRIpiqIUqJBoQctmswMDA319ffv27evp6YnFYrqu+/3+QkjEGCuERJzzQkiUTqdt245EInV1dY2NjTU1NVVVVSoYUmahQiJFUZQCFRKdA4QQqVQqlUolk8nh4eHh4eF4PJ5KpfL5POecMeZyuQKBQDgcLisrKysrCwaDgUAgEAioHGrluFRIpCiKUqBConOJlFLMULil8GuiM6iEIeXEqZBIURSlQNUlOqcQIgnllAjCBJVSQgIEIASSEElACIGKhxRFURTl5KmQ6BwgpIyZTtx0RnP2/qS1P2kNZfLjlpN2BBeSUeLXaLGhVfhc9UGjPmhEPXrYrUXcGlXhkaIoiqKcGBUSLWjJPN87ntsdz20by+yKZXvS+Rw0uFzQdDA3CAMBBGByZDlGs7AnPNKp87uWRbwrS3xLw56WYk/Qpbp2KIpyFkgpORdCgHMpJaScXMonhBACxiilhLH5nrqWQnApHSk5pJCQgAQIAQGhhDBCNEoZoC4gFZVLtFAl8/y5oeSf+5PbRjMdCdPxBBAshi8AwwOXAU0HZaAUhEBKCAHB4djIW7ByyKSQHNdyqUUh98qo78rq4MUVQRUYKUelcomUkyWFyE9M5BMJKx5P9/dnBwbMkZF8Mulks5Jzwpjm9bqCQXdpqbeqyl9dbYTDrlDIVVRE5nDDh5Q8b8Ws/JhpjqTTnZn0vlxuIG/FHZ6W0iFE05jfZYQ9niqfv9Hvb3a7Sw1XicuIEKLeKl+7VEi04AiJzSPp/24b2TySGckLp6gU0Ur4AnAZ0F3T11tuCi8Fo+ASWQFzuqGZlHDysCxkkhgd0iZGSl10Tanv3a3RC0oDVF0IKYdSIZFy4ux0OtXdnezqmmhrS3Z0ZAcGqGXpgAZQgAIEkIAABOAANiAMw1tVFVy0qKi1NdjUFGho0P3+sztIeyKZbEtM7Bwff3li4pVsppvSvK4zTaOFeSsCIiGFkJwLxxG2zYVweX0NRUXnFRdfECpaHgy26nrRWR2ksjCpkGhhsbj85rbBe9vHko7k4VLUNsEbhKYVIiEKVLqwxIt6g/hnzEZLiTTHfgt7snIwDzF5qwDnSCfR18XiI0GN3LK45BMrKw2mwiLlIBUSKSfCTqfHtm4dffHFiba2VE+P13GCgA8wANexQ6I8YAEZIAlkNS1QV1fU2hpdv75k1aqzERjZdmJ05Onh4cfH4y+nUu1eLwsGPT6f2+3WXLqm6YwxSgmZmluXXAjH5nnbMU0nkzGTyVw2ywOBxcXhC8rKXh8tvVzXQ2d8kMpCpkKihYJL2TVh/vNferaMZeHxoXEJSspBJueZGUGlCxcHaZUL7Nhzz1xiwMJzSTGYB5/+xUqB0QPo3oNcZnWJ9yuX1DUVuZnKvFYAqJBIOR4p5fiOHfsffHB81y47FivmPAr4ABegz0zAcblgGIQxyTksC/n85NMBG8gDGWAUGGdMj0SKly2ru/HG8IoVZ6piiJQiHnuhq+uH8fgm2x4JF3vLSkM+n9swNE1j9OD0uJcQH6ABjpQZIFu4VQjpONyynEzGHB5JxMezul4aDq9rbPpgJHIhIarA22uFCokWhJwjnh5I3r5loDMjZKQMDYvh9kzdSVwUy31kjZ8Yk3+Ys7yJSACWwOaU3JmVeTF5CwCYJrrbSfxAs5fetrrq8qqgR1N/54oKiZTZiHx+709/2vvIIzydLua8FvABB1ORKSWRCK2tJeXlxONBoQhIIc86l5MHDojeXhmLQUy+E3EgA/QC44wxv7/2jW9sufVW6nKd7iC52db2n/u7f8pFKhL21daWBfxuxqYrtDFCayhbTmkjIUFg+n1PSJkSokvwnVL0ARxT+eKptNnbOxyLZxgN1Dfc2rr005S6T3OQyjlBhUTzL+uI33WPf++VA/scDVX1qKzDjCRESsj5PrLSf3JZQBLYlhbbM1LM/P0KgaEe9O9v1JyPnFf+poZir4qKXvNUSKQclRQi3dPzyu23T+ze7QEagOjMqzFKSUkJW7aMRqOYmoSZvldO/68QYnSU79olx8YKgVHh9lGgG8gBRUuXnnfbbf66ulPLvJaSp1LtWzf//fj4Zq/X3dRUFY2GZhQf0Qit1vQrCK0FKMClFAevEkEIoQADhBS9jv2UFP2AU7hPSDk6mujqGshmzeLiNavWfDsQWKwyr1/1VEg0zxwhH+yKf2v7UC88qG1CSRkOTtISEFpukEuD5BTyf7jEs0l5wJKAwPRvWQqMDaO3qxa5j59ffmNTRFMZ169tKiRSjsRNc/Sll9p//GOzpyciZQNwyCSJrtOGBq2lhblc5Hiz1hLg+byzd6/o7oZtT99lAt1AjBB3Xd3i970vunYtc5/cTAzn2eHhJ3bv+oJldpWUFDc2VHs8+oz7XZSdR9kagEnpYCrH8mgoIRrABd8s+CuAPR025XL5fd0DY2Pjhrtp2bLPlZZdzZhqGflqpkKiefZkf+Jfn+sdIB40LkZRBIxO/jESCsIAstqPSuMUDz5oYUsakBKSH3xHEAITMexrr5S5L11cu6Fa5Q++pqmQSDkMz+UGn3yy8957ZX9/FVA1I+ghAKWUNTWxpqaTaqEohOBdXbyrSwhxMMsRGAAGAFJd3XzLLZUbNjCPZ7ajzOA4mYH+3+zd+3UpBmpqKquryggp5HZDSi6lSdlKys7HSf3DJkTw7YJvI8Q9PSEkJfoHhvv6Bgmtamn5ZFX1WzXNdxLHVM4pqlTjfNqXsP75Lz3DnGFRE8KRyS1kRAKsEA8B0AjSzikeX5ucziYgDBKFxXIwgnAEommwY/c//6XnvusWN4ZONeZSFOXVRXI++Oc/d9xzDxscrAMiM+IhCmgAKyqiVVXT2dMniAK0qorFYjwen56xIUAlYAA9/f0d99wDQqqvuYaw4y9OSekMDGxs33MHY2MNzQ3RknBh7U4CQqS5MwZSTLVKISdO8sUDpJKLrZCDTCuh1FdoklRdVWEYRnd3X/ueO0BIbe3NhKiPzlcn9XudNxmbf+rZ7mFToLEZ0fKpmwvx0MHfS4rjlK/f09PFikBAtINRESGIlsPMDe/b+6lnu++5psWnq6QiRVEw+tJLe+++m42MNAJFM1KRGaADDEBJCSzr1A5OS0poPE4Be/KdCBSIAAzoGhzce/fdRnFx6YUXHvc4w8N/atv9/zQ20dzcFA6HpuarBHfGHGdIiqzuWiFl5tTeOimttvPtQqY1rULTSgBCGYlGSxjTOzq62nZ/yTBKy8uvOZVDKwueConmR57LH+0c2R3LIVqO6roZGX8aDr3+GM0Dp7ohY/SwC7nJqGhq0qm6DqnE7tiBH+4c/uj55S6VVKQor22Zvr5Xbr9dxmJNQPFdicBAAAAgAElEQVSM+SF95n57xmCap3gCxgAwoBAVFRKLKFAM1AMdIyOv3H77Rd/4hq+mZpZjpFOdWzd/DIg3LmqJRCJT28qkbfc7Tj9k4apPlyc7RTSN6ICQIm3b+6TM63otQChlkUiEc9Hevnfr5o9ddvkj/kDzKR5fWcBUSDQ/to1lHuqOm24vGhcDZHLBmxweDwEY59AduE4+XMlLjPMjbiUapIScioqaFpvp5MPd8UsqAuvKz25JWUVRFjInm9325S/nY7FGIDrj9kL9oYOy2ZNL0Jkplyv8PwFcAAHyUz9GARPYF4tt+/KX199xh+Y9ehaz46Q2v/yhfH64ubm5rOzg5Lqd73KcgemHCT5O6Sz51LMRIjF1VO7YPZCO7mou5NaWlZXnclZnZ+fmlz90yWUbNS1waqdQFiwVEs2DRJ4/3B3vyzpYtAQuF6QAAMIK09KH4RJjNnwM+slERbZEhs+o1ngIBojJayndhbrmvo6dD3fHFxd7QobaYqoor0XCtvf96lfJrq4oUD11I5maHzrExASAU+nkKuXkc6cUjjy9v6saSAFjXV37/ud/mv/mb6h++JmFyHfu/XYisaOsrLyurr4wbyWl7dj7Z8ZDAIToJWS2qaZZCNE/80fHGQCoptcTogOoq6tPpdIjIzs6O+5sWfxPlJ5uUSVlQVEh0TzYGcv+ZTCVD0VQXDz1bkBBNByjRqotkeLQCRg5frNmCXAJWx4rHgIIBTRIMZnjWBzOF0X+MpS4Lp69pEJd9CjKa9HE7t2DTzzhtqzmGetl2lE/IVIpaBq0k//scBykUofdpk2VtwZAgGYgbVmDTz5Zsnp1+PzzD3twPP5yX//9Ho/e0tI6tSNMcGfIcQYPe6QUw4K6CTnp+opSmlIOHzHwQUIMTa8BNEJkS8uSVOqlvr4HSqJXlJRccrKnUBYyFRLNtawtXhxK7c84WFJx8G2F0BmJjEfBJYREoQQIOcYVmpSTVUAkjptWSEEoClXLGENZxf49sRcPpFZFfap4o6Kccfm8/crOXZ2d3clk0uVylZSEVyxfWld7itMYZ5ydSg0++aR54MDiGYmLDNCOWnNICCQScLvB2InOFUkJzmGa09UapxFAA8RUtrULaADah4YGnnwy0NioBw5epNn2xED/A5Y5sHRpq2F4Cm9ynI85zsDUs2dyBO8npAjkZGZxZF7KCUj7iDu44wwQ6mesFKCG4W1qatm9u22g74FQcJnuUg1iXz1USDTXDmTzzw6leDAEvx+T+0YLU0THeXM5JNA5zSIypPBGxAEJAvj8PBh6djB1Q2O4MaTq1ivKGWOa5l0/uee+X/8mlUofdteSxYs++uH3XX7ZxfMysJkSHR1jW7YU23bx1C1kqpPr0TkOsllo2glFRYV4yHGOjIcK6FRUVHhXKwKKbDu2eXPi8stLVq+eftjE+PbRkT+Hw0XhcLQwNCkyjjMg5TFyvaUlZQzEIOTood3ho5QOpHVw98nhd5uOM0BJkFAfgHC4NBweGh19amJie7T0iuMdXDlnqCmBOSUlelLWzngORcXQXYVmQADB3NeJJwygkwNwuVBUvDOe60lZqmKfopwpQ0MHbnn3h370k58dGQ8B2NPe8bFPfvrO7/5o7gc2E8/l4tu2mf395TMukY+e2DiTEMjnYZqTHV6P9WVZME3k88eKh448nQaUA+bAQHz7dj6Vju04mbGxZ3O53srKWk0zCp9cXMQEj816gehAZqVISZmWMnvsr7QUKcjsseIhAIAUPMbFGACAapqrsrI2l+sdG3vWcTKz/6dSziFqlmhO5YV4aThtaS74fKCFWqsE5PAswjlCNEgbkKAEPr+luV4aTl9cETCYCpQV5XSl05kPffRTPb19AAghr7vqiqs2XF5WGs3n823te3/z4O/6+gcA3PWTn9dUV97w5jfO1zhzY2OjmzcHhfBNzaWQGUtmEhBS2oT05fMjtu2ltNHt9pGplf7CDNAJKKQuZqTcZ5pZIcp0vdrl0qUstGadMWsNAviAoBCjL79c+brX+WtqAJi5wZGRJ4uKigKBEKUMgBA57gzO2qYDU69ATm5hOV2CO0OMlVPqIwSBQKioqGhk5Mmampv8gUVn4vjK/FMh0Zyyhdw8koHHA7dn6uJmPqaICibPKwHA44HHs3kkYwuptp0pyun7/o9+WoiHNE37r69+4crLD+bhXnTh2lve8baPffLTm17aAuBb3/7RG659nWHMRxF5KbMDA8mOjjpg+vTTczYTnA+43c8EAli3rmrZspKSkvFc7oHOzvRLL7X29p5vmmFAO97CmSNlHNjudrfV1vrXrm1YtMjtdreNjf3vrl3YtOmyVKrKNIsYK5y0MEtjAEVAT0dHdmDAX10NgkymO5nY0dDQbBg+gAJS8AkhxqdeBHBKe+BOkBCTnbiFGBd8glI/QAzDV1xc2t29I5Pp9geaT2BtTjkHqJBoTllctMWzKI7CMCb/jik7yt+SELCysC243DA8x9qJNhspYedhpkEZPH6wo/6iCcAmd+O7XHC52uIJi0v/PE1aKcqrhuM4D/72d4Xvb333O2fGQwVut/vf/vW262+8RUoZi8c3vbz1skuOX7X5jBO2Hd+xw5XP+w8tVC2BXs631tTQ669/zw03eGa2HrvqKvmBD2zdtOlP993X+sori23bfexmZ6YQ7bredt55LTff/LF168jMsOX663O53OMbN3Y+/PDKvr5axqZDIgr4AVc+H9+xo2T1ajAZG3tO12kgUESpBkCCcz65y8yy5PPPO3lbnn+eVlpKz2xgZJpy924+OCTOP4/V1DAAnA8yvRqglNJAoEjXaWzsuWj0CspUW6RXAxUSzan+VD7pSBhuUDo1SzRjTkZKjPTij/dg258xNggnD91AWT3WX4vX34Jg5ITOkRrHC7/Hs79F7x5YWVCGolKsuATXvgt1rYdfSU32PgMohWEkHdmfsiJu9a9CUU5L+97OdHoyxeTNb7ruqI+pqa5qqK/d190DYMfO3fMVEo3v2uUmxEMmK3wQKZmQfY6zeflyfskl+/v7t99xx8UXX3zFFVdoUztkCSGr16+vqqt78Wc/E3/84wrHOepckSNlm663X3ZZvr7+0ccff+q5597ylrc0NjZOP8Dj8bzxpps6li7d/L3vYefOWk0jlEhCAHgk3FKO79olbBtExOKbvN6AxxuUk4nVJuexwkGGhsS//Uc2HpMbNmhveqProgv1YPAMhEWOg44O59E/2I/+Pj80JD7+954PfZARAs5jUtiE6hLw+oJebyAW3yREXoVErw7qw29O7U9aklK49IMpgdMzQILjDz/Dd/8vkoUMPoJCrlH3LrzwCB64Ex/7Oi58w2wzRlJi3w7c+Uls/fNU+UcCCfS245VncP83ceu/4ebbMLOrIqEHR+JySUr3J63zo6rPs6KcrssuvajwTXVV5bEeU1YaLYRE8fj4HA3rUMK2k11dEUoNffKzgHGezJs7q6vZlVfe86tfPfbYY5ZlrV69+vOf//y1114787ll5eUXv/e9fxgbq9y0qexoB48RsnP16nxV1be+/vW2tjbDMJ577rnvf//7kcjBqzvG2KLly/n737/rjjuK+vvdHsNhGgADMGwn1tUlbFtqdmJiZzQa9rgLq2YQIj5VzAhFRWTtBdp9/2Pd/0D+xRedDVfqt9xiLF+mnUD32GMaGxO/fTj/29/mX9nBMxm5YjlbupRNRX22EHFG/QAMw2e4vaMjO7kwNaiibq8GKiSaU8M5G5RCYzN2STAAyJt49G7c/R9IxRGpRHUz6lvhCSCTQOcrGNqHgU5842P44Jdw+VuhH6PSxv5duP2DaNsEXwjldWheiaIonDz6OtDThrEB/OBfMDqID34R3uCMs0+NRGOgdDh3ZE0ORVFOzrKlS779ja8c92G53OQGcv2ISs1zI3vgAE+n3bqu6VrhGoxyMerxmFddlcjlXnjhhUwmA2Dr1q2PPPLIYSERgJJo9KL3v//JLVtudo6yV+tJTVt2000/+8Uvdu7cKYSwbfupp5568cUX/+qv/mrmwxhji1eubL/qqtFf/7oOkugaAA1wC8nT6eyBA7I0I0Ta7a6mbPK/kuBj008vKqKf/VfvNa/X/utr5rbt/Be/zD/5lH3TXxsf+ZDh8510yoGU8qmnnTu/k9u+jafSMhAgn/yk+//cbFRWHoywBB/TtDoJMKa7Da8QvdlMr2FEZzmscq5QIdGcSuUdEAI6MyQikAK7X8RDP8DECJZfgnd/BquvPhj3mFk8+1vcdwc6tuLX30RVMxavOUomYd7Cz7+E3S+iogE3fhTXvRuhksmH2XnseQm//gae2Yjf/xQ1i3DDR6ayi8jBkVAGQlL5WbahKopyxmSzubb2jsL355+3bH7G0N/PAJfGMBWTOZnstmDokuuvf/zxx+WMmhzyGPU5mlpaNq5dK5577rAsHiHlwNq1b1yyBICYdQc+AE3TLrr++r88+mhVMjk9EhcXzLaz/f3cG6eUGYYXmOxNfbANGQCguIhce41x4Xr957+wfvBDs7tbfOWrufvus/7tc543XOfST6wXkpTo6+Nf/FL2oYdtzuFy4dpr9c/8s2fx4sNXBYVIFNbvCGAYXkpZOt1VHF5zImdRFji13XpO2VObzAA5WROIANkUXvg9unehrhUfvQPr33DIPJDbi6tvxge+hKpmtL+MF/8AK3uUQ+98Hk/9BsEI3vwhvPmDKIoeDJt0F1Zcgo98FedfBjONJ+7DYPfkXQRTtZFkIZPAUXWJFGVOfOs7P7QsC0BZafSqKy+flzHkxsYoIbrGiKYVviRIrK6uoqLiqquuuvTSS4uLiwOBwKpVq97+9rcf6yCrr7lm0xGdOjalUquvuSYQCLz+9a9fvXp1MBgMh8NXXnnlFVccvbBhRUVFvL5eAkTTiK4RTdM1RgnJjY2Z5hClVNcNAgIQCSLlUeo8hUL07z7sufeewDtucpWX075+8dGPZT78d+nnX7BNc7b3NSHQ38/v/E7uTW9JPrjR9rjJurXa17/m+86d/iVLjpIlJWUaIACVoJpuUEpNc2iW4yvnEDVLNKcmL1ekONhKWko4NtITMLx4y4fRvPIoTyME512C696De76M8REcbY4a48OQEssvwtXvgPdoq9oVDXjfF/Hp65FLIz2VuCCnamJLFNKPjrulVlGU0zQ8Mvrd7/9440OPAnC59C994bMu1/wsnDmZDCGEsUIdagAghND6egDV1dVf+9rXHnnkkWQyefXVV69Zc8xZkBUrVvwqlbowGJx545ZU6qYVKwBce+214XD42WefDYVCb3/7232+Y6Yqkro6smPH9EgY0wghTibD7SQhlDJdgk5exsn8UY9AKVYs1+74qu9PT9r3/tJ65lnnoYft3bv57V/1XXyxTo/x3jYyKu74Wu7X9+fzeSxZzG64wXXT212F/WVHJWV+er6KMZ0QatvJYz1YObeokGhOBVwapDy0kKuEvxjv+Ee87hY0rYDrGNsW3D5c/wEsWYuKenj9R3nA+uvwnw+jogFltcc8/dL1+PJvwW00Lj949mlCQMqAS1UlUpQzrKNz3ze//QMAjuOMjIzt695fWIcKBYNf/I/PXLBm1XwNTHIOgDBKprKRJSFkKmqpqan58Ic/fNyDBIPBiSOu0yYcJxQKobAodtFFF1100fFH4/GAEKJNjoQwWhihlA4IIYQRUDm58WS2lTi3m1x5pT40JF540QEwkZDptJysAnk0linHx2XhFdTV0rdcr1dXz/42KMjUAgsBA4iUKt/gVUKFRHOqzKNDCNj2wVhEOmAGalpQ0zLbMwlBcSnWXXPMB/hDs91bwBjOu/SQW6RzcCS2DSHKPKoqkaKcYYlE4plnnz/sxoqK8v/+8XfKSuczLZcUpmQogXYwCJCZk+tQkUwmi7TDP0qKNC2RSJSUlJzEgXI5QIJOjYQQEBBNI0SbbPFIpid62NFavU7at4/f9RPzkUftZFLW19O/vdV9wRrt2LWTUF5B3/8+t5XHM8/YTz1t/8tn8d73GK+7Wne5jjVlzqZ3/hZ6bZP56kCgnGkql2hO1QcNUugNNN2xfn4vLyZDIglI5PNEiPqgqq6hKHNhaOjAzX/z/gcefHgex6D5fFKCEwLGCl+SQOzff1IH2bFjx+rA4Yv1qwOBHTt2nNRxZE+PnDESTomU0Hw+XQ9KKTjnBJSAApQQz1GPYNvyj4/lP/HJzM/vsYaGxKWXaN/8uu897zZKSmb7pDNc5KKL9Nu/4vv4x9wgePpp+7Ofy379G7mR0aPPRRHiKQwDoIILKaWuB4/6SOWco2aJ5lR1wAhqJGFZ4HyyPpDMA/NXB2hySV6CC+StoEaqAyokUpQzbM3qlVtefBKA4zhjsfgrO3b9z683bt32Sjw+/vn/d/v4+MT7//Zd8zIwd0mJgHQkyNQsCmUs0tMzNDRUUVFxggfZ8thjnzwiJFoXCHz9scc2bNhwggcZGhoK799PGSNTPRYdCQHpjkSEmwjBHScvUeiHBkoDnB+eYZ1Mih//xPru982JCalp+PuPuj/1SY/Pd0LJkRpDTTW97VPeKy7XP/4Pme5u8fVvmi9vcb7wH97FLYcnWBIakFMtKh0nLwR3u8tP8GUqC5yaJZpTBiOtYe9kg+jCVi9pT7bUmHuSQ9iQEhKwLFj51rDXYCq9WlHOMEIIY4wxZhhGVWXFG6593d0/unM6DLrzuz/auu2VeRmYr7paSOQ5B6WgDJRqXu/KTOb5hx92jrqN4whde/dWvfTSkX00KCFVL73UtXfviRzEcZznH354ZSajeb2grPCV50JI+Kqr/f4mIbhl5QhoYTmN0ENWGx2OnTudD380859fzZkmVq1k9/zc/2+f9Z5gPHRwzBQXrtcfejD4nncboRB5+mnnr29K/fJ/rERCHvqwaGHvGwGxrJwQ3O9vOqkTKQuWConmlE7JmlIfTBOmebBFs7DmZzTCAsTkMEwTprmm1HfMXRmKopw5hJC//8j7l7YuLvx4730PzMswvOXl1OczHS4IKSRZS7+vJJdz/+lP7du28eN1uR8bHX3+rrs2HCN42uA4z99119jo6OwH4Zy3b9vm/tOfSnI56fcRRgmjgsB0HOrzecvLvb5aSv2mmeG8kNdMGTukIHh7u/Ou96SfeMIuL6N/839c3/2Of8OVx6hnewLKy+m/f87z75/zrlqpxcflp/4p8+3v5GZuiWGssrBqxrkwzQylfq/v2JtalHOKConmlIvStWV+w7GRyUAUwhEBYR6y82uOSAhzMiQSApmM4dhry/yuWbIQFUU5cwgh111zdeH7LVu3z8sYqK4Hm5oszi0uQCkohdcTcruX9fe333VXx86ds0RFwwcO/OXuu5dt3hw5RhXHiJTLNm/+y913Dx84cKyDcM47du5sv+uuZf39IbcbXm9hGBYXFufBpiaq64y6Q0XLTTNjmlmAAISxUkK80weZGJeajksv1j7zac9t/+RpbmKneWUXCNC/frvxxS943nmzUVVFx8bE9EskxMtYaWEYppk1zUyoaDmj7tM6n7JgqFyiOUUI6gLGsrBnSyKJkjDcbkBC5iEszPEflbCA/GQolreQSC4Pe+sChipLpChzpqpqMl8nPj4xLwOgul68bNnA7t1Z2/G53SCArouAv9ZxsGvXtq98Ze/117/+hhs8nkPSmaWUWzdt2nvffa2vvLLYto+1m0sjpNW26R//+OTQUMvNN69at44c+v6Sy+Ue37hRPvzwmr6+Wk0TAT90rfCYrONk83bVsmVU10FlJLyut3dHNpvw+YoBEGIwVuM47YXjrFqlfe0OX0kJXdTMjtj6dop0HRes0etq2Zuvd1VV0umOaYzVEGIUZhOy2UQ2m6ytXUfpqU9KKQuKConmWrnXdWllcPvOEZ7NwnABBOAQWRDXbC1dzywpILIQzmRDj2yWpdKXLi8t96k/bEU5A37y01/cc++vATQ11f/oe9841sPy+cmWgh73/EwzUF0Pr1jRff+vU5YVCQYopZBSFheRiUQdY6G+voGf/OS/f/1rrFtXtWxZJBIxTXN/Z2f6pZdae3uvMs0wMNvudsBN6TLHqdiyZfvu3XfW1vrXrq1vbna73bFYbGDXLmzadFkqVWWaRYyBEFlcVGgrJKRIm1aeILxiBdV1EERKLu7q+l4qFYtEaillgMa0JsfpLGzF93rJZZeelW3w0SiNRme+QMa0JkADiBA8lYrZdj5ScjFl6p3zVUKFRHPNq9MLywOPdI93DY8h4EfhokaYIDkw7zGriZ1JEiIHYU5+7zgYHqvz6evL/F5NrZopyhng9Xpj8TiAbC6bz9vHKk7d0dFV+Kaycp62LBHirawMNi8a7+utCIc9hbcjr1cGAySRLGIsZNtLYjH7D3/oe+ihYdsupnSN2+0jpLAV/kTOoBFSClxtWRs6OjJ79+4zzYwQS3T99S6XLiUlpFAlUgYD8HrBGAEsyxnPZILNi7xVVYXGRF5fQzC4Ynx8oKKixeMJAYSxEqbVcGf/WfyPcwSm1TAWLUwRmVYmPj4QDK3w+Rrm5H1bmQvqI3AeLI94L6kMuJJJTCSnkqw5eBpiTrrQCxs8DcknTz2RdCWTl1YElkfmrxaAory6rF832f4ilzN/s/F3R31MLmc+/OgfC99ffNG6ORrZEdzRaMmaNRPZXNqyQCmhFIZbhMOSMQAEYIS4gUUu16U+3yqPJ0SIdvKfHBTQgBAhqzyeS32+RS6XG2BTC2lSYyIchtsghEpK05Y1ns1FL7jAM1Xp0eOpLC29cnz8QCoVlxIAISTA2CKQOZxdI27GFhHiB4iUSKfiE+MHSks3uD2Vx3+uco5QIdE8CLnY9Q3hGq+OvsGDZRtlHjx51jfkSw6ehJw6ad5G32CNV7++IRwyVCsPRTkzGuprL7pwbeH7//rGt//05NOHPSCTzd72L/8+OjoGwOXS33nTW+d6iFM0jyeycqW7snIgFneEAKVgFKGgLC7C3KQWEiKLihAKgjIw6ggxGIu7KyrC553HpnKYNM1XEr3M46kZGNjtOHZhw5em1WisAZibNy6msQZNqwEYQB3HHhhoc3tqSkou0TR1MfnqoRbO5sfKEt/1DeHv7zxg7u/HonoQABIiC07AwmfrnUhK8AmI7MFWr/v73JZ1fUvZylL1V60oZ9K/fvof3/Xej4yPT+Tz9idv++zK81dcesn60mjUsqyOzn2PPf6nicRkr9B//MTfVVTMZ62/0KJFJatXD/z+9/FUujwcBgDDjdJSmcuRTPZsn116PSgtheEuvOvF0+lYLlt1xRWhlkN6HBUVnx8tvbKv995YrK+8vKUwUaTpy4QYE2LsLG/aJZSGNX0ZIZMVKWOxvnh8oKbmnUVFR2vUrZyzVEg0P1yMfHB52VMDia2xCfhGUBkFACLhpCAE9MiZT7WWAnYMYkb3osFRxCZaI54PLi93qXJEinJG1VRX/fC7X//U//1sb98AgG3bd2zbfniDC03T/uHjH37nO942HwM8SA8EKjdsGNu8uWNgMBwKGroLAIJBWVmJ/T3EPosL+lLXZWUlgsHCGppl5zv7B43SssoNG/RDK2LrelFV9dtGRv7c2fV8cXG1YfgAMFapuy7IW3+WMnf2BkmIW3ddwFhlIWfIsjKdXc8b7sqqmrfprqKzd15l7qmFs3nj0+nXLmsoczMMDiM2MVlFGoBIwxmFtM/cdY+EtGGPQmSmFukkYhMYHC5zs69d1uDT1T8DRTnzWhY1/ereuz/+0Q8emT1tGMYbrn3dfffc9a5bbpqXsR2maOnSyquuynHe1tMrCQGlYAwlJbKuVp615TNJiKyrRUkJGAOlkpC2nt4s55UbNhQtXXrk48PhC2pq3pbLptvb/yxlobU907Rm3XXJ2fwso7rrEk1rRqHpvZDt7X/OZdPV1W8Nh9eetZMq84PIY1TZAlAI23t6euZwPK85T/YnPvNc7yAY6ioQ9GN6RysxoIVAPac7XSQFRA5OAnKqRrYQSKbRM1QJ/qWLazdUh07r+Mo5rq6uDsAs7wPKGTE4eGB/T28qlTbcRrQk0rKoSdcXVvt0J5t98VOfSra3t9TXNVRVTd4qJUZHSUcnEUfvgXrKJKVyUTOi0ek8ge6Bgb37e4KLF6//r//SvN6jPstxUs8+85bExLZFiy5vaFgLABIg0rb35K3HCnvyzyjmMq7R9SXTe8q6u1/q6Hg6VLTy0st+q2mHd3ZTznUqJJpnjpAPdsW/tX2oVzJUlSIcPJhIRBioD8wH6j6lTZ4SwgTPQGQOZm1LgXgKAyO1hH/8/Iobm8KaWjJ7bVMhkTIt09f3/D/8A9LppU1NZZEIIZh85xkbI/v2kUJnxtNHiDQM2diIkkjh+FLK4djY7q598Psv+sY3fDU1szw7nep85uk3AunW1qtLSxeRwkWjlA7vzFtPS5kCzkj0RgkJuIzLNa15apBiZKSjre0JwH/Z5Y/4A81n4izKwqJWTOaZRskbG4o/dn5FIxPoHcJwDHKq75h0wJOwx2CPgWdOYjOa5OCZqScmIZ2D/dSG4+gdaqDiY+eXv7GhWMVDiqJM89XUnHfbbSQU6urtjSUSEoRQQihFNIrWJTISwekXh9Y0GYmgtZVES0ApoUQAsUSiq7ePhELn3Xbb7PEQAH+gedWaOwkNdXU9H4v1CMEhAUI0rclwX8e0RnLaO/MJcTOt0XBfp2lNhXhICB6L9XR1PU9oaPWaO1U89GqlZokWhJwjnh5I3r5loDPjyOIAaspgzJxUJyAMRAMxQD0gBoh2+K40KSEdSAsiB2lBOlOVh6ZYNvqGyXiq2afdtrrq8qqgRxVmVNQskXIoyXn/Y491/PznrlSqqa6utCRCp9fuLROjY2R0FInEqUwXESJDIUSjiEZhGIXbhBQjY7Gunh47EGh+17uqr7mGsONvqpfS6XQ7waQAACAASURBVO29r73tdk3LNTZeGI02U8IK81lSJh27k/NOzodOaR2NMVbBWLOmNxMSnByk4KOjnfv2veBwz+Ilt9XW3kyI2pn06qRCooWCS9k1Yf7zX3q2jGXhdqG2DOHgEctlhZ8pAEzWS6OAAMTBqaBJM36tUiKeQu8wzPzqEu9XLqlrKnIz1cxMAaBCIuUIPJcbfPLJznvvJfF4fXV1bVUVIbTwlkKklJkMSSQQiyGRwAluRtN1hEKIRBAKSZ8PUwtyQsregYH9/f0yHG6+5ZbKDRvYoc3UZuE4mYH+3+zd+3Up4nV1a2pqVk6toBWabcS5GODOfiEGT3AzGiEeSiuZVs9YFaXh6SUUKUVf37aens2EhFsWf7Kq+q2qENGrmAqJFhaLy29uG7y3fSzpCB7yozICrxuMnlilInlIypGU4AJZE4MxlkgHNXrL4pJPrKw0mAqGlINUSKQciZvm6Esvtf/4x9bgYGkksrix8ZAubFLCsmCaSCaRSCCVQu5oYYfHg0AAoRCCQbjdMIyZ72M502zv7h4ZGzMqKxe/733RtWvZSTZ64zw7MvzErl1fsMze0tKmpqZLPZ7gjEEKKTNCJoU4wPmg4KNSJo7YxksICVEWZayS0nJKgoT6ZuaT5HLJrq5nR0a6DHftsmWfKy27mrGj530rrw4qJFpwhMTLI6mftY1uHsmMWI4T9CMShNeAS4PGjh8bSQmHI+8gayGW1JLpUkNbU+p7d2v0gtKAyh1SDqNCIuWopBDpnp5Xbr99oq3N5/Esbmoqi0YP72sm5eQX57As2DakBCHQdRgGGAMhk18zCCmHR0fbu7oyuVxRa+t5t93mr6sjs7aPPeYgJU+l2rdu/vvx8S1eb/GiRZeVljZTyg65PJQCEBJCSkfKtJQmwAt9SgjxE6IVOrYBdOazhOAjI50dHc9ks+PFxatXrfl2ILCYEFXi/1VOhUQLVDLPnxtK/bk/sW0s2zGRc9wu+D3wGnDp0Bg0BkZRCHAkICWEgMNhc+RtZC2kc5qZX1TkWVnivbI6dHFFIOhSf8zKUaiQSJmFyOf3/vSnvY88wrPZaHFxY21twOfT2HR3spMgpXQ4T2Uy+3p7R8fHmddb+8Y3ttx6K3Wdbht5Icy23f+5v/unXGRLIrX19ev8/hJNcxFCDps6P9qwZgZPkJCOk0+nx/bv3zQW62XUW99wa+vST1M6h83UlPmjQqIFLZnne8dzu+O5baOZXfFsTzqfA6Bp0CjoVEiEwiWQgCPgOB6gzu9aFvaujPqWhj0txR4VDCmzUCGRMjspZXzHjp4HHxzftcuZmIgUFVWUlgZ8PsPl0nX98HmjIwgpbdu28vlUJjM0MhKbmNCKioqXLau78cbwihWnEFodY5AiFnthX9cP4/FNjh0Lh2vKy5f4/RHD8Guamx5vCkoI4TimZaXT6diB4T3xWL+mh8PhdY1NH4xELiRnvJeAslCpkOgcIKSMmU7cdEZzzv6kuT9pDWXzcdPJ2oJLyQjx6jTs1iq8rvqgUR90Rz1a2K1F3Npx360URYVEyomw0+nY1q0jL7440daW7unxu92hYDDg87kNw3C5dE1jjE1HHkIIzrntOFY+b1pWKpNJJJNp0/TX1RW1tpauXx9ZtUr3+8/8IO3E6MjTw8OPj8dfTqX2+nyhYLDc7y9xu4Muw6trBtNclDBCICWE5NzO29zKW1nTTKbTY8nkgUwmEQi0FIcvKCt7fbT0cl1XlWxfW1RIdC6RABfSkbKwMF5oAUIAQkAJoQQaIUzFQcrJUCGRcuLsdDrV3Z3s6ppoa0vs3ZsbGmJC6Lo+HRIRQM4IiWzb5pR6KipCLS1Fra3BpqZAQ8PZCIYOGaQ9kUy2JSZ2jo+/PDG+PZvtoVS6XF5NM5imU8IIIVJKITl3CmFbVgji9dYVFZ9fXHxBqGh5MNiq66p52WuRConOLVJKLiUHuJRyRpFWSggBGCGMEHZKpa6V1ygVEiknSwqRn5jIJxJWPJ7p788MDJgjI9bEBLcsyTlhjBmGUVTkLi31VVX5qquNcNgVCrmKik4th/oUBym5ZcXy+THLHEmnO9PpfbncQN6KOTwrpU2IrjGvy4h4PFV+f6Pf32y4S12uEsOIqBzq1zIVEp0DpBSOM+44cduOWWaPZfXk88OOPSFERoITMEp9ml7kcpUZRp3hrtP1iKaFNa1YLYErx6VCIuXUSSk5F0KAcyklpJRSEkJACCEEhXkjdgL7ZM/2KEVhep1DCjlZv40QEBBKCKNEI1RdSSoAoEpwLmjcSebMzly2PZPZkc205fP9jNm6zjSN6jqllBAQCSmE5FykU2I8zjnXXa5qr6/V51vh8S72uJuZFjz+mRRFUU4WIUTTFvykCiFUY+rDTjkB6l/JAsV5Kpl8MZl4NpN5xczt8/m04mKPz1fkdmsuXdN0xhilhEzmCQrJhXBsnrcd03QymbFk8rF47FG3p9HnOy8YujQYXM+YatqsKIqiKMekQqIFSKZTW0ZGfplJbxciFg57mxurfD63YWiaxujBYoteQnyABjhSZoBs4VYhpONwy3IyGXN4ZCQefyiZ+IvPf3609J2BwCrV6FdRFEVRjkrlEi0sUliDg98bG71fykwk4qutLQv43YzRqeodjNAaypZT2khIcEZ8I6RMCdEl+E4p+grNDgur/Km02ds7HItlCPGVRN9eWfURQoz5enXKAqRyiRRFUQpUSLRQSClMc1/P/n/LZnZ4ve6mpqpoNDRjQ71GaLWmX0FoLUABLqWY0a+HEEIBBggpeh37KSn6Aadwn5BydDTR1TWQzZpe34q6+s+73Y0q81opUCGRoihKgQqJFgQhcsnEcwMD3xK8t6SkuLGh2uPRZ9zvouw8ytYATEpnxt77I1FCNIALvlnwVwB7OmzK5fL7ugfGxsYpq62q+ngwdDGlJ9p0WnkVUyGRoihKgcolmn9CZMfjfzwwdBdjI/V1tdVVZYQUCp5BSi6lSdkSkCbBx0/kaJOfbKQJJC34NkLchTIbHo9naWtz/8BwX9/gQP/XOE8Wh6+lVHV1VhRFURRAhUTzTko+Hn9saPAHhpFoaGiIloQLCdQSECLNnTGQYqpVCjlxkscFSCUXWyEHmVZCqY+AEILqqgrDMLq7+4YGfyBBIpHrVV0yRVEURYEKieZdMvnc4MB3DCPV3NwUDoemmgQJ7ow5zpAUWd21QsoMTmlZg9JqO98uZFrTKjStBCCUkWi0hDG9o6NraODbuh4OhS4/oy9IURRFUc5JKiSaT5a5v6f73xlLNDa2RCKRqW1l0rb7HacfkgMA0eXJThFNIzogpEjb9j4p87peCxBKWSQS4Vy0t+/t6f7/Fi/5ieGuP0MvSFEURVHOVSokmjecZ7r3fYbzsYaG5rKy8qmbpZ3vcpyB6YcJPk7pLPnUsxEiMXVU7tg9kI7uai7kzZeVledyVmdnZ/e+z7Qs/hFlvtN5LYqiKIpyrlMh0fyQ0h458N+5XHtZWXldXX2hvY6UtmPvnxkPARCil5CaUzuLEP0zf3ScAYBqej0hOoC6uvpUKj083D48/NPyig8Q4jrFF6MoiqIo5z4VEs2PTPqVePxRr9fV0tI6leAsuDPkOIOHPVKKYUHdhLhP9hRSmlIOH3aj4wwSYmh6DaARIltalqRSL8Vjvw8E1vsDF5zii1EURVGUc58KieYBd5Lx+O8dZ3jx4qWG4SlsnOd8zHEGCoWnD+UI3k9IEU5qFkfmpZyAtI9ycmeAUD9jpQA1DG9TU8uuXbvj8T94PC2qQayiKIrymqVConmQzbalki9GIsXhcLTQlEOKjOMMSGke/QnSkjIGYhCiFZbYZiWldCCt6erVR9xtOs4AJUFCfQDC4dJIZCiReDFbvDsQvPA0XpaiKIqinMNUSDTXhMimUi85zkBl5WpNMwACCC5igscw21Z7B5JLSUDorK1bBSYbfcxyKCl4jLMxjfoAqmmuysraWGxLKvWyz3+eKt6oKIqivDapRldzLZ8fSSWfLyoqDgRClDJCqJQWdwZnbdNRIAEB6UDmj/1VaPdx3CpGgjtDUlrk/2fvvuMsq+v78b8+5Zxz+52202enbS9soS5FWFCKSokCGtSosWGDWBKjyTc/f/5MYhJCrIlGTDQQQBQiTfxhQKlLcVlge5m20/vM7ad9Pt8/7szsbJlt7M7MhffzMQ9Z7pzzOe+7s8t9+amMcy6i0XhRUXEysclxBk7NmySEEEIKDUWiWaZtuzOb3V1cXG5ZYYADTPljSk0c1qE1TuthU0pN/WJU+WMAA7hlhYuLy7PZ3bbdeRxxihBCCHkTokg0q5RyUsnNpimi0SLOJcA14PsTq8xsWz/1lPvb/3X6+9UpD0a5nH7lFe/XjzmdnRMzuH2/RwManHMZjRaZpkglNyvlnOIHE0IIIYWA5hLNKq3ddOrVUCgaDMX0xMTqnO8P57/b26v+5v/NjAzrjRvlu99lbjjPiMWOOZn62DwPe/d6v/6N++vHnN5edcvngp/6pGAMvj+slcu4oYFQOBYKRdOpV7V2AeuNP5QQQggpLBSJZpVSTiazJxotCwbyo2ZQagSYWCpfVMTOPkve+3P7l/c7L77obbzEuOkma9VKKd7AwaxDQ+rBh50HH3Re3+qn03r1KrFihZg4OASuUiOCRwBYVtgKhMbG9mjlgM6BJYQQ8tZDkWhWOXaP1plAIMSFkX9F+UNT3y0q4n/9V6HL3yH/+fbcq6/5/32P87un3BtvsD79KSscPuEhTq31U0973/tB9rVX/WRKR6PsC18IfOD9VnX1gcij/CEp6zUghBGwQlpnbLtHGiVv/J0SQgghhYXmEs0q224XQlhWCOAMnIEfOIYMAFBcxK643PrFz6N/83+CxcVoa1P/8I/ZizcmHnrYdt3jnV6kNfbv9z/16dT7b0o+/bSXzekrrjAeeTD61b8I1dcLwzhwpVLjGjxfjGWFhBC23X7q3i4hhBBSMKiXaFa57iDn3DAslj/UDNA6dfhl8Tj/zM3Bi99m/Ojfc0897XV2qc9+Pn35O5yPfyywbq0MBGacYKQUenr8B37l3PGTXG+vjoTZihXiwx+2rrrSjEaOcJfWKYABTAPSsDjnrjt4Ct8vIYQQUigoEs0qz08xxrkwNDjAAK31kVd4cY7Vq+Rt/xh+8nfu3ffYzzzrPfSwu2OH/0//GD7/fIPPEIoGBtVtt2d/8UvHcbBsqbjuOvPG6826uhknB2ntABONCWEwxj3/CBGNEEIIedOjgbPZpT0wxphg4ABj4EffoTEQYJdcYmy8xMiPdo2N61RKH2XnIDunR0e15wFA/UJ+7dVGbe3RJ0srhvx22JxBAAzqyMeAEEIIIW9uFIlmF5MTh20wzhgH4zjq+q7WVv+bf5v57vdziYRuaOC3fC541pmSz/xDq6ziH/9YYONGwzTx1NPuV/86+9hvHMc5yiQkgXwZjGtoQDNOHYeEEELeiujzb1ZJEdFa+b7P8psSAYwFjzidyHX1k79zv/+D3KuvebaNCy+QX/5ScO0aGQodbaciy2QbNhgNDeLue3Lf/0Hu6afdln3+1q3mRz8aKF9whCTFWJCB5xOT8pXWWojIKXmnhBBCSGGhXqJZZRgLlPI9z9Fg+aVenEcPvyyRUN//Qe5zt6RfeNHzPHzus4E7fxY9f4Nx9DyUJwXqavmffyn0i59H6+t5Z5f6l+/kPvv51K7d3uE7YjMe1eD5sTPPc5TyDWPBKXmnhBBCSGGhSDSrLKvB933bzk7OJWKMHxRBPB/btnk3fzb9rX/M5nJYt1bcdWfkb/46FA6f2DbWnOO8c42H/if24T+x4nH29NPeDTcm7/m5PT6uD75sAQPLV2LbWd/3Lavhjb9NQgghpODQwNmssqxqxkK5XNr3lRASgBDVnvv61AW7d3sf+nCqp1dVVvB3vtP42J8GmppOfjPpykr+//yf4Pp18r/utLdu87705XRbq//VvwxNzUYSojofi33fy+XSjIUsq/oNvUNCCCGkMFEkmlWMm6HQklyuP5fLhMNxAEKUMxbSOpO/YGxUSwMXni9vvMF6x+VGSfEb7caLRvkN11tLlvB7f+78/il3aOjAgbKMhYQoBxiAXC6Ty6VDoSWMm2/wiYQQQkghokg0qxgzwpG142O/yGTGw+FiAIxZQtR53u78BevWydtvC5eV8cWLhDxFPxzDwFlnGvULxTVXmzXVfOrENCHqGLPyvUSZzHgmk4gXXcGYcbS2CCGEkDcpikSzinMzEj1zcOCuZHK4tHQh5wKQQjZ73j7ABxAKsYsuPC2hZMECvuCgRWdCyGZAAkwpP5kcdhw7Ej2TUy8RIYSQtySaXj3LmGXVBoJLR0e7bTsNMIALUSZk3SzXIWSdEAsADrCcnR4Z7Q4Gl1pWXX4cjRBCCHmroUg020yjIhbbMDral0yOaA2AMRYVYjFYYPaKYAEhFjMWAZjWSCVHxkb7orENplk+ezUQQggh8wlFotnGRSgaPVvKqu7uHZ7n5g/TkLJOisaj72R96ggpGqWsAwTAPc/t7t4pZWUkehbnoVkpgBBCCJl3KBLNgVBoeTR27vBw9/BwZ37sjLGoNFZyXnL6x60Y5yXSWMlYFGAAGx7uHBnpisbOC4dWnOZHE0IIIfMXRaI5IGSspOQqKcv3tWyy7Uw+mghRbZhnsdM8fMZYwDDPEqI6/1Dbzuxr2SREeUnJlULGTuujCSGEkPmMItHcCEfOKCm9KpNO7t79e601wAAh5SLDvOB0/lC4YV4g5SJAAEwrvXv37zPpZHHJVeHIGaftoYQQQkgBoEg0NxgzKio+Egwt7uvb097+Sr7PBtowjNWmdcXpmVQkTOsKw1gNGPnHtXe80te3JxhaXFn5EcZo7T0hhJC3NIpEc4aLcGPj3wtR0tHxcn//bq0VGABmyGVW4J2MxU/dT4czFrcC7zSMZfm5Slqr/v7dHR0vC1HS2Pj3XIRP0YMIIYSQQkWRaC5ZgYb6xq8rFW5p2TQ83KGUDw0wJmWzFbhSyKY3PrWIsYCQTVbgSimb83lIKX94uKOlZZNS4frGr1uBhlPwTgghhJACR5FojsViF1TXfM62zb17nx4c3Ke0Dw2AC1FjWZcYxnlC1J7sOJoQotYwzrOsS4Soyf+slfIHB/ft3fu07ZjVNZ+LxS44pe+GEEIIKVR0oMccY0wUl1wO6L7eO/bsedq203V1axk4AIaYYa4V/kJfdfteu1I9WmePr80g59VCNghRw3nJVPDVWnV1vdbRsdn3o5VVHy8uuZyx2dkJiRBCCJnvKBLNPc5DxSVXChHr7v7uvn3PJRJ9zc0XBoMxMACcizLOS6RoUjqhVJ/v9yh/UOtxQB/cDGMszsUCIao5r+Qsxnh4ei9gNptoaXl2YKCFi6qa2lti8fM5D87uGyWEEELmL6a1nvF7jAHo6OiYxXreurRWuVxrR/vfZNLbQqHixYsvKi9fxLmAnrZ9o1aA0lBae1qntM4BPiAYCzAWYUwyxvPbYU+/Syl/YGDf3r3PZDKjofCq+oZvBAJNjNGYKQGA+vp6AEf57wAhhLxFUCSaX7S2e7r/bWjwl1pny8rqGxrOiUTKpDQZYwdloyPfPD08QUN7npNKDbW3vzQ01MFYsGzB9dU1n2bMOu1vgxQOikSEEJJHkWgeUsnklsGBe9Kp15QaKy2tq6xcFomUWlZEygDnx+jdUUp5Xs62U6nUcF//ruGhTs6LwpE1C8r/OBpdRxPqySEoEhFCSB5FonnK95PJxIvj489m0q9ns22RSFEsVhmJlAUCMdMKGdIS0uRMMAatobTvu47r246dyeUSqdRQItGXSo0Fg42h8Bnx+IXR2LlCROf6PZH5iCIRIYTkUSSa13wvkc3ty2Z2p9NbM+mdjtMtBEwzJKUlpMGZYIxprZX2fc/1PNtxMr4P06wJhZeHw6uDoaXBwCI6vIwcBUUiQgjJo0hUALRWnjfieaOeO5zLddh2h+P0e96o8rMaPoPgIihlsWlWWFZ9IFAvjVIpi6UsoTnU5JgoEhFCSB4twi8AjHHDKDOMMgQXRaJnae0DvtYKwNScasY4IBgTjIljTcMmhBBCyKEoEhUUDSjGFNeaMa0x9f/sGQNjjDFwBj7niUhrraB9DQWoqe4Hxhjy9THB2JxXWRBFEkIImT0UiQqBUl467afT3vi43ddn9/W5w8NeKqWyWfg+hODBoIxEjNJSq7LSqqyU8bgIh2U4jGMtTzu1VXreuOeNe+5ILtdu2+2O3ed5o75Ka+0zJgQPS1lsWpWW1RAINEijRMq4lKfwdNs3TZGEEELmAEWiec3PZp2+vlx3d2bfvkxLi9PXx21bAhIQgDF5mQJ8wAbGAGVZZmVlqLk5tGhRoKbGrKwUwdO7S7Xvp+xcRzbXkkq9mkltte0Ozm1DCiG5EFwIxgANaKVdV+WyyvV8pSzLqg9FVkcia4OBZitQL0SEiiSEEDKHaHr1POVns5l9+1Lbt6d37852dAQ9LwyEgABgAQbApx0G6wMKcAEbyAEZIA1kpQzW14eXLo2sXBlatOh0BCPfT6VTryUSm1LJzZnMrlCQRyKBUMgKBA3LlIYphOBisqfK95WvlOv4tuPlsm4mY6dSuUxWhULLItEzY7EN4cia05E5CqLIOUTTqwkhJI8i0fyjdbatbeTpp1O7dvkDAzHPKwUiQAAwp4/fGAYsi3GulYJtw3XzLyvAAXJAChgGElKK8vLIsmXFb3tbqLER7FRNjtHp9Pbhof9JJl7yvJ543CorjUajwWDQME2D86mnBBgLARLwtM4AuYkilXYcN5t1k8ns0HByfNyWsjoaO6e07LpweNWpm8FTEEXOMYpEhBCSR5FoftGuO/T44yNPP+0NDcVdtxqITk9CnLPiYl5VxRYsYKEQOMfEXo1KZzJ6cFD19urRUSiFyWyUBHqAccOQpaUlF19cdvnlzDCOWsJxFKmc/v67hoce8Ly+eNysqSmLRUOWJSd31uaMV3O+hPOFjMWA/Ao4DfhaJ5XqUGqPVj2AAqCUsm0vkcx0dw+NjztSVpaWvaei8oOMmW+FIucDikSEEJJHkWgecYaGun/609TOnabrNgDlkx/UAMAYKyriK1bwigomJeMcBx1oBgBaKe15qr9f7dihx8by69E04AMDQDvgGEZk+fKaj3zELCs7+SKdnv3t30gmXzIMNDVVV1QUS8HZROcTY6xSGBdz0ZCf6aS1nqwu/938Za7y2333Ka378t/VWnu+6u8fbW3tcV1Eo+csbPgb06x+cxc5T1AkIoSQPIpE84JWKtPS0nPnnXZHR0zrpUBo+rc5Z3V1cvVqYVlHXxeu81OtbdvbulV3dua7i/IywG4gwZhVX1/9oQ+FmpvZCa5H09pPp7d2dvxdLrerqCi6fFljKDT9BFnO+QphXKS11NoF1LScMR0DOGMGY57vPqPUjnxPTH6DpUwmt3NX+9hYMhBYtrD+a6HwasbEkRop7CLnFYpEhBCSR5Fo7mnPS23b1nf//X5HRxXQeHDo4Yzx2lpj1So2bfLLMRoEtFLutm2qq0tN+/lqoA3oBUR9feV73xtZtYrJ411yqLWbSGzq6fqu57XU1FQ0NdXxA9OSlNYu44u42IAT+mRlTPmbtGphTE6NDSqtW1s7u7v7pWyurr0lFtvA2PGO9BVEkfMNRSJCCMmjRfhzTanUjh1999+vOzrqgeppeYjlV9pHIry5eWr29PFgAAOs5mY1NuYmk/5kTwgDGgAT6Ozo6Lv//krOo6tWHc/eRVqrZOLFnq7vad3e1LSwprpyckaO1sr21ZjW0pBNWo+d2HvXAG/y3NcZ8wQvYtwCGGdoaqy3LKujo72n63uo5bHY+cdzMklBFEkIIWTeokg0xzLt7f3334+OjgagfNqCMg4Y+blE5eVw3ROKRFN4ebmZTPqAOznww4EqQAAdHR19998vIpFQU9Oxi8xs7+7+vtbtTU31FRXlQop8V5TvJz2vT/lj0rhIq5yeXKt1Qhir9dxnlEhKWSlEDGBC8urqaiFka2t7T/f3pIyHw6vfHEUSQgiZtygSzSV3ZKT37rvdtraGycnUeVObMQKAaSKbPckHmCYDJMAAD/AAAAIoB3ygva2t9+67F37mM0ZJydGKdPq7Om/z3N2NjY0VFZVS5uvSvjfgel1aZQHNePiEe18mMR4GfOWPuDoLXStkOcCkFBUVlZ6n29r2dHXe1tT0j4ZZUehFEkIImc8oEs0Z7Xm9992X3bu3Bqg8OA+Z06cT2fbJbyZk2/l/isn+p6lUVAnkgO69e3vvu6/u4x+faVKRUk5X1+2Z9Kt1dTU1NTVy8jLP7fS8Tq2difeiEiddpNaJiX+qjOu2a+1Low6AlKKmpiaXy3V2vtrVdXtDw//H+JEXvRdEkYQQQuY5ikRzZvTZZ5NbtoS1bpj2Y5CAdch14+MnNh14ukRi6pdssmVv8kENwJjWyS1bRp95pmTjxiM2MDL80PjYU9FopLl58WTXCzy323XbJsfiAECpHs5Pskileqd+rbXjum2AkEYNACmN5ubFY2Pj42NPDQ8/WLbghsItkhBCyDxHkWhu2H19w08+iWx2xbSfgQCO0MMwNgbDOJkDXJXC2KHjRObkTkUAJLAC+EM2O/y734WXL7cqKw8tMtcxOHAfkF29+kIpjXzXle8NeF7r9KgBQPmdjAdP6mxUpVTXIa94Xitj1tTg1OrVazdtenZw4BfR6DlWoL4QiySEEDL/USSaA9rzxjZtcnp766ftP5SfT32EcR3fx+gogsETS0VKIZuF7x/yMgOMye2LAISABqC9t3ds06byq6+ePnymtTM88qjtdDQ1LQ6FIpOtJjyvTWvvsOc5ym9nrAQntOpKK61HoO1DX9ae57UzHuY8BiAUijQ1LWlt6xgeeaSq6hPT94wuiCIJIYQUBIpEDRRWagAAIABJREFUcyDX3Z3aujVk21PdMmz6fOrD2TZ8/wT6ipSC68I7PBMAgAAk4E6uzK8ABmw7uXVrbN26YEPD1GXZbEty/PlwyKiursv3rGjteF63UukjNqtVSjOPIXi8gUMrjSz0kdd/KZX2vG7DCOWzRXV1XX9/b2L8+aL4xlB4RWEVSQghpCBQJJpt2vPSu3fbXV1N04bJ+FHyUJ7nwfchxLEnCGsN3z/69CMB+JPDZyZQBbR2daX37g3U1uY7irR2UslXcrl9ixc3G0YA4IBWalT5g4eMRh386JyGOzmZ+1ibbOupEo5IKX9QiTIhKgFmGFZNTf3evS2p1JZgaFE+ghREkYQQQgoFbS4327zx8fTOncFcLj75gZzvIpr+k/C1HnCcPdlsRy6XmzqUQ2t43nF9TeahnFIdudyeTGbAcfxpIYlPrszPPz0OBHO59I4d3vh4/gLXHU4mXwyFZHFxmRCSMQ64vt+vZ+gvmV47tANtH+vLOWrUyL/dnO/3AS5jXAhZXFwWCslk8kXXHS6gIgkhhBQK6iWabc7ISGrPnmogMPnK9C6iIcd5MJv1160rW7YsVlLi5HJPtrVlN28+O5k8KxJh+XPvj0Vr/YdU6uVoNHj22RWNjWYgsG1kZGjXLrFly7XBYJlpYrKTJP+BHwCKgJ49e5yREaO0FIDj9KeSr9TWlgeDEUAAWvlp3x847nc5/SDVk+f7g8pPCxkCWDAYKSkp7+p6xXH6TbOqUIokhBBSKCgSzSrt+9nWVp5MRg9eaMYApfWjiUTLZZfd9Gd/Fi0p4UJwzrXWyvd9x3nywQd//JOfvNd1S41jnKU17Lr3S1l1660fvvZaYZpcCMaYUkr5fnJk5K5vf7v5iSfeFYtxxsS0pWdRgCeT2dbWUFMTuMqkt3KejcWKpczvkeT7fh8mJyy7rmYMUp7sbklH/y3SsB1tmWCMQXu+3yfkAg0mpRmLFXPekUlvDYdXApj/RRbuwWeEEPIWRANns0p7XnrPnuC0hWb5UTNb6we0Zl/+8gf/8i+NcBiMmaZpGIZpmoFgMByPv/tDHzr/u999tL6+1/Nm6tnQQK/nPVJXt/Zb37rg3e/2ACFlvh3LsoKhUHlt7Wf//u8Df/VXD2htay2nTaUJAUEgvWeP9jyt3VTqlWAoEgrHNbgGU1r7fn/+ysFBdeMfJ99xReKRR+1USquZJ+2cKMdBS6t/6xdSl2wcf+ABJ98d5vv9SmuAa/BQOB4KRVOpV7R2C6LIU/ZUQgghpx9FolmlPS/b3h7gPGAYMA2YBpPC0/olKY0PfnBbZ+e6devq6uq+8IUvdHd3T7+RMbZqzZrVX/zii3V1qRk+4VNKvVhXF7z22n/90Y8aGhrOOOOMO++803Gc6dcYhnHxNdcU3Xzzi1J6WjMp8mUETCPAeba9XXueUm46vTMYCAcDEYADXKuk1pl8C+MJPTamd+z0P/v5zBe+mH72OXd8/I0eo+44el+L/28/zL73huQ99zpjY7pvYOI9ap3RKpkvIxCIBAKhTHqnUm5BFPmGnkcIIWR2USSaVV4q5Y6MmIIbpoQpYUjBeD8wuGFDLh7/yU9+0tXVlU6n77nnnrvuuuvw29eddZb1nvfsnOHwjZ1S4l3v2tva+vOf/zyZTO7fv//rX//6zp07D7nMNM0zr7pqaMOGfkAwBkPCkIYhTcHdkREvlfK8cc/ts6yQYQQABjDfH5y6valRfO0vg1deYYRDePBh5wtfSn/vB9lXXvFc9yQTR3e3+uX9zp9/Jf1P/5wdHFRr14hPfTLwvhusqaV1vj+YL8MwApYVct0+3xsviCJP7lmEEELmBM0lmlV2X59QKmBabHJKkM45bZFI3VVXbduzJzF5/kY6ne7o6DhiCxddddXPHn747P37D5kjo4GXa2uv27jxiW99K5ebWHKVzWY7OjrWrFlzSCPFxcV1V13VtmXLglxuqpKA0iJn23192hrnnFlWaGrzHq1Gp+7lHO94u7l2jXz0184jv3b/8AfvB/+ae/oZ9+p3mVdcbi5aJI5/R8lEQj/1tPPIo+7vn3LHxnRTk7j87cY115hr10gxbU8CrUbz2Z0xWFaIc5bLtQOY/0VagYXH+xhCCCFzjSLRrHKHhjiDIQUzZH61k691S3n5+9avV1JWVlYODAwAKC4uXr9+/RFbiEQipZddtv/f/q0+EJj++v5crvSyy8rLy5csWVJUVDQ2NgagoqJi5cqVR2xn1fr1Py8vP7OjgxkSADQMz+cM7tCQqhrkXJhmgOU3PwSUSh5y+4IF/AM3Weeeazz+W+e+X9ivvebv2ZN76mn3umvNK680y0qPkThcV29+xbvvF87vn3K7ulQ8zm643rzuWvPss4147NAJ0WpiTAoADDPAuXCcHgAFUSQhhJBCQZFoVnnJJGNMCoHJHgYGOE1NwWBw7dq13/zmN3/84x+PjY3dcMMN119//UyNnHn++S/8wz8cEoleSCTOPP98wzBuvPHGXC73yCOPlJSU3HrrrQ3TNqSeLhgMuk1NrKNjqhIpBWPMSyZ9b5RzLoQ59RmvdfbwFgyDLVsm6moDl7zNuPte+7/vtp951tuxw39+k/elLwSbm2fcezKd1vf+3P7Pn9ltbb7j4Mz14tM3B847zygr5eJIN2mdneiAAaQwOeeuNwqgIIokhBBSKCgSzSrtOAyMC8HExO+85pyXlwOwLOud73znpZdeqrW2LMuYebH9woUL788duhthWy533cKFACoqKm699dZPf/rTjLFgMMiPMkRUVgbOmZzor+LCY2DacbTKgXEupAYDGIMGjnw2CAMiEXbGGXLpUvHeP7I++elUd7d66GHnkouN+noxw5Qn7O9Uv3rI2bPH1xq3fD7wuc8EYrEj54xJHptcG8eFBONa5QAURpGEEEIKBE2vnnUM4Bxi8msaIUQ4HI5EIkfJQ8fDNM1IJBIOh4+Wh6ZMFTPtYgYwMAbOwI75h8T30T+gvveDbG+PEgLLlormZnGU9FBRzteeIUIhMIZ77rGffsZ1nKMvB8vXwME4NIPOv1IYRRJCCCkU1Es0q5hpakAzhgOfxloNHP+GywCwf//+xoNHzQA0BgL79+9fvHjxCTQ0NAToqUo0Y5qBmSbjAa21rzRjfDIDmIBzeANaY2RE/e737j/9c7a1VRUXs0suMT7/mcDKlfIoR7GVlLAvfTFYUcnvvsdpafFv+bPMH7/f+9OPBhrquWke8TYjP4eaAVorQHMe0NDzv8gZWyeEEDL/UCSaVTIa1RoecCAScW62tmaz2WAweJyNbH7++Q2x2CEvnheLbXr++eOPRNls1mhtBedTlXiA1pDRKJc5pZTvuxqMgWmA87BSh6YN19W7dvv3/Nx+4H5ndEwvWybed6P5/hutsrJjd00VFfGbPxlcvUr++I7cc897d95p797tf/Qj1iUXG7HYobczHmbg+dM3fN9TSklZBKAgiiSEEFIoKBLNKqOsTGntas0mR6m4aTYPDGx75ZWzL7jgeFpIpVLDTzyx8LBeooWBwCNPPJF673sjkcjxtLPtlVeaBwaEaerJSjytldZGWZk2DaV817GBiQ4YxouhDposnMvpR3/t3H2P/dLLnpTsmmvMD33A2nDeCYz4SYmL32Ysahb33mf/8n77+U1eV5fautX/wE1WQ8NBA1qcFwMTHTqOYyvlm2Y1gIIokhBCSKGgSDSrrMpKxZjj++D5GTCahUONfQMvPfbYohUriouLj9nCM489dnZX1+EjNww4u6vrmcceu+qGG47ZyOjoaOdjj52TSvHKcsUFoDWQ832fMauyEoFipXQul4FmjDEAglf4aJ26fTyhbrst9+hjTne3amzgH/iAdd01Vl3dycxLq6nhn/5UYNVK8bP/sp95xv33O+zXXvdu+VzwwgsPxBbBK/JThbTWuVxGKR0INAAoiCIJIYQUCopEs0pGIrKkxLZzrtamFAAQCZcDZZs2bX7ssbddf71pmke5fcsf/mA/8MByz8OR5k0v97wnHnhgS2PjurPOOkojjuNsfuyxsk2bygEdieSneLueb3u+UVIiIxEtA9KosO2M6zqmGQQgZA0cNnVu/HPPeT+70/ZcfeEF8rOfCZxzthGJnPxU4lCIXXapuXiRuOtu+8677N8/5UmRPe88OXliKxOyJp82XDdr2xnDqBAyDqAgiiSEEFIoaMXZrGJSBhsacp5n+4oxzjiHFZDBwLmeN/bDHz710EOue+SDsbTW2157bevtt5+zf39khnVkEc7P2b9/6+23b3vttZkWR7mu+9RDD4398Ifnep4MBmBZ+TJsz7c9L9jQwKTk3AiHl+dyqVwunV/XxViMsZKpRlYsF+ecLT//ucC/fj9yycXmG4kaeVKisVH8xZ8Hf/C98AXny4svNoWYaJOxEsZi+TJyuXQulwqFl3NuFESRb/CJhBBCZhP1Es0qJmV4yZKhLVvSjhsLhfIf5Toet3L2e4BH//Zvf/DCCzf92Z9FS0q4EJxzrbXyfd9xfvfQQz133PFezyudeSIMA6oN410dHfffckvbxz526bXXCtPkQjDGlFLK95MjI3d/+9vNTzzxnliMM+bH45AiPwEm7bkZxy1bsoRJCcYjkfX9fc+l02OxWDkAxgxpNLrOcP5BDQ3ivnujjOEoK7ZO+HeGIWCxy99hvv0yc3rL0mhkTOYXtKfTY5lMoqJyPWMGgIIokhBCSKGgSDSrmBDBpiY/GEzkcgsQl4yDQcdjemSUu+7V8fjQ888/+MQT/rp1ZcuWRUtK3Fyuv60tu3nz2cnkuyIRdhwTg0sN4xNa/+E73/nZf/xH8MwzKxobjUAgOTIytGuX2LLlg8FgWTwOQBuGjsfABQBPqUQ25weDwaYmJgQgQuHVSpnj4wMLFjRKaQJCiHqP7Zg6av74zwg7UdNbZiwkRH3+T6nnOePjA0qZofDqfNooiCIJIYQUCopEs80sKQkvXjyya2eNWxoJBQEgGNRFcTY0DK3LTPNjpum3tAzt2jXueRbnl5pmgHNEo8f/CMbY2dHo2UDu5Zf7n3vOViouZZlhiHh86gpdFEcwCC4YQ852RlKpyPIVZsnEwJNpVkQi60ZGtmezK6LRMgCcFwnZ5LnbpybrnH5MyGbOi/K9L9lscmSkKxJdb5oVBVQkIYSQQkFziWabjMcjK1ZkNEbTaQ0wxmAYurhYW9bUNYKxCtNcEgrVBwKBN9DXEeC8PhBYEgpVmKaYNoCkLUsXF8MwGGcKGE2nMxrh5cvlZGYyZGk0dl4mkx0d7VUqX2ZQymbGZ2+vHcaLpGxiLAhwpfToaG8mk41GzzWM0gIqkhBCSKGgSDTbmJThpUutmpqu4WFPKcY54xzRqC4pxlHP0DplhNAlxYhF84/2lOoeHjZrasL5iUT5IrkZia4PBJq7ura5rp0/qoLzKikXYXbGg5gh5SLOq/KPdl27u3u7FWiKRNcxZhZQkYQQQgoFRaI5EKipiaxenfZV19AI4wJcwDBQUaGPb5fFN0hHIrqiAtIAF+Cie3gk5avo6tWB2trplwWDzdH4+elMurt7B8ABxpgl5SrBq07/6V1M8CopVzFm5R/d3b0jnU7G4ucHg4sKrkhCCCEFgSLRHGBSFm3YYFZWtvT0ZBybccY4QzCg6xdq6/T2LmjL1PULWTDAOGecZRx7X3ePWVlZtGEDO/hQeMbM0pJ3WebCltYXMpmx/ApzzuOGeRFjpze6MRYxzIs4j+djTSYz1tL6gmnWl5a++5Del4IokhBCSEGgSDQ3rMrK0o0bYZqv7t3nKQ3GwQSiUb14iZana867llIvWYJoFIyDMU/p1/bug2mWbtxoVVYeochA/YLyG6DN119/xPPcfOAQotwKXAlmHX79qcEsK3ClEOX5x3mu+/prj0CbC8pvsKz6Ai2SEELI/EeRaM4UX3RRdO3aRDqzt7PL0xqcgXMUF+nly3UodCq30wHAmA6F9PJlKCoC5+Dc03pvZ1cinYmuXVt80UUz3Vdaem286OJEYnDfvuc81wEYNBOiLmBdzXjJqR6cYoyXBAJXC1E3ETU8Z1/Lc4nkYLzo4tLSawu6SEIIIfMcRaI5w6Sset/7gosWdQ8MdPUP+BN9RRzFxXrxYl1UdMpmWwuhi4r0ksUoLs4/wle6q3+ge2AguGhR1fvex2bul2LcrK39Yii8pqdnW3fPVs9z8gFDiDrLersQ9cCpmshsCFFvWW8Xoi7/757ndHdv7enZHgqvqa39IuMzjkYVRJGEEELmOYpEc8koKam66SZRW9ve09M7NORrxThjnKOoCIsX6ZpqfdiJ9ydKBwK6phqLF7N4UX7+kK9V79BQe0+PqK2tuukmo6Tk6C0YZkVt3Zel0dTRsbmvb5fnOQDAmBA1pnWxYayZPMvipDHGYoaxxrQuFrwm35TnOX19uzo6Nkujsbbuy8axtvkpiCIJIYTMZ2ymw7CQ3zIH6OjomMV63nqUSm7b1vfLX7K+vsa6urrqajHROaThehgfZwP9GBiEUifcMue6fAHKKxCPY2Lba+37qrOnp62zU1dWVl5/fXTVquPZ41lrlUw83931Ha17GxrOqqtbw7mc/FbW93t9b5fn7QO8Ey4SUspFQi4TooqxYP4lpbzOztfaO/7AWFVNza3R2PmMvUmKnIfq6+sBHOW/A4QQ8hZBkWjuac9Lbd/e98tf+r29C6uqljQ1Mc6hNQAGaMdmmSz6+jA8DNs+rhYtC6WlqKxEKAjD0gz5ppTWe1pb9/f2iqqqiuuvj65ceZQhs0OL1G4isamn67uet7+2ds3ixRcwJgBAA0xrlVF6xHN3+X6r1unjaZCxsBBN0ljGeQljoakuHK39vXuf6+p6TcqF1TW3xOIbjv9kjIIocr6hSEQIIXkUieYFrVS2paX7zjvt/fuL4/Ezli0Lh0IHXaEUXBfj4xgexvg40kf6RA+HEY+jtHSiW+jg7p90JvP67t2jY2PWwoU1H/pQsLmZneC+2Fr7mfTW/R1/l8vtKS6uWbnyilCoePq3wXytc77f4/vtvter9chhB2swxkqErBKiQYhqxgKAmD6elcmMbt/+/4+OdgcCSxbWfy0UXj2Rad5cRc4rFIkIISSPItE84gwNdf/0p6mdOy3OlzQ2VlVUSCHYEZeeKQXbhutCazAGw4BlHXEITGvt+X5vf/+etjZbqcjy5TUf+YhZVnbyRTo9+9u/kUy+ZBjW4sUXVFQsldJiYIdP1NHa1zqldQ7wAcFYgLHIQelBTyQNrbXn2f39u/fufc517Wj0nIUNf2Oa1W/uIucJikSEEJJHkWh+0a479PjjI0895Y2OlkQi9TU1sWg0YJr8xE86U0rlHCeRTHZ0d4+kUrK4uOTii8suv5wZb3SIR2unv++u4aEHPG+gqKiitm5tPFphBSKci6kAMfPN0y7QUNq3c6nxZH9X56tjY/1SlpeWvaei8oNvfLfDgihyPqBIRAgheRSJ5h+tM21to08/ndq1yx8aKo5Gy0tLY5FIKBi0jiMbKaVsx8lks4lUamB4eDSZFGVlkWXLit/2tlBj46nb7kin09uGh36VTLzkeX1FRZULFjRHo+XBYNyywpwfYyBJKd+209nseDI5MDjUMjbaL2VFNHZOadl14fCqU7eTUEEUOccoEhFCSB5FonnKz2Yz+/altm9P796d7egIm2Y0EomEQsFAwLIs0zCkEJxzxpjWWinl+b7jurZtZ3O5VCaTTKXSjhOsrw8vXRpZuTK0aJEIBk99kX4qnXotkdiUSm7OZncHg5FotDwcKg4E41YgYhoBIS3BBBgDtK9837UdN2fbqVx2PJ0ZTSYHstlUMLg0Ej0zFtsQjqwR4tSfwlEQRc4hikSEEJJHkWhe87NZp68v192d2bs309rq9PcL3zeklFIKIRhjDNCA1tr3fc/zXM/zhTArKkJNTaHFiwM1NWZl5ekIQwcV6afsXEc215JKbcmkttp2J+fKMAJSmkIYjE3kNq2V77ue57huTiluWXWhyOpIZF0w0GwF6k93ziiIIucERSJCCMmjSFQIlPLSaT+V8hIJu6/P7utzh4e9REI5DnwfQnDTlLGYUVpqVVZalZUyFhORiAyHj2fPoVNYpeeNe964547kcu223e7Yfa43olRWa48xyXnQkCWmVWlZDYFAgzRKpIxLGZ/d/UILoshZRZGIEELyKBIVFK21UlBKa33o5o2cM8bAOeP8FJ+PdsK01gra11CAmvoDxhgDOAMHE4zxuZ6LUxBFzgaKRIQQkne6Dl0np48GoDW0PuiDXGt95PX6s04DClox5L+mPmoZA2eaM8aBuQ4bGszX3NNMaSittZ5YZMYYOGOcQYLNsP8BIYSQNyeKRAVAK+Unk14y6Y2P2319dn+/NzLipVIql9O+z4TggYCMRGRJiVVRYVVWynhcRqMiGj3RzRjf9EUqrYdz3kjOG8y67Qm7PWH3pp1R20t5yldacBaRvNiSVWGzIWY1xKwFQaMkIEsDklM6IoSQNzuKRPOan8nkurqy+/dnW1uzHR1uf79wHAOQgDHZ1aIBBSggCyQA3zSNiopgfX2wqSm4cGGgtlYcshH2W7LIhOPvGc3uGMm+OpTePpzpSDlZSJgmpAERABNggAJyPjI+BjNwx4Laq4+YK0tDa8vCK0qCS4qDMbOAd6kmhBBydDSXaJ7yM5nUjh3J11/PtLba3d0h348BYcACTEAC/LC04QEOYANpIAFkhLBqakJNTdEzzoisWHE6MkdBFJlw/Od7E7/vSrw6mN47nvOCUcSKEY7CCsK0IA1wgfwErPwMLeXDc+HYsLNIJ5EYldnk4nhg7YLwJbWx86tib7JgRHOJCCEkjyLR/KN1es+eof/938y+fXpsrNj3FwBhwASM6TNwTBOWxYTQvg/bhuNM3A24gAOkgUFgVAhWVBRatKjs7W8PL1lyymZeF0KRSmPzQOpnOwc2D6QHHOUVlWNBNcJRmBYMc+opAY4Qh+DwNTIKOf/Ae4TnwLaRTmCwV44NlJv8zPLwnyxfcFZ5lL9ZRtIoEhFCSB5FovlFu27///zPyO9/rzOZYqUWAuHph45yzkpL+cKFrLKSBYNgbKJvQ2udzeq+PrV/vx4ezi9G04APpIH9wCjnLBQqueSSij/6o1NwoEchFGn7+juv9ty9eyjhab+kHAubEYpBynwS4kC1iWUhNFgsIg5kMK2R8tFuY1dG9ziYWNSnFXwfqQQ6W8TIQEyym5aW3bq22hJvhlhEkYgQQvIoEs0XWim7p6frP/4ju29fEGgEFkzvbuGclZWJlSv5ggXgEz0U047hmvxfpdTgoL99ux4amlqlr4FBoA3IAsFFi2r/9E+t6uqTm9RcEEX6WreM5b7yXMcrQxkEw2hahrJKsImmBEO1ifNjvMaEmLl5X6PbxvMJ1ePAn/orohUG+9C2C9n0+rLQP1xQ31wUEAU+85oiESGE5FEkmheUbSe3bev/5S/9np5SrRuBwPRvGwZvbJRLlgjTZEddva7z/S6O4+3Zo9ra4LpT38oBbcAwY6K6uuL666OrVnHLevMVmfXU092Jf3qle19a6dIKNC5FYGrzbmZyrAqzMyPMmghDRy8TtsLmpN6W0c5El1a+yhzadrORvkUh/ufra95WEwvKAt7IkSIRIYTkUSSae8q2x158cfCRR0RfXw1QM+2DmgGcc9HcLJqbj3ng60FtKuW3tPgtLUqpA30cQDfQDfiVlQve/e6ic889/sBREEVmPPVI2+i/vd7X6knUNKC6fvr+3ZyxNWG2NnJis4A08GpKvZbWavrfFKXQ24Gu9ibpffqMync3FocKNhVRJCKEkDxahD/HtO+Pv/TSwIMPWoOD9UDptKjBAQmIoiJeUzM1Mfk4cYDX1IjhYX9kxMPEnBgGVAMW0NHXN/DggwCKL7iAiWOvnyqIIj2lH20b/d5rvfsRRGMzyiom5jDlW2W83GTNQZZRx2jncM1B3uvqPju/B6UGAMZQtRCG1bq/5Xuv9TLoP2oulW+aGdeEEPKWRJFojiW3bet74AFreLgJKJp2kpYADEAAKCuDbZ9c47ysjI+McMAF8uuoOFAKCKBlcLD/gQdkPB5bs+bNUeQzPYl/2dLTzYJoWoKiUvDJPMQ4mABYtYmcPjD8dUKqTdbnMGgG+BPhjTGUlkOI/a27b9/SWxY0NtbGT6ZpQggh8wNForlk9/V1/+QnfGysASie1vViTF/KLgRyuZN8gBAABJAPHPk5OxwoBhqAvSMj3T/5ifW1r1mVlYVeZOu4/ZXnOvp9gcXNKCmdWELGNCDyeQiAZEh5J1mjnJgrzsAENCbCm2AoKYVq7tm74yvPddx75dKm+InNfCKEEDJ/UCSaMyqb7fzRj/yxsXpgwbTX81v7HJDJ4KTneWSz+X8ywAQY4Ez+6wIgB7SOjXX+6EdNf/EXPBg8YgMFUWTa9b/0bFt/TqFpERZMJad8HjrwJzzpn1wPEQCkpjYrAgOTB1IRY1hQiVy2v3XPl55tu+vyJWGjUCcVEULIWxxFormhPW/wN7/JdXYuAGonX2STXS8HGRsDcDK7F2o9ce+kfMvu5NhRLZAEBvfvH3zssfJrrmHy0D8MBVGk4+sfbxvYMZzFgkrU1k8bGJPT8xCAQQcwT7jAA/dON5GKJjudauuRHN8x3Pfv2/o/u6bSpElFhBBSgCgSzY1MS8vYCy8EHWfRtKEoecSfRzIJKXFYFDg2z0MyechrcnLnaAAMWASkXHfsxRcjK1eGly4txCJfHUo/1DaSC4TQtBSYmj90aB4CMOrD8GCeeFxxNEb9w15lElpDT6ai5qW5VOLhtpELqqLnVEZO+BmEEELmGkWiOeCn02MvvOAPDi6a1m0hAHnEfXKUwvg4AgEIcbzdMFrD95HLTW2EOIUBElCTE5lNoBHYNTg49sILgdpaEQ4XVpHjjv9w20g5ChtAAAAgAElEQVRnxsPiZTBN6PzEZ5Gf830IX2PIRVjAOJFU5Gqk/Wm7NR5EAAraBwDDRP2izr3bHm4bWVocjFtvqnPQCCHkrYAi0RzIdnSkduwo9rziyVfY5CGpR+Z5yGQg5XEFjnzU8LzDo0Yenwwc+U/5IqDY8xI7dmTb2yMrVxZWkduGM8/1JJ14KYqLJ6/lYHJqr+pDuBpJHwaDYEfbpXGiRsDXcPVMeQhgHJDQamINWnGJU1T6XO/4lSOZC6qix2qeEELI/EKRaLapXC69c6ff31857Xf/yN0aB92m4DhgbOLM9pnkz3I/1kzn/OPyQz4SqARG+/vTu3eHFi3K74tYEEVmXPVib7I97WFZ1YExO8aPEtsA+BpKI7+/Npth+pPWE1tsH8eafQ7GoRWgIQQqqtp3Db/Yl1y3IFy4mzcSQshbE0Wi2eaOjia3b48pFZ4cgWLTRqM0oLR2Get0nAHXDXHeFAiE2eTnfL5z5TjkOy7SWrfmchmlKgyj1jQNrTljbPKJPqABBoSBmFLJbduKNmywqqoKpci+jPNsb9KPxRGJgOXryncRHaMD6KCg8wY3bWbTymRAOOLH4s/2JK9rKmmKB459OyGEkHmDItHs0toeGMh1dFQCUzvYTPW+jPl+dyDwTDSKc86pWbmyrKxsNJu9f9++1MsvL9+/f00uVwLIY33ee1qPAK8FAjsXLoycfXbj4sWBQGDn0ND/bt+Ol166KJmsyeWKhJjeB2MBRUB7R4c9MJDf/mf+F6nBOpL2tpEsFlbCMA9sKs1mfRIPE9B8YkaRaaKoeNv+to6k3RgLFPiBsIQQ8tZCkWhWac/L7NljuW7k4D2gNbDf97fU1fGrr/7wddcFp2/Ac+ml+hOf2PLSS0/ee+/y119f6rqBmc8Ryym12zB2nnHGkve///PnnMOmfyZffXU2m/3tr3617+GH13Z2LhRiKm1wIAJYrpvZsye6YgWA+V+kw8XL/SlbmgiHwdlEXxI7dHOAWcIktAtocIZwxJbmy/2p86uilqCxM0IIKRj0n+xZpTwvvXdvgLEg5xAcgjPOBNDpeZtXrnSvump3V9dtt932xBNPeN6BjZYZY+vPPXfjV77SccUVOw3Dm2EWjqf1TsPYedFFzpo1v/7tb7/97W+3trZOvyAYDL7rxhuXfuUrm1eu3O95AmCc5csIch5gLL13r/K8gijSVXrzQBrBIALBA0Nhs99FlDfxXA1oBIMIBjcPpF31BsfkCCGEzCrqJZpV2nVznZ1Rzi1j4nde+H7CyW2rrRWXXHLXffc9/vjjtm2vX7/+G9/4xhVXXDH93orKyvM/+tHfDA1Vv/RSxZEaH2Zs2/r1Tk3Nd//lX3bu3GlZ1vPPP//DH/6wtLR06hohxOJVq/yPf3z7bbcVdXUFgpYnJAALsFwv0dmpXRfA/C/SZnLnSAbFC2BZE6NmXBxhfwClYGfg2jADsIIzrUQ7Gq3hOsilwAWCEYgj/pVhgDgwdmaaO0fGbV9H5qjTihBCyEmgXqJZ5QwN6UwmIIQ0JDMlMyQHGwwGc5deOpLNvvDCC+l02vO8LVu2PProo4ffXrZgwYaPf/x3M+yI+DspV95449bt27dt2+a6biqVeuqpp1588cVDLhNCLF27NnfppYPBIAdjhmSGlIYMCKEzGWdoqCCK7Eo6CU/DCoDzyV6iaV1EWqO/A//1t/jyFfjUubj5PHzqXHzlGtz/PSSGZ/75HCw5it/eja+/H586Bzefh5vPw62X4kdfRfuOIyyXm+qg4hyWlfB0V/Ikz8ElhBAyJygSzSqnr08AphQwDEgDhuH53qvh8IarrxZC6GkftHqGgafmJUu6zz5bHfZdpXX32WcvXrYMgJphs58pUsoNV1/9ajjs+QqGkf8ypRCA09dXEEW2J2zNOUzjwJqxqR4g5eOxn+JjZ+GOv8Yf/hftO9HdgrYdeOFRfOcW3LwBmx6d2NRxJlqj5XX8n+vxzQ/hd/eh5XV0t2D/Hrz+DP77W/jEWbj7Hw5dVcemkpmGaWrO2xMUiQghpJBQJJpV7tgYZ8yQgkmZ/9Jgw/X1VVVVl1566YUXXlhcXByNRtetW3f99dfP1Mj6yy9/6bBDMF5KJtdffnk0Gn3HO96xfv36WCxWUlJyySWXXHzxxUdspKqqaqShQQNMSmZIJqUhBWfMHRsriCL7sy44hxTT9g8SAODk8NC/40dfRXIEpdVY8zZc+0m870u4+uNYfi6KFqB7H779eTx5H1zniA8FgPbt+KdPYsvvEI5h0Rpc+WG870u4/vM49ypUNsD38KOv4ntfQCYx7Z5plUgBzvuz7oztE0IImX9oLtGs8jMZxpgQ+S2eAYAxxhsaANTW1t5+++2PPvpoIpG47LLLzjzzzJkaWb169X3J5Hmx2PQXX0kmb1y9GsAVV1xRUlLy7LPPxuPx66+/Pjzt+ItDsPp6tnXrVCVCSMaYn8nkq5rnRSYdD4yBi2k7CzFohR0v4qEfYWwAqy7An3wN6y+DMXkeSS6DZx/Evbdh7xb84juoWYSlZx5hEyPHxp1/hx0voqoRf/RZXPkniJdNXOY62PUyfvFtPPMrPPZT1C3GdZ+enF3EDlTCBRhLOt6hLRNCCJnHKBLNLqUAMMGZmJh6ohljk4Ggrq7u5ptvPmYbsVhszDv043bM8+LxOPLjTRs2bNiw4djFBINgjMmJSlh+xfjkeNY8L9LNx4/8Do1Tv04n8cJjaNuO+uX47G1Yce5BTQVCuOz9iJbgO5/H7j/gxd+gYTkCh6WxbZvw1AOIleKaT+GaTyI07WgOw8TqC1BWjcQwtvweT9yLc65E3eKJp0/sjTQxydujBWeEEFJQaOBsdnEOBnAGKSa+AJ1On1AbiUSi6LDJy0VSjo+Pn1gx2SygwcXEF2NggBAFUeTE0a06fzCIBjS0huciNQYrhGtvxqK1R2iNMZxxAa78MAwLowM4LLQBwGg/tMaqDbjsfQfloSlVjfjYNxEpRjaF1OjEi9PL0ArHsV8lIYSQeYV6iWaVCIW0hs8YDnTAQLW3n1AjW7duXR899KN6fTS6devWjRs3Hn87uqNDMzbVFeRzpjVEMIj8mRzzu8ioKSfOSpt2LSLFeN8X8fab0LwapnXEBhEI4+pPYNnZqGpAKHKEC869Et96GFWNqFg4Y1krzsXfPwjfRdOqA0+fohS0jppztEkSIYSQk0K9RLNKFhUpaE+DcZ7/4kKUdnT09vYefyOvPP74OYeljXOi0Vcef/z4G+nt7S1pb+dCMMHzX56GgpZFRQVRZEXQgFJw3QOTmrUHIVC3BGvfhmjxjI0yhuJynHM56paAHym1ROI453LULT7aJkZC4IwLsW4jrNDEK9o7UInrQqmKIO1KRAghhYQi0ayyKit9Dcf3wTm4AOcyFFqbTm96+GHviIM4h2nZs6fm5Zf5YYMynLGal19u2bPneBrxPG/Tww+vTadlKDQ1JuX4ytewKisLosiGmMWUguMcFInm0PRI5DhMqYbYDN1UhBBC5iWKRLPKLCtjwWDO8xVj+fnLOhIuy2YDTz65+9VX/WMdID80OLjpjjs2zpBLNnrepjvuGBocPHojvu/vfvXVwJNPlmWzOhLO974ohpznsWDQLCsriCJro1ZMMtj2gf2B9MyL6mfBxNM1fB+OHZOsNkqRiBBCCglFolnFDCNQV2f7vu0rcA7OEQrGA4GVXV2777hj77ZtRwkc/X19z/3nf67cvLl0hg0SS7VeuXnzc//5n/19fTM14vv+3m3bdt9xx8qurngggFAoX4b9f9l78/i4r/Le/3PO+W6zSyNptFirZclrEicmcZwVEpI4kEBSQku5vRC2hJZCLwUuLbeXLr/etiktLYUutLlwKbSEEhqyEhIC2SDEwY6TON7kRYu1SyPN/t3OOb8/vqOxvEiWFXkRPe+XXnnZo++c85kZR9+Pnuc5z8OFw7nV0kJ0fVmINBlZmwzDdeE4kEFRs1ceqXH2kRzCg5SQgOPAcdcmwyZT5dUKhUKxnFDl1WcVqmmRrq7coUNFz49YFgig6yIWbfV9vP76znvu2X/rrTccN2QekFK+vG3b/pkh89ocQ+Y1QtZ6Hv3hD38yPNz9nvdcfNyQeSAYMi8ffnjTwECrpolYFLoWXFP0/aLrxbq6qKYBOP9F6pRsSkV+vn8Kto2QBQBSQDhg4ZPue2YRDiDKFda2Ddve1FqtU2WJFAqFYjmhLNFZhWhauLt74oc/zDlOTTxGKYWUsrqKTGfaGEsMDAx+7Wvf+O53cdllK9avr6mpsW2798CB/Esvre3vv862k8BcViPAonS97zfu2PHK7t1fbm2NXnpp+6pVlmVNTk4Ovv46tm27OpdbYdtVjIEQWV0VHGsXUuRtxwHqu7uJpgE4/0UaIJfWR83dY06hgEQclAASwgYLnWT465lFQtiAAAAhUSiYvndpfdSY901QKBQKxfmGskRnF0LMVMpqbZ0aG21MJkNB555wWMZjJJOtYizheWsmJ73HHx946KFRz6umdJNlRQihwInVyidFIyQFXO84b+npKezff8i2C0Ks0fUbDEOXks4caJfxGMJhMEYAx/GnCgWrtdVMpYI2zee/SAK0xcz1ydCOTBa1SVgWICFdCAfUWuSnsziEA7jlEJHrIJPdkAy3xUzVlkihUCiWF8oSnW306uro+vXp3t6844RCFgFgWiKZpPkC4ZwAjBAGdBlGl2GccrW5oAAFEoRcPDu9NXOXlhoTySQsk0giCfKOM1Us1WzYoCeTy0hkQ9i4qin+yq4xXizCNAACcIgiiDHf+fmlRQqIIoRfHuhRLLJc/qoNqYbI4t8WhUKhUJwTVGz/bEMtK7p2LaurG5xM+0KAUjCKRFxWV51k3taZgBBZVYVEHJSBUV+Iock0q6uLrF5NTXMZiQzr9PKGWHtEx+gE/Jkz8MKGKB3TOPEMIiFKEHb5z76P0Ym2iL65PhrW1P9ZCoVCscxQP7jPAaG2tui6dZOFQjqXJ4QSQmFaSKVkOHTqJ79hZDiEVAqmFWydzucnioXounWh9vZlJ3JDTfjKppiRzWI6O9OdiIPnIc7KFHrhgecheXnr6ayRzV7VGNtQM+cUW4VCoVCctyhLdA5gkUjV5ZezmpqewSGX+0GHaMTjsqlJ6me25bHUddnUhHg82NTl/oEjQyxZU3X55ezYcfTLQmTCYLd2JFvCOgaGjrZtlC549owfyJccPAs5s6nrYWCoJazf2pFMmGqUh0KhUCw/lCU6N4Q7O6s2by76/p6+fkkIKAVjqK2Vba3yjGWmJCGyrRW1tcFsV0nInr7+gu9Xbd4c7uxcpiI31kZu7UharoPeIzOzVwVEEXwac/RGWgqVEnwaolg+ey8legcsx7m1o3pjSoWIFAqFYlmiLNG5gWha3c03Wy0to5Pp3pGRckdETUNDg+zukmfg/LakVHZ3oaEBmhZs1zsyMjqZtlpa6m6+mZwwtX65iDQYuWtD/drqECanMTRWbtsIAT8HbyIYSr/UKgW8Cfg5SFHebmgMk9Nrk6G7NjQYqh2RQqFQLE+UJTpn0FCo5e67aTx+eHBoZDItQUAIKEN9g1yzRlrWkhUyEyItS65Zg/p6UAZCJcjI5OThwSEaj7fcfTcNzVketCxERnT6xas76i2GoVFMTpe7SAMQefjjkN7SVVtLSA/eOERhJkknMTmNodF6i33x6o6Irv6HUigUiuWK+gl+LjEbGlZ86EM8EjnY3z+ZyUgExcQUdXVYu0bW1OBkcZHTQ9NkTQ3WriV1taCUUCKAyUzmYP8Aj0RWfOhDZkPDL4HIlQnznivbmnSCIyPIZCF42QbxItxx8OIShIukKK8miuXFhUAmiyMjTTq558q2lQk11EyhUCiWMUTOXW8RTFHo6+s7i3r+yyE5n/rpT8ceeihcKnW2taVqa2ilp45jY3yCjI8jk1lMWQwhMpFAXR3q6jBzcF1IMTYxebCvrxQKpd7xjqorrwyaIv4SiPSFfOBg+u9eGe6XDCtSSMaPRrAIA42ARUCtRfW2lhA2eAGicLRqWwqkcxgcayX8Exc13t6Z1JZnyqytrQ3APD8HFAqF4r8IqlXjOYYwVrV5M4DxRx7Zd+iQ47qtK1YQQgEJK0Sam2V1NclkMDmJTAbews6W6zoSCdTUkERCRiKBMyCAkHJgaLj3yBEvHq+75ZbE5s0LsRrLRaRGyds7qiXwj6+NHOofhuehPll2RdIHz0KUQC3QMKgFsrBDYZJD2BBFCPuYBJyUGE1jeKJDJ791YcPbO6qXqR9SKBQKRQUVJTovEI6T37Vr5P77xfh4qqZm9cqVIWvWVAop4TiwbWSzyGSQy6FUOskqoRBiMSQSiMdhWTDN2YU+Jdved/jw2MQEratruOOO6IYNlZ6Hv0wiS754djD7hR2DBwq+rI6hpR7m7JYBBISBaCAmaAjEBNGOL4eSEtKHdCBKkA6kP9N5aAbHw8AomcqtimifuWTFNSvioeXcmFFFiRQKhSJAWaLzBSmEMzR05GtfKx08GAmFVnd21tfVHT8yLDjfJCU4h+PA8yAlCIGuwzTBGAgpf81CSDk6Pr7v4MFCqRTq7Gz+4AfNpiayqPNiy0Ikl/LgtP3Zn/btmCjCMtBaj2T8hHRZ8HcKAESbGS4iAAE50wh75vUc89LSOfSPwnYvqQ3fc2VbZ5XFlvkwM2WJFAqFIkBZovML6XmjDzyQfvpp6Th11dUrW1tjkYjGGDn9+66U0uc8Vygc6u8fn5oippl885vrb7+dvOFGi8tCpMPll3YO/fu+iawveCKKphqELTC6sCNy8piSIynBBYo2hiZZJh/X6HtX1/7OxiaTLW8zFKAskUKhUAQoS3T+IWVh//6JH/2oeOCAzOVqq6oaU6lYJGIahq7rpxw1L6T0PM9x3VyhMDw2NjE9TWKx8KpVtW99a6S7e8nOzC8HkULiF2O5f90zvn2sMOb4fjyKmjjCJgwNGjv1LlLC53B9FB1MZrVsPmVqm1KR962te1Mq9ktTO6QskUKhUAQoS3SewovF/O7duVdfLR06ZA8OxkKhRDwei0Qs0zQNQ9c0xhidySsJITjnnu87rms7Tq5QyGSzuVLJWrEitHJl7MILo+vWsXD4v6bIrMt/Npx7+khm50SxZ7rkWwaiIYRNGDo0Bo2BUQQGRwJSQgj4HB6H66HoIF/SbLerKrSxNvzm5sQVjbG48Us1r0NZIoVCoQhQlui8hheL9pEjpf7+0qFDpd5eb3xck1LX9YrbIMEAixm34XmeT4heVxdqbw+tXBlqbbWam8+Ez1h2IrMu3z9V2p0u7RwvvJ4u9uXdEgBNg0ZBZywRABFYIgHfDwFtUWN9MryxLrIuGequDv2SmaEAZYkUCoUiQFmiZYAUgudyfi7nZzLOyIgzOuql034uJx1HCkEoJaapxWJ6MmnW15sNDVoiocViLBZbXHnyL7FIIeWk7adtf7zk92bt3qwzXHTTtl/0BJeSERLWadLSGsNGe9xsj1t1IS1paTWWdspU4PJFWSKFQqEIUJZoWSGlFEIKgeC/lc+OEEIpKC3Pqz+39+/lIFICXEhfSiEhpAxGgBCAEFBCKIFGCPsl9kGzUJZIoVAoAs54q0YppZhF8EhgtugsFnFYaal1CsCXkkspZp3BJsGdnBAGaISc6/YzBKASRIDx8nDTMhREAgAhi2nOvKRIQjihPiWCMEHncBvn/PNWKBQKheJYzpQlEkLkcrl8Pj89PT06Ojo2NpZOp/P5vG3bQghKqWVZ0Wg0mUymUqn6+vqqqqpoNBqLxehZTKMAkvO876V9f9pxhmznsOsM+96kz7NSOgAIMTUW1/Qaw2y0zA7TbNK0Kk1PMhZd1FyIxaqUwvenfD/teZOO3ec4fa476nvTQhQkOAGjNKLpVYZRb5ptptWm6zWaltS06rPp4WblpLzerNObdYYL7pTj533BhWSURDVabWqNkSAnZdaF9LOfk1oWIhUKhUJxTlj6xFmxWBwcHBwYGDh06FBfX9/ExISu67FYLBQKGYah6zohRErpeZ7ruqVSKZfLeZ5XW1vb2tra2dnZ0tKyYsWK8BkuthXCcZz+UnFfobi7WNhtl3qkzBmGpmuUaUejVlJKwQXnwvOF6/qExKxQVziyLhJeFwqvNs1WSs/spE/uZ0v2gVJxX6HwWrGwx3WPMObpOtM0GhQuExAJKYTkXPi+8DzOuW4YzeHI2kjkglB4dchaxbT4GRV5tHJ5ovD6ZFC5rMEwoOlgDIShXF/NITh8D54bkn5b1FhfE95Ye5Yql5eFyHOCSpwpFApFwFJaomKxuGfPntdee+3QoUPDw8P19fXt7e1NTU3JZDKwRKZpzrZEjuMEliidTg8NDfX29o6OjjY2Nq5cufKCCy5Yu3btmTBGUvJC4dXM9DP5/E671KOxUixuxaKWFTJMQ9N1xhhljFQsEeeSc+F53HF9u+Tm8nYua/s8ZIW6otGNiaprI5ELyQIHZp0OnOey2RezmecLhVft0qFIRIvHQ5GIZVmaoWuazhijlBBCgmPjkgvhe9z1fNv2CwU7my0VCr4VWhmJXBhPXBWPb2YstuQisy7/2XD26SPZneOFnozth2KIVyMSgxmCYULTQRmCsqHgcHvgNlwHTgmFHLJTWinXlbA21kXe3By/ojF+JjzHshB5DlGWSKFQKAKWxhJJKXt6ep566qkDBw7Ytr1mzZpNmzY1NTXF4/FIJMJmxnYSQio1JFLKytac80KhkM1mh4aGtm/fvnfvXsuyVq1adf3113d1dS1h2Ylj94+OfiOX3eZ5I5EIqa+vqkpETEs3dI0d7USsExIBgpHpJSkLgDejU7qe79jedKYwOjpdKEhdb4jFL6tveL9pti6VSEDmczvGxr5dyL8ixGQyGa5PJSIRyzQ1TWP0aIvAMCERQAN8KQtAMXhUCOn73HH8QsEeHcuk00VKayLRi+pSvx6LXVweYfGGERLbx/Lf2DO2faww5gq/KoW6JkRiMEzoRqV02qIIUzAKLlEUsGemyENK+C4cB4Usxoe16bGUQZe8C+KyEHnOUZZIoVAoApbAEnme9+CDDz7zzDOe561fv/7GG29sbGy0LKtSFcQY03Vd1/Xj6oSEEJ7neZ7HOa88Ytv28PDwE0888frrr+u6fu21177zne/U3/gMCuFNTDwwMvwvnj8RCWvt7Q01ydgxDoPEKdtAaTel9YAxUyokAVeIUSH2C74LMjujU/o+n0znentHCkVf12obGj9SW3c7IW9cpzM09I8T4/dLWaipibS21seiFmOV8nNGaAtlGyhdSUh8lr8RUuaEOCj4LikGAI5yiEvk8nZ//+jkZIGQSG3dHU0rfpOQN5rsmzUrQ/JkCq2dCMehleenUqDJwJow2k0SndUjWkrkOXod7C3KIXemMlwKcI58FgMHWXosrpGlmpWxLESeDyhLpFAoFAFvyBIJIYaGhr7+9a/39vamUqnbbrtt48aNlZgQAE3TLMvSNK1yrOy4KFFwDM33fdu2fd+vPJFzvnPnzu9///tjY2Pt7e0f+MAHmpqaFlt5LRxneHjoK1PpJyjl7e2Nra0pdvR3fAJEmH4V0y4BdEBIKWad5AJACQlmgnrc38G954FCZRQoF7K/f6y3d0gIrTp5Y2PTb5tm4+IiMVIK2z7U1/v5YuG1cNjq7FxRV5eYVdWrEdqs6dcS2gpQoHIyrvwqCKEAA4QU/b73jBRHgPL7KaQcH88cPDhYLNrhyAVt7X9iWSsXV3l9zETVUAQr16C2ATNLMYImA1fE6QoDbO7lucSgg59lxZALfnS4qsD4CA7vRanwBieqLguR5w/KEikUCkXA4i2R67q7du363ve+l8vlLrzwwne84x3JZLLyXUqpaZpBSfXsqQ4nEjQ1DkqtHccJDuoHpNPphx566NVXX43FYu9617s2bNhgGMZpvTwpvUL+1eGhfyoWt1dXRTo7W2Kx0KzvM0JamX4tEJXSA2abjOMgACVEAwrce0bK/tkX53LFgwePTE0XwuFNjU0fjUQvPN1wkRClbOZng4N/J3h/bW31yo7mUGj2CgZlF1K2CWBS+sc6tuMIRHLBtwv+KuBVRJZK7qHDgxMTU5S1rljxiXjiCkpDc69zEkq+eHYw+4UdgwcKQtbUo2M1rMoKxKDYECGbosQsf9TzGAUJwBHYnpO7itIVOPq22zYO7yPpkVVh+plLVlyzIh7STs+6LQuR5xXKEikUCkXAIi2R4zjbtm177LHHAFx33XXXXHPN7IIhwzAsy4pEIgtvOBREjAqFgm3bruvOLjN69tlnf/zjHwN429vedtlll5nmQvM+UvJs5rnhoa9yf39jU6q1pcEwjJkbmxDSIaSZsc3A6TkDoMT5i1IOUmJW7qmu6/UPjAwPjTGtu7Hp7nji6oXXXAtRnEr/cGT4XsbGWlqamlfUExIcf4KUXEqbso2UXYTTumkRIvgrgu8kxKookRJHBkcHBoY4TzU0frg6eROlCy1gL/rikcNT//jqyCFfw4p2NLVhls2lhFwUIRujp1dgI4GdefFKQYrZL00IDPfhSO9Kzf/NCxtu6agOL9hwLAuR5xvKEikUCkXAYvoScc5feumlRx55JBwOb9269aKLLqr4IV3XLcsKgkPBIwv/UUspjcVipmmWSiXbtj3PA8AYu/rqq+Px+OOPP/7II48QQrZs2TI7NzcP2czzg0e+BAy0d7Q0NtTpevnFCulyf0JKyvQaAQdwT+/1Q0rUcH+vIBmm1VJiADBN1t7WbJpmX1/P4JEvSZCqqmsXthafSj8xPPRV08x0dHTU1SaD8iYJCJHn/gRINdWahJw+TY0AaeLiZcghptVSGiEghKB5RaNpmocPDwwPfVWC1NTcuhDr5gv56OGpL78y3I8QOjpRW18+nwUABISmDNIZIsV5oldz0Bmiw44Xz+YAACAASURBVJ4ccSQw0+eaEDS2QjcP9R/88ivDBPL2zhptATZmWYhUKBQKxXnLYizRrl27HnjggWg0etttt61evVrTNACEEMuywuHwiWXUpydI0yKRiGEYxWLRtm0ppaZpF110kWVZ//mf//nAAw/EYrGLLrrolOvk8zsG+v8CGOvqWplK1Wpa+cYvRM7z+oXIM7qKQJciswiRBDpg+fyAkFldb6U0BkA3WFNTo6bpPT2HjvT/habFotFLTrlUNvuzocG/N83cqlWdyWRi5q0T3J/w/WEpirpxgZSFORN680Jps+fuEzKvaY2aVgsQykhdXS1jek/PweHBr+h6MpG45pTrPDeU/ZuXhwZJCCu7UVUDOmM1CAVhAGkyYMu5s47z0mSQEZdAEoCXc4KEoCYFxvoP7fviy8O1If0tzYlfDpEKhUKhOG857cTZyMjIPffcQwj5tV/7tdnF1NFoNMiUAXiDHaiDcqIgj5bP54MHOeevvPLKfffdJ6X87Gc/29DQMM8KrnOkZ/9vuW7v6tVdK1Ycrcvm/pjnHZTSA8C09Uy7YLFNqCX3X+P+6wAI0XW9k2mpivjBwaF9+3oMo72r+x8Ms3meVRy7d9/eDzKWWb26O5Wqm0kySs/r9/0jkByAbr6NkEXea6XMeM5jAECYpjXremvweqWUY2Pj+/bt5zyxes3XTKt9nkUOZZz3PL5vlDN0rSuHXsptDVlgNQBcFkN4sZ95UWBbrqwXkgfH5QL1mBhFz+56xu/bunplYr6E6bIQeX6iEmcKhUIRcHpRItu277333kKhcPvtt2/atKnyeNB/qPLXyhSzRVD50Rzk0QghuVwOAGPskksumZycfOCBB+69995Pf/rTlmWddAXOiwP99zhOX1tba0tLpV2Q9L1BzzuEoweri1KkF9unR0hRnBHsue5+XfqavgIglNKWltZSyenr6xvov6dj5T2Unbxeh/PC4UOf43yio2NVfX3F4UnPPej7g0d34lOUnn6yJ3huJQYmue/1Qfq6sSrwuvX1DaWSc+DAgcOHPte9+l8oi5x0hYLHP/X84VFbYOUq1B0VCTCQo/94cnxxwRcAyFf6AIGAaJAoGw5CUNcAuzR6aP+nnj/8rRu7I/rJP6xlIVKhUCgU5zmnYYl833/88ccHBgY2bdp0/fXXBw8SQoL40JmRh2g0CiCfzwdW6frrr+/v79+xY8fjjz9+yy23BDm72UjpTY7fn8/vqKmp6erqLgeBJPf9Yd/vm31WS8opIcYIObmvmh8pbSmnZj0gfL8PoJrWCMIAdHV15/PF6ekdExPfrUu998QDaFJ6YyPfKJX21dc3tLW1zwRvPN/rne2HAAjRT0jLIkQCEOLI7L/6/iBANb090NPW1p7L5UdH942O/r+Gxo8QcvxpPpfLf9k1tnuyhLoGNLfNyjlps60GgHEXOL2zgMc+dzZlwzHTkaG5DbnM7smRf941+rGLGowT6nWWhUiFQqFQnP+chiU6ePDgiy++WFdXd8cddwSpKEJIOBw+0Q+9kSD8ic+NRCJCiGKxKKWklN5xxx1Hjhx58cUX165du3r16uMuLhb3TqYfMwx/9eqNM4XDkvNJ3x8I8mWzNsoJOUJRjdPt0COFkFNS5o5dzfP9AUIMptUDlBC5evWal1/ePjn5g0j0kkjkguPWKORfTacfC4eN7u61MzoF94d9f+iE3UYFtRZh3aS0pRw97kHfHyLE1PQWQCNEdnevyeVeSk/+IBbbHI296biLd04UHjqctq0wVq4GKqU5x1sNAFMcug/j9J2AKzHFT3iUaJAScsZwdK6289mHD6evbIxd1hBdjiIVCoVCcf6zUEtUKBS2bduWy+V+4zd+I5Eol7aYphkOh0+aI1tc7uykXiowXpxz27YBJBKJW2655Zvf/Oa2bduam5tnGzLO89NTT7nO4a6uleFw+bYkRNb3j0hZOmFhLsWEIC5I+HQqiiRkUcrs0WqSo+JLvn+E0CilcYCGw9G2ts6engPTUz+yrPbZI8a4n02nf+D7o6tXrzPNUBDY4HzC9wdPXBbwBT9CSBVOiOLMK9OVchrHusDy5v4goVHGUgA1zXBnZ/frr+9Opx8PhbpnD4jNuPzhw+mBoo+uNTAMyKCmmAEnOaHGJSY8RBj00/nMPYkCn9UI8RgYIIJqKugG2lYN9Ox6+HB6dXUoYR4VsCxEKhQKhWJZsFBL1NfXt3v37jVr1qxdu7b8TE0LhUInpq4qBP5m4X2J5lOpaaFQyPf9oMP1mjVr1qxZs3v37k2bNq1bt65ymV06kMk8W1UVqa1NEcIAKaXn+0NCZOfY1ZdyGqQEGAvRKaUEXEhnrmaJQmR9f0jXw4SYhNDa2tT4+Ehm+rlE1Vui0Y2Vy4rFPbnsizU11clkXVDMJEXB9weltOfY2JFyEsQkRFuAe5NS+pDO0bTO8d+2fX+QkjihEQDJZKqmZjiTebFYvTsWv7xy2a7J4k+Hcm6iBtXVM9koCqLNFVTzJHIcOgEjC5AIcAlPzmU1AEIBDZVO4tVJt6rmp8OZrenilY1HzeWyEKlQKBSKZcGCckaO4+zbty+TyWzZsiWYTh/0Y1xI10S5ME65jmmahlE2LuFweMuWLZlMZv/+/Y7jBBcIUcrntrtOb319s2VFAApQKbLcH5q33bOALEHmpMhJWZzvS+Qgc5Cl+Vfj/pAUuaDbtWWF6+ubXbe3kNshhD2js5jLveT7g01NrZpmBh8BF5OCT857QNyHLEqRkzI/r868FDnI4lx+CAAgBZ/kYgIAQDXNaGpq9f3BXO4XYqZmvOiJF4dzvQUfDY2ouN7yYJM54RKOQImjxGFzOOIkXzYvX+CIua1GGTrjbCQYQ31jb8F/cSRX9MUyEqlQKBSK5cKCLNHU1NTu3bs7OzubmpoCU0IpDYVCSzij/pQQQkKhUKWGqampqbOz8/XXX5+aKpc5e95kJvNcPB5PJKop1QihgPT8vnnNQQUBcEh3vq9KQ5pT4Ht+LyAJoZRqiUR1PB7PZJ71vMCCwHXHctkXqqqqY7EEpYwQKqVzKt8WELQK9OfV6c87luTo6+X+sJQOIZRSFoslqqqqc9kXXHcs+PZI0X1+OMfjCUSjIACRIAREw6k+cVl+K+EDnjzJlz/zPp7aBVd2JAAFIlEeTzw/lBspuMtIpEKhUCiWC6e2RFLKsbGxgYGB7u7u6urq4EFd10933NgbxzAMXS8f3aquru7u7h4YGBgbG5NSAtJ1BovFXVVVNeFwMCKeCpETfHzmVZzePIzTZfb6gk8IkQs0hMPxqqqaYnGX6wwCEpCOM1Aq7auuTplmEMoigk8LMXV2dFYmyAkxJfh0EM0yzUh1dapU2uc4A0F6sC/n7EqXUFUN3ZjRRLDgESVLBmEALQswDFRV70qX+nJO8MD5L1KhUCgUy4hTWyLf9/fv3x+LxZqbmyuNqkOh050LtjRUQlOapjU3N8fj8f379/u+L6WXy72k6zQeTzKmB3bE9/qC3/M9Dy/v9H/4hNvbx8/EjSqXky/83PvJ0+7EROA4pO/1AVSCMqbH40ldp7ncS1J6Qrj53HbDYLFYFaUaQCXAefmUmePIZ57xnvyROzoqllynbcsdO/zHfuAODJQruDkfkoAEpVSLxaoMg+Vz24VwXSFeGs07moFIBLQ8bQ2nOch2ySgfHJOgBJGooxkvjeZdIZaFyHMjRqFQKBSL4tTl1b7vHzhwoK6uLpUqN2imlJ79EFGAYRiUUs45gFQqVVdXd+DAAd/3GZP5/MuWFY5EqmTg86THefkIenpK/NM/28895226RLt5q/HW6/VUii5J0s915S+2+48+6v7kaY8x8rnfD229ySAEnI9KyUF0CUSiVZYVKeRfltKXUhTyO8PhWCgcl+XCapvzyWC14WHx+T8upiflW96i3fJ2Y8vlejy+BCp9Hz09/mOPe4/9wB0eFp/47dDddzFCwPmkFB6hugTCkXg4HCvkd0rpeULbPlZAKAQrNJM7OhfRl4CZTgoAEAohFNo+VvCEBHD+i1THzhQKhWIZcWpL5HnewMDAxo0bZ2fN3uDIjkVDKdV1PbBE1dXVVVVVO3fu9DxP10WxuLe2Jh4KRcsFyzxdmecajZALNrCfPu898aS3fYf/5I+0d99hvvlaPRJZvOEQAj09/Dv/4fzoKa/nAGcU112nt7ZUnJbLeZppjQBCVtQ0rcnJvUK4UopicX8sVhsqF4BDiDRQPipfVUUufZN233ec+7/nvvii/5Y36+99r7lhvbawKbcnZ2JCPPiw++CD7quv8UJBXrCBrVvHZkR6QqQZjQIwzYhphaen90vhOtzcky6iug6mWU7jUXaSk25CwCnCc2BYMEOn3d4JgJTwXNh5UIZQFOyk/xoJwMoH3Q0DhrEnnXG4BOT5LzJ6joJWCoVCoVgEp7ZEExMTvu9XV1dXIkPnKkRU2T1oUGQYRnV1te/7ExMTDfW2FHnLamRaWZsQk5WnRCLkA++3Ln2T9ndftp/6sff4D71fbPfffK1+913WurWLMRzptLj/e86/3+ceOiRKJdnURD7x8dDbthqp1NE7rhSTBE0SYJphWREhhlxnSEohZdGywpSV75aCT1SeUlVF/+B/hW+8QfvrL9o7X+H/9m33J894v/pu8zfvNiOR076XSymfedb/8t+XXtnJc3kZi5FPftL6b+8xm5qOvmDBJzStTQKM6ZYZlrLoOENHSh1ZX8K0QOlMAIbNXhdj/fjht7DzaUwMwXehm6hvx+abcMN7Ea9ZkLjcFH7+Azz/IPr3wimCMlSlcMGVuOm/o23t8fXRhM2cr6cwzawvj+QcAOe/yBprMWOVFQqFQnFOOPWP7LGxMV3XK+0ZAczTi+gsMHv3RCKh6/rY2FhVIk0pM80ImamOOm7EfTRKLt+sX3ap9sSPvP/zf4r79ovv/If75JPehz5ofvSjVjy2UMPh+/jpz7w/v6f48stcCIRCuPsu61OftKqrj1+Bi4w2I8Y0I5Qy2+4FBGPMNMNAeeiDOFZndRW56Ubz8s36N//N+eo/24cPi3v+snTffc7n/3fo5q2GvrAmg1JiYID/6Z8VH3rY4xyGgZtu0j/32dDq1dpx93EhMkH+jgCmGWaMOU5vb7ZJUgpDP3riqhJcERyP/yv+4X8iGzg5Uh6uevh1/PxRfO/L+Pjf4PKb5wvGSIlDr+HLn8TLT890ViSQQP8+vPoc7v8S7vw83vMZzDaqhB5VYhiS0t6sA+D8F3lR3ZkadKNQKBSKJefU5mZqakrTtKAdUfk5s0yJ7/vT09NBB8XKmfxKnyFCCGMsMC5zre95XiaTmb3CcW2KNE2rqqqqbDp793A4rGna1NSU541TSnXdLA8LA4TMn7gXpWTrjcYlF2vf+pbzvQec/n7xhb+2H3zY/Z2Ph657i15bO58xcl25Zw//53vtBx9yfR/JJLlii3b3XdamS/STxpmkzAPBPHboukkp9bxxQAQ6yYxOeTKdiQT9rY+Grr1G/+o/28886w8cER/7eOHGG9wPf8i6eKNmWXMaIyEwNMT/8/vuvf/XHh6W0QhZt469//3mzVuNWPSkTcbLIiWgzYgcLXmgFBqbdQidAYBr47Gv4+t/jFwaNU1oXoX2tQjFUMjgwKsYPoTBA/jbj+OuP8M1vwJ9jlBi7+v4wl3Ysw2RBBrasGojqurguxjoQd8eTAziq7+P8SHc9acIx2ftPqNEY6B0tOQBWB4iFQqFQrFMOLUlKpVKjLHZybLZ7Yi2bdt27733Tk9PYw5LlEgkPvzhD2/evJmdzDhwzl966aXjVjjOElVVVX34wx++4oorTtzdMAzGWKlU4jxHCGWaITFT6CrnbAyTqqOf+Hjo+uv07/yH88hjXk+P+OSnCu9/n/lHnw8bc0/AeukX/sc+nh8clKEQueZq7VffbdzwVj2RmCfS4M6EggjTDEIo5zkZ9CtiugQFCCDlHDopxQUbtL/6y8iPf+L9+7ed5573H3rY272bf+EvI1dcoc81V3RsXPzVF0vfvd91XaxZzW67zfjVO4yWljlTg/KoSDCmE0J9ns+5PggBne02CKTA7hfx0FcxPYYNV+J9n8Ml1x+1FHYRzz+I+/4KPS/ju1/CilVYvekk/YFcB9/8M+x+EY0duP1j2Po+JGrLl3ku9r6E7/4tnvs+fvD/0NKF235zpnCHHFVCGQjJuT6A5SFSoVAoFMuEU1sizjkhZHY99WxTsnv37ieeeCKbnWNiBhAKha699tpLL730pJZICNHT0/Poo4+WSifOICsTj8e3bNlyUktEKSWEcM6l9EFACCUg8mimZE40DWvXsbe+Vf/5i/7ICDjH6KjkJ44Xm0U6LfN5ADANXHIxu+aaef0QAMhKFi/4g5QcECCEEEZAZ3TOd1Tbssib36wPD4ufv+gDmM7IfF5CzjnVw7Hl1JT0fQBoa6XvvFVvbp6/VErMEskAAuF7M+e3AFk5y4VCDj//AQ6/jra1+NhfYd3mY4WGcf17EEviSx/Hvl/gxcfRvhbWCWmjXS/gmf9EvAbvuBvvuAvhWVMvdAMXXInaJmQn8fLTeOo+XLYVLV3l3cvDXMsv3J/RdZ6LVCgUCsUy4tSWiDEmpRSzmqzMHum6devWRCJRKBTmenokErn88svnKj/SNO266677yle+Mv8KW7Zsmb175c9CCCmlpmmEaJCABEglgDKfFZiaEg983/32d5x9+zljuONdxoc/aM2TkAJw9VX6534/9Pf/YB85Iv7t2+74hPzgnebatdrcZ+9YpVoluGkTokmIk+mc04sdOsTv/Zr96GNeNivb2+kH77TetGmeHdHQSD/8Ictx8dxz3jPPer//B/jA+823Xq/PHf06TqQkVCsXLElxtGuklPA95KdhhvHOj2LVxpOsRAguvBJb349v/TmmxuCfLEYyNQopsWELrv+1Y6xGhcYOfOhP8Xu3opRHfuro7oHrkQgqezQyY3nPd5EKhUKhWDac2hKFQiHOueseze/MNiXNzc2/8iu/Ms+QsqCcaJ7vtrS0NDU1LXyF2Ve6rss5tyyLsZiUknOOSts+YkEWT1xNShw4yL/4N6WnfuxNT8uWFvqZT4VuvMGorj7FeJKqKvLfft3cdIn2pS+XfvAD7zv/4b78sv/bH7NuveXkVc+EWEEoCIDgQkrJWBQQUgrOeTluBBASOmk5kefJH//E+8rf2ztf8R0HV12pffpToY0XaeHwfCpNg2zZore3s3//tv2Vv7effdY7eIC/9prxgQ9YqbqTOClCQieKjBkapMQxnQYlotX4td/FW9+LzgtgzDHbzorg1o9gzaVobEc4epILNm/FXzyMxg7Ut875GtZtxp8/CO5h5Yaju1cQAlLGDAZgeYhUKBQKxTLh1JYoOOheLB61F77vz/Yo8zieBXJaK/izfrMvFotBgwBdl1Jyz3OCSVcAKI1zkT7uuVLKJ57wPvu54uCgoBQ33KD/4R+Eu7rYAn+fN01y0YXa3/51dNMl9pe/Yr+2i3/s44Xnfur/yR+GYiecWSM0Lsv+THqeIyXX9TpACMF935Uz+RVKY5wfb4myWfF/v+b8wz/Z09NS0/DbH7M+9cnQArsoaQwtzfQznwpfe43+if9ROHxY/M2X7F/s8P+/Pw6v7j4+ckFobEYkfN8Vgut6XX1IhxDwvKO3eemDmWjpRkv3fHsTguoULrtxzguiifm+G8AYLrzqmEekf1SJ50GI+pAOYHmIVCgUCsUy4dSHz1OpVHAorPKI553LozSzd89kMp7npVIpy2rnXDhOkYAGozgprZ39LM7R28c/89ni+z+YHx0V7e30c78f+vKXIt3dC/VDFeJxcvdHQv/y1ei112iGQb71Lefmt2ef/JFbKBwT6KK0loAENcCOU+RcWFa7abZzzh2nVNFJaN3sZ/kcu3b5H/1Y4S/+smTbuHgj+9Y3o5//g/DpdpWkFJdv1h96IP7+95mJBHn2Wf/dv5r79necTOY4kXUzIonjlDjnptneHjeJEHBdlJN8EvKcVgqX3YYEJFyXCNEeN5eFyHOpR6FQKBSnyamjRLW1tcFBd9d1g3Nns5NoZ5/K7q7rBg0CamtrDVMQGimVCr7PNU0HwNgKD7+oPGvgCP/0ZwrPPe+Hw+Tqq7QP3GledaW+wDY/J6JpuPoqvaOdfeNf7Qcfcvf3iN/9dOH3/mfovb9uVQwWYysCx+n7XqlUoDRimE2QgpCwbRc4F4xpABhr8r1XKyvv2+f/9/fnh4ZFQz1929v0D33QWrly8UG4hgb6h/87dMnF2r9+03ltl/+pTxcOH+K//3vhSjUSY00zzb592y4QEjbNpmbNjGsk4zjgvNx6R7rAuWuxUz6UJ8EFXCeukeaYCWBZiFQoFArFcuHUlkjX9ZaWlunp6ampqfr6egCe53HO33i+bBFwzitRoqmpqenp6ZaWFl3XKZXh8BrX7S+V8rFYEgBjdYREK2U6hbwUgmxYz269xXjXrxjNzacdHDqR5mb6qd8Nbdqk3fcdp+eAyGSklOXD2oREGasLUmOlUt51i+HwGkoNKUU43G3bo7ZdjEQSABhLERKWM2VP01NS03HVFdqvvtu84UY9eUIHyNMlFqPvvsPs7qb3fcd9+hlvYuLoQFlCwoylApG2XbTtQjjcTahhgqxNhn9uu3AclOf7epD83EwQkxxiJjvmOHDctcmwyQiAZSFSoVAoFMuFU1siTdNWrVq1bdu2sbGxwBJJKR3Hmd288azhOE6lvHpsbGx8fPyyyy7TNI0QGY1ePJXenc9PxWJByowyrdP3XgkuXrWK/a/PhQBsWM9Mc8nuVZZFtt5krF+nDQzw9g52NPqidQJa4Dby+alSKV+dvJgQDZCR6MbM9HeLxUwkUg2AEJOxFt/fFzzx4ou1L/5VpLaWdq1iS9UkXNfxpk16Wyt7x63GiiZasbKMtRBiBlGiYjFTLGYTVTcRouuUbEpFfr5/CraNkAUAUkA4YOfgE4dwAFF2G7YN297UWh30ZVoWIhUKhUKxXDh1EELTtO7u7mw2e+TIkaC0WUpp2/Y8Z8TOELP39X3/yJEj2Wy2u7tb0zRC9FjsUs/zstlxzv2gOYyur614PtMkmy7RNl2iLaEfqtDSQq+4Qm9qrLyZmq6vBShAOOfZ7LjnebHYpYTolBrR2CbXdXK5SSEEQACNaZ2VlgHhMLn6Kn3tmiXzQxXq6ug1V+udnZUgCqv4NiFELjfpuk40tolSw6D00vqo6XsoFCCCO72AsOdv9XRmkBB22W0IgULB9L1L66MGpctC5FlXolAoFIrFc+qf2oSQVCrV3Ny8f//+qalyFxbf9x3HOcPajsdxnMpxs6mpqf3797e0tKRSKUIIQAyzKRRen8mMFIvZwBJRmtD0rrMsEoCmd1GaCDQUi5npzEg4vMEwVwSPmGazFVo9NTXoOAWAAJSxWqa1nGWRTGthrC7wbbZTSE8NhkKrTbMl6IXZFjPXJ0PIZOEGn7KEdCHO9icO4QAzBdSug0x2QzLcFjMJwbIQqVAoFIplxIJ+ka2qqlq/fv3BgweHhoaCIA3n3LZtIebrvLy0CCFs2+acA5BSDg0NHTx4cP369dXV1cEFul6bSFyTyYxnMmNSBg2edU1bT8hZLbklJKJpGwAdIFLKTGYsmxmPJ67W9fIJOEOvj8e3TE2N5HJpGXRwJDHGukCss6jSYqyLkChApEQ+l56eGonFtxhGKvh+Q9i4qinOcnkUi5BBe0kOUSzPQD07SAFRhPCDUXAoFlkuf1VTrCFiLCORCoVCoVguLMgSWZa1evXqRCLxwgsvVBoUOY5z1tJnQcqsEpcqFosvvPBCIpHo7u42zfK5HkpDsdgmw2wbGemx7cJMoKhG0wODcnbQNX0DpTUABahtF0ZGegyjLRrbRGnZ8VAWjsUu1bTGwcHdvu8FV2pai8Y65u+4vXQwjXVoWgvAAOr73uDgHk1riMbeRGm5ECes08sbYu0RHaMT8GeOlwsbonS2MlMSogRhl//s+xidaIvom+ujYY0uI5EKhUKhWC4s9Ad3W1vbunXr9u7du2fPnuARIUSpVPJPOhJhqfF9v1QqVYJSe/fu3bt377p169ra2mZfZoVWJRLXTE+PT0z0zQRgLE1bzbSWhb/SNwBlWoumrSbEDEJEExN9mcx4ourqUKhz9nXh8NpYfPPk5ODk5ECQOyMkpunrKU3OOb1sySCUJjV9PSGxwDVOTg6k00di8csj4XWzr9tQE76yKWZks5jOzjT+4eB5iLPSlUp44HlIXt56Omtks1c1xjbUHBPzWxYiFQqFQrEsWKhRiEQimzdvjsVijzzySKVto+u6+Xz+TKfPhBD5fL7SjiiTyTzyyCOxWOyyyy6LRI659zAWraq+3jDbe3u3F4vZoFCG0mpdv4TSujPsNgildbp+CaXVM1VE2d7e7brRXlX9VsaOGZXFtHgyebOmpQ4cfMFxisH1jDXpxpvIGU6fEWLpxpsYawo2dZzigYMvMJZKJrcyLT77yoTBbu1ItoR1DAwd7YgoXfAs5LwDct84koNnISsFOh4GhlrC+q0dyYR5TCBtWYhUKBQKxbLgNGInK1eu3Lx58/j4+P3331+xQY7jZLPZM5c+k1Jms9lKykwIcf/994+NjW3evLmzs/PE68PhNTU1b3McsXfvT2YqiihjTbpxOSHxE69fKgiJ68blM50PiRRy796fOI5IJm8Oh9eceH0kemGy5uZiIbdv39MzOpmmrdKNK89kQIvqxpWatgpggch9+54uFnLVyZsj0QtPvHpjbeTWjqTlOug9MjPWVEAUwadx5hKmUoJPQxTLZ7ikRO+A5Ti3dlRvTJ0k+rIsRCoUCoXi/Oc07r6apm3durW5uXn79u1PPfVU8KCUslQqZYI2hUuNlDKTyZRKpcriTz311Pbt25ubm7du3aqd7Jw6IXpt3tVH7wAADOlJREFU7R2R6MUTE7379z8HEEgCaJq20rRuAAktuUgAICHTukHTVs70IiL7e56bmOiNRC+uq3s3ISepZCJEr6+/MxTuGhnZ39u7I3gWpK7rFxjmTWemqIgZ5k26fkFQ+g2Q3r4dIyP7Q+GuhoY7CTlJObDByF0b6tdWhzA5jaExSAkpAQE/B2/ijFQxSwFvAn6uPOJeSgyNYXJ6bTJ014YG42SdfpaFSIVCoVCc/5xeQMKyrI985CORSOTJJ5/csWNHcP4LQKlUmp6eXtq6It/3p6enS6VS8FfO+Y4dO5588slIJPKRj3zEsuZMMFEWbm39rGm29fVtHxh4WZQTKITR1pB1B6V1S2o4GKV1odAdjLUGiTkh+MDAy319202zrbX1s3TuzoGURTo6/pyxZF/fS6Oj+6QUIACIrq0xrbcRkli6cBElJGFab9P1NYFIKcXo6L6+vpcYS3Z0/DllcwY2Ijr94tUd9RbD0CgmpyFluXBZ5OGPQ86auvpGkZAevHGIwkz+S2JyGkOj9Rb74tUdEX3Od2NZiFQoFArFec5p/wRvaGi48847CSGPPvro3r17KzbItu3p6eklOZkfnLcPVgse8X1/7969jz76KCHkzjvvbGhomH8Fw2xu6/gjXW88cPCFkZG9vu8CAAFldVbodk3fMFNc/EYghMQ0fYMVup3OjG71fXdkZO/Bgy/oemNbxx8ZZvP8S5hWe1vHHwkROXjwhcnJPiE4JECIpnWa1lamrXzjpUWEWExbaVpbNa2zYtomJ/sOHnxBiEhbxx+ZVvv8K6xMmPdc2dakExwZQSYLwcsOgxfhjoMvxaF3KcqriWJ5cSGQyeLISJNO7rmybWXiFPPCloVIhUKhUJzPkHkSXoQQAH19fcc9zjl/4YUXHn744XA4vHXr1osuuqiSw2KMWZZlmqZhGOT0e9VJKV3XDY73V0JQvu+/8sorjz/+eLFYvPXWW7ds2bLA8WqZ6WcGj/wtIePt7Zc2Nq7V9dDMLi7nvb7fI/iAlIs4sE0ICVHWomldjLUTYkACBJ5XGh7e09v7kpR1K5r/R6Lq2oW9ZJ6efHh46KuW5a1ceXld3SpKWODWpMz63gHOD3A+DCyiWJgx1sjYKk1fVamjEoKPjx84dOjntqM3Nt6drLmVLGAomC/kAwfTf/fKcL9kWJFCMo7Kh0sYaAQsAmotymVKCBu8AFE4WhAtBdI5DI61Ev6Jixpv70xqC8hGLQuR5yHBsc2z34xeoVAozjcWY4kAOI6zbdu2xx57DMB11113zTXXzLYpmqYZhmGapq7rC7QvwTxXx3Fc152dgOOcP/fcc0899ZSU8u1vf/tll11WaUR0SqTk2cxzw0Nf5bx3xYoNra2bTDMCBBZISpnnYpj7/Zz3SZlZ4JqEJBhrY1orY41Bq8PADzlOob9/++DgLsbaG5vujieuXojVCBCiOJX+4cjwvYzl2to2tbRsJISWdRIheJqLQe73CjEkZWlhIkOUNjGtnbEVlCYrsUApxcDAzr6+7ZzH6hs/nEzeVGlEdEqKvnjk8NQ/vjZyyJVorEV98qjhAAHRQS3QMKi10MGrkkPYEEUI+5jclpQYTWN4okMnv3Vh/S0dyYX3+FkWIs83lCVSKBSKgEVaIgCu6+7atet73/teLpe78MIL3/GOdySTydkXMMYYY7quG4ahaRpj7Li4kZSSc+77vuu6nudxziuRoYB0Ov3QQw+9+uqrsVjsXe961/r16xfuh2a28Ar5V4eH/qlU2lld3dTVdU0sljpGAWwpC0JMcn5E8FEhpoATJ0KYlFZTVs9YM6U1hEQIOSbYkMuN9fQ8OzU1FAptbGz6aCR64UlLqudBiFI287PBwb8TfDiV6uzsvCoUmnU+TgopC0JmhRjhfEjwcSkzJwS3CCEJyuoYa6K0gZI4oZHZidFSKXvw4PNjYwcpa1yx4hPxxBWUnl6xeckXzw5mv7Bj8EDBl9UxtNTDnP0yCQgD0UBM0BCICaLhuEihlJA+pANRgnQg/ZmmPjM4HgZGyVRuVUT7zCUrrlkRD52m1VgWIs8rlCVSKBSKgMVbIgBCiKGhoa9//eu9vb2pVOq2227buHHjiWGhYB1CCKWUzszCFEIIIYLdT9TAOd+5c+f3v//9sbGx9vb2D3zgA01NTXSRczSF4wwPD31lKv0kpbKzc0tr6ybGjjutJiGFhAC4lCUpi1K6AAgxCAkTEgIYITQ4YB+EhWZ0+v392w8efEEIUp28obHpt02zcXFl0VIK2z7U1/v5YmFXOFzd1XV1KrWKUjZ7O0gBCAkhpS9lXkob4AAjxCIkSog2I5LOfpYQfGzsQE/Pc8XiVDiyoa39TyxrZTkQdZpwKQ9O25/9ad+OiSIsA631SMZPyEQFf6cAQLSyHghAQM70mJ55PbNfP9I59I/Cdi+pDd9zZVtnlcUWNSdsWYg8f1CWSKFQKALekCUK8DzvwQcffOaZZ3zfX7du3Y033tjY2GhZ1iIcjBDCcZyhoaEnnnhi9+7dmqZde+2173znO3X9jU7kkNKbGH9gZPhfPH8iGqnuWLm5Jtmu6+bxnmNBa0FI7nnOZLr38KEX84UpXattaPxIbd3tpxscOplOZ2jwHyfG75eyVFvb1t5+WTRaq2kGIeTUOo8xT5CQvu/m8xO9vdsmJvoICdXW3dG04jcJeaNVwA6XX9o59O/7JrK+4IkommoQtsDo8eGWU6sMGvwIFG0MTbJMPq7R966u/Z2NTSZ7oz5jWYg8H1CWSKFQKAKWwBIBkFL29PQ89dRTBw4csG17zZo1mzZtampqSiQS4XD4lOVEnPNisZjJZIaGhrZv3753717LslatWnX99dd3dXUtokx7Lhynf3TkG7nsNs8bjUYTDQ1rqqqaLCtuGOET4kYn1em7btG2s9PTQyMje/P5rK6nYvHL6hveb5qtSyUSELncy+Nj3y7kXxFiuqampaFhTTRaY5pRTTu10RRC+L7tOPl8fnJkdO/kxAClVZHoRXWpX4/FLl6qg/1C4hdjuX/dM759rDDm+H48ipo4wiYMDRo7te2QEj6H66PoYDKrZfMpU9uUirxvbd2bUrGlKlNeFiLPOcoSKRQKRcDSWKKAYrG4Z8+e11577dChQ8PDw/X19R0dHY2NjclkMhaLhUIh0zQ1TaOUCiF833ccp1Qq5XK5dDo9PDx8+PDh0dHRxsbGlStXXnDBBWvXrg2HF1r8u3Ck5IXCq5npZwr5naVSj6bJeLw+Hk+FrIRhRnTd0jSDUY1QCkBKERQ7eZ7tOoWSnclmx7LZUd8noVBXJLoxUXVtJHLhwiupFw7nuVz2xUzm+WLh1VLpcDRaFY83RKO1lhU3zLCumUwzKGGEQEoIybnnetxxnaJtZ/P5iWx2JJ+fDoU6wpELE4mrYvHNxw0VWRKyLv/ZcO7pI5mdE8We6ZJvGYiGEDZh6NAYNAZGEXiHYFC8EPA5PA7XQ9FBvqTZbldVaGNt+M3NiSsaY3Fj6d/JZSHyHKIskUKhUAQspSUKKBaLg4ODAwMDhw4d6uvrm5yc1HU9Go0GlogxFlgiznlgifL5vOd5NTU1bW1tK1eubGlpWbFixZkwQ7MRwnGc/lJxX6G4u1h43S4dhCzqZljXLE0zKNMooQCEFCKwRL7tOUWQsBXqDEfWR8LrQuHVptlK6ZltRcP9bMk+UCruKxReKxb2uO4gYzCMsKaZTNMpYYQQKaWQnPue7zuuW+QchrEiHFkbiVwQCq8OWauOG1625GRdvn+qtDtd2jleeD1d7Mu7JQCaBo2CzrgNBEVQAr6A74eAtqixPhneWBdZlwx1V4fOtM9YFiLPCcoSKRQKRcDSW6IAIUQul8vlctlsdnR0dHR0NJ1O53I513U554wxwzBisVgymfz/27ublsiBIADDVenOx4gJOirBvej+/x+1elFkdRQRJx/dXXsIyBx2Vwiawd33OeYQ6vjSVNNt27Zt2zRNXdd1Xc/doZ7HYnwZx00MT0N/s+1/DP1tGO9jfEnWi0impXOHPj8tyvNV+b0ovzl/lOdr5w4//8n6nSkthbAJ4TGMD1133ffXw3AXwmOKW5Oo4jK38v64KNqyvKiqC5+feH/s/XreDvU8yeyhC5su/NyGq+fu6rm/fR02XXgdUzRzqgd5tq78+UFx2ZSXTXW28uvKn1Q+W3A9+UsMuTCSCAAmn5VEb8ws7Zi+TH/OdnzgwtDcOZNIMItmaefCkU5X5VSdiF+yMP7AzKJZFJnmlLdFYNVMxKk6Vbdkrv1mRJGYLJhNV+Om1zVURFUy1UzFq7p9J8aXGHIZJBEATN5PIgD/PJIIAPZ+7AEAALB/fzslAgAA+E9wSgQAAEASAQAAkEQAAABCEgEAAAhJBAAAICQRAACAkEQAAABCEgEAAIjIL4QyHRImt47YAAAAAElFTkSuQmCC;" parent="1" vertex="1">
          <mxGeometry x="30" y="40" width="642.57" height="880" as="geometry" />
        </mxCell>
        <mxCell id="cKSOxROYp1qDdP5C8qVP-3" value="&lt;font face=&quot;Hiragino Kaku Gothic ProN&quot; style=&quot;font-size: 36px;&quot;&gt;①&lt;/font&gt;" style="text;html=1;align=center;verticalAlign=middle;whiteSpace=wrap;rounded=0;fontFamily=Hiragino Kaku Gothic ProN W3;" parent="1" vertex="1">
          <mxGeometry width="50" height="60" as="geometry" />
        </mxCell>
        <mxCell id="cKSOxROYp1qDdP5C8qVP-5" value="&lt;font face=&quot;Hiragino Kaku Gothic ProN&quot; style=&quot;font-size: 36px;&quot;&gt;②&lt;/font&gt;" style="text;html=1;align=center;verticalAlign=middle;whiteSpace=wrap;rounded=0;fontFamily=Hiragino Kaku Gothic ProN W3;" parent="1" vertex="1">
          <mxGeometry x="80" y="110" width="50" height="60" as="geometry" />
        </mxCell>
        <mxCell id="cKSOxROYp1qDdP5C8qVP-6" value="&lt;font face=&quot;Hiragino Kaku Gothic ProN&quot; style=&quot;font-size: 36px;&quot;&gt;③&lt;/font&gt;" style="text;html=1;align=center;verticalAlign=middle;whiteSpace=wrap;rounded=0;fontFamily=Hiragino Kaku Gothic ProN W3;" parent="1" vertex="1">
          <mxGeometry x="20" y="260" width="50" height="60" as="geometry" />
        </mxCell>
        <mxCell id="cKSOxROYp1qDdP5C8qVP-7" value="&lt;font face=&quot;Hiragino Kaku Gothic ProN&quot; style=&quot;font-size: 36px;&quot;&gt;④&lt;/font&gt;" style="text;html=1;align=center;verticalAlign=middle;whiteSpace=wrap;rounded=0;fontFamily=Hiragino Kaku Gothic ProN W3;" parent="1" vertex="1">
          <mxGeometry x="310" y="253" width="50" height="60" as="geometry" />
        </mxCell>
        <mxCell id="cKSOxROYp1qDdP5C8qVP-8" value="" style="rounded=0;whiteSpace=wrap;html=1;fillColor=none;dashed=1;" parent="1" vertex="1">
          <mxGeometry x="327.28" y="308" width="50" height="240" as="geometry" />
        </mxCell>
        <mxCell id="cKSOxROYp1qDdP5C8qVP-9" value="" style="shape=card;whiteSpace=wrap;html=1;direction=south;fillColor=none;dashed=1;" parent="1" vertex="1">
          <mxGeometry x="388" y="127" width="290" height="380" as="geometry" />
        </mxCell>
        <mxCell id="cKSOxROYp1qDdP5C8qVP-10" value="&lt;font face=&quot;Hiragino Kaku Gothic ProN&quot; style=&quot;font-size: 36px;&quot;&gt;⑤&lt;/font&gt;" style="text;html=1;align=center;verticalAlign=middle;whiteSpace=wrap;rounded=0;fontFamily=Hiragino Kaku Gothic ProN W3;" parent="1" vertex="1">
          <mxGeometry x="660" y="90" width="50" height="60" as="geometry" />
        </mxCell>
        <mxCell id="cKSOxROYp1qDdP5C8qVP-11" value="&lt;font face=&quot;Hiragino Kaku Gothic ProN&quot; style=&quot;font-size: 36px;&quot;&gt;⑥&lt;/font&gt;" style="text;html=1;align=center;verticalAlign=middle;whiteSpace=wrap;rounded=0;fontFamily=Hiragino Kaku Gothic ProN W3;" parent="1" vertex="1">
          <mxGeometry x="600" y="585" width="50" height="60" as="geometry" />
        </mxCell>
        <mxCell id="cKSOxROYp1qDdP5C8qVP-12" value="&lt;font face=&quot;Hiragino Kaku Gothic ProN&quot; style=&quot;font-size: 36px;&quot;&gt;① クリア条件&lt;/font&gt;&lt;div&gt;&lt;font face=&quot;Hiragino Kaku Gothic ProN&quot;&gt;&lt;span style=&quot;font-size: 36px;&quot;&gt;② 操作している組ぷよ&lt;/span&gt;&lt;/font&gt;&lt;/div&gt;&lt;div&gt;&lt;font face=&quot;Hiragino Kaku Gothic ProN&quot;&gt;&lt;span style=&quot;font-size: 36px;&quot;&gt;③ フィールド&lt;/span&gt;&lt;/font&gt;&lt;/div&gt;&lt;div&gt;&lt;font face=&quot;Hiragino Kaku Gothic ProN&quot;&gt;&lt;span style=&quot;font-size: 36px;&quot;&gt;④ 次・その次に降ってくる組ぷよ&lt;/span&gt;&lt;/font&gt;&lt;/div&gt;&lt;div&gt;&lt;font face=&quot;Hiragino Kaku Gothic ProN&quot;&gt;&lt;span style=&quot;font-size: 36px;&quot;&gt;⑤ 操作パネル（下図参照）&lt;/span&gt;&lt;/font&gt;&lt;/div&gt;&lt;div&gt;&lt;font face=&quot;Hiragino Kaku Gothic ProN&quot;&gt;&lt;span style=&quot;font-size: 36px;&quot;&gt;⑥ 降ってくる組ぷよの一覧&lt;/span&gt;&lt;/font&gt;&lt;/div&gt;" style="text;html=1;align=left;verticalAlign=middle;whiteSpace=wrap;rounded=0;fontFamily=Hiragino Kaku Gothic ProN W3;" parent="1" vertex="1">
          <mxGeometry x="840" y="3.5" width="600" height="273" as="geometry" />
        </mxCell>
        <mxCell id="cKSOxROYp1qDdP5C8qVP-13" value="&lt;div&gt;&lt;font face=&quot;Hiragino Kaku Gothic ProN&quot;&gt;&lt;span style=&quot;font-size: 36px;&quot;&gt;⑤ 操作パネル&lt;/span&gt;&lt;/font&gt;&lt;/div&gt;" style="text;html=1;align=left;verticalAlign=middle;whiteSpace=wrap;rounded=0;fontFamily=Hiragino Kaku Gothic ProN W3;" parent="1" vertex="1">
          <mxGeometry x="840" y="350" width="600" height="58" as="geometry" />
        </mxCell>
        <mxCell id="cKSOxROYp1qDdP5C8qVP-16" value="&lt;span style=&quot;font-size: 36px; font-family: &amp;quot;Hiragino Kaku Gothic ProN&amp;quot;; background-color: initial;&quot;&gt;・&lt;b&gt;基本的に下2段のみ使用&lt;/b&gt;&lt;/span&gt;&lt;br&gt;&lt;div&gt;&lt;font face=&quot;Hiragino Kaku Gothic ProN&quot;&gt;&lt;span style=&quot;font-size: 36px;&quot;&gt;・赤字はキーボードショートカット&lt;/span&gt;&lt;/font&gt;&lt;/div&gt;&lt;div&gt;&lt;font face=&quot;Hiragino Kaku Gothic ProN&quot;&gt;&lt;span style=&quot;font-size: 36px;&quot;&gt;・2か所の「1手戻る」は同一機能&lt;/span&gt;&lt;/font&gt;&lt;/div&gt;" style="text;html=1;align=left;verticalAlign=middle;whiteSpace=wrap;rounded=0;fontFamily=Hiragino Kaku Gothic ProN W3;" parent="1" vertex="1">
          <mxGeometry x="840" y="420" width="600" height="150" as="geometry" />
        </mxCell>
        <mxCell id="cKSOxROYp1qDdP5C8qVP-56" value="" style="group" parent="1" vertex="1" connectable="0">
          <mxGeometry x="860" y="590" width="540" height="330" as="geometry" />
        </mxCell>
        <mxCell id="cKSOxROYp1qDdP5C8qVP-17" value="" style="shape=table;startSize=0;container=1;collapsible=0;childLayout=tableLayout;fontSize=16;fontFamily=Hiragino Kaku Gothic ProN;" parent="cKSOxROYp1qDdP5C8qVP-56" vertex="1">
          <mxGeometry y="80" width="539.9999999999999" height="250" as="geometry" />
        </mxCell>
        <mxCell id="cKSOxROYp1qDdP5C8qVP-18" value="" style="shape=tableRow;horizontal=0;startSize=0;swimlaneHead=0;swimlaneBody=0;strokeColor=inherit;top=0;left=0;bottom=0;right=0;collapsible=0;dropTarget=0;fillColor=none;points=[[0,0.5],[1,0.5]];portConstraint=eastwest;fontSize=16;" parent="cKSOxROYp1qDdP5C8qVP-17" vertex="1">
          <mxGeometry width="539.9999999999999" height="83" as="geometry" />
        </mxCell>
        <mxCell id="cKSOxROYp1qDdP5C8qVP-19" value="&lt;font style=&quot;font-size: 28px;&quot; face=&quot;Hiragino Kaku Gothic ProN&quot;&gt;最初に戻る&lt;/font&gt;&lt;div style=&quot;font-size: 28px;&quot;&gt;&lt;font style=&quot;font-size: 28px;&quot; color=&quot;#ff0000&quot; face=&quot;Hiragino Kaku Gothic ProN&quot;&gt;1&lt;/font&gt;&lt;/div&gt;" style="shape=partialRectangle;html=1;whiteSpace=wrap;connectable=0;strokeColor=inherit;overflow=hidden;fillColor=#f3f4f6;top=0;left=0;bottom=0;right=0;pointerEvents=1;fontSize=16;" parent="cKSOxROYp1qDdP5C8qVP-18" vertex="1">
          <mxGeometry width="177" height="83" as="geometry">
            <mxRectangle width="177" height="83" as="alternateBounds" />
          </mxGeometry>
        </mxCell>
        <mxCell id="cKSOxROYp1qDdP5C8qVP-20" value="&lt;font style=&quot;font-size: 28px;&quot; face=&quot;Hiragino Kaku Gothic ProN&quot;&gt;1手戻る&lt;/font&gt;&lt;div style=&quot;font-size: 28px;&quot;&gt;&lt;font style=&quot;font-size: 28px;&quot; color=&quot;#ff0000&quot; face=&quot;Hiragino Kaku Gothic ProN&quot;&gt;2&lt;/font&gt;&lt;/div&gt;" style="shape=partialRectangle;html=1;whiteSpace=wrap;connectable=0;strokeColor=inherit;overflow=hidden;fillColor=#f3f4f6;top=0;left=0;bottom=0;right=0;pointerEvents=1;fontSize=16;" parent="cKSOxROYp1qDdP5C8qVP-18" vertex="1">
          <mxGeometry x="177" width="186" height="83" as="geometry">
            <mxRectangle width="186" height="83" as="alternateBounds" />
          </mxGeometry>
        </mxCell>
        <mxCell id="cKSOxROYp1qDdP5C8qVP-21" value="&lt;font style=&quot;font-size: 28px;&quot; face=&quot;Hiragino Kaku Gothic ProN&quot;&gt;1手進む&lt;/font&gt;&lt;div style=&quot;font-size: 28px;&quot;&gt;&lt;font style=&quot;font-size: 28px;&quot; color=&quot;#ff0000&quot; face=&quot;Hiragino Kaku Gothic ProN&quot;&gt;3&lt;/font&gt;&lt;/div&gt;" style="shape=partialRectangle;html=1;whiteSpace=wrap;connectable=0;strokeColor=inherit;overflow=hidden;fillColor=#f3f4f6;top=0;left=0;bottom=0;right=0;pointerEvents=1;fontSize=16;" parent="cKSOxROYp1qDdP5C8qVP-18" vertex="1">
          <mxGeometry x="363" width="177" height="83" as="geometry">
            <mxRectangle width="177" height="83" as="alternateBounds" />
          </mxGeometry>
        </mxCell>
        <mxCell id="cKSOxROYp1qDdP5C8qVP-22" value="" style="shape=tableRow;horizontal=0;startSize=0;swimlaneHead=0;swimlaneBody=0;strokeColor=inherit;top=0;left=0;bottom=0;right=0;collapsible=0;dropTarget=0;fillColor=none;points=[[0,0.5],[1,0.5]];portConstraint=eastwest;fontSize=16;" parent="cKSOxROYp1qDdP5C8qVP-17" vertex="1">
          <mxGeometry y="83" width="539.9999999999999" height="84" as="geometry" />
        </mxCell>
        <mxCell id="cKSOxROYp1qDdP5C8qVP-23" value="&lt;font style=&quot;font-size: 28px;&quot; face=&quot;Hiragino Kaku Gothic ProN&quot;&gt;左回転&lt;/font&gt;&lt;div style=&quot;font-size: 28px;&quot;&gt;&lt;font style=&quot;font-size: 28px;&quot; face=&quot;Hiragino Kaku Gothic ProN&quot;&gt;&lt;font style=&quot;font-size: 28px;&quot; color=&quot;#ff0000&quot;&gt;J&lt;/font&gt;&lt;/font&gt;&lt;/div&gt;" style="shape=partialRectangle;html=1;whiteSpace=wrap;connectable=0;strokeColor=inherit;overflow=hidden;fillColor=#66d1ff;top=0;left=0;bottom=0;right=0;pointerEvents=1;fontSize=16;" parent="cKSOxROYp1qDdP5C8qVP-22" vertex="1">
          <mxGeometry width="177" height="84" as="geometry">
            <mxRectangle width="177" height="84" as="alternateBounds" />
          </mxGeometry>
        </mxCell>
        <mxCell id="cKSOxROYp1qDdP5C8qVP-24" value="&lt;font style=&quot;font-size: 28px;&quot; face=&quot;Hiragino Kaku Gothic ProN&quot;&gt;1手戻る&lt;/font&gt;&lt;div style=&quot;font-size: 28px;&quot;&gt;&lt;font style=&quot;font-size: 28px;&quot; color=&quot;#ff0000&quot; face=&quot;Hiragino Kaku Gothic ProN&quot;&gt;W&lt;/font&gt;&lt;/div&gt;" style="shape=partialRectangle;html=1;whiteSpace=wrap;connectable=0;strokeColor=inherit;overflow=hidden;fillColor=#f3f4f6;top=0;left=0;bottom=0;right=0;pointerEvents=1;fontSize=16;" parent="cKSOxROYp1qDdP5C8qVP-22" vertex="1">
          <mxGeometry x="177" width="186" height="84" as="geometry">
            <mxRectangle width="186" height="84" as="alternateBounds" />
          </mxGeometry>
        </mxCell>
        <mxCell id="cKSOxROYp1qDdP5C8qVP-25" value="&lt;font style=&quot;font-size: 28px;&quot; face=&quot;Hiragino Kaku Gothic ProN&quot;&gt;右回転&lt;/font&gt;&lt;div style=&quot;font-size: 28px;&quot;&gt;&lt;font style=&quot;font-size: 28px;&quot; color=&quot;#ff0000&quot; face=&quot;Hiragino Kaku Gothic ProN&quot;&gt;K&lt;/font&gt;&lt;/div&gt;" style="shape=partialRectangle;html=1;whiteSpace=wrap;connectable=0;strokeColor=inherit;overflow=hidden;fillColor=#66d1ff;top=0;left=0;bottom=0;right=0;pointerEvents=1;fontSize=16;" parent="cKSOxROYp1qDdP5C8qVP-22" vertex="1">
          <mxGeometry x="363" width="177" height="84" as="geometry">
            <mxRectangle width="177" height="84" as="alternateBounds" />
          </mxGeometry>
        </mxCell>
        <mxCell id="cKSOxROYp1qDdP5C8qVP-26" value="" style="shape=tableRow;horizontal=0;startSize=0;swimlaneHead=0;swimlaneBody=0;strokeColor=inherit;top=0;left=0;bottom=0;right=0;collapsible=0;dropTarget=0;fillColor=none;points=[[0,0.5],[1,0.5]];portConstraint=eastwest;fontSize=16;" parent="cKSOxROYp1qDdP5C8qVP-17" vertex="1">
          <mxGeometry y="167" width="539.9999999999999" height="83" as="geometry" />
        </mxCell>
        <mxCell id="cKSOxROYp1qDdP5C8qVP-27" value="&lt;font style=&quot;font-size: 28px;&quot; face=&quot;Hiragino Kaku Gothic ProN&quot;&gt;左に移動&lt;/font&gt;&lt;div style=&quot;font-size: 28px;&quot;&gt;&lt;font style=&quot;font-size: 28px;&quot; color=&quot;#ff0000&quot; face=&quot;Hiragino Kaku Gothic ProN&quot;&gt;A&lt;/font&gt;&lt;/div&gt;" style="shape=partialRectangle;html=1;whiteSpace=wrap;connectable=0;strokeColor=inherit;overflow=hidden;fillColor=#66d1ff;top=0;left=0;bottom=0;right=0;pointerEvents=1;fontSize=16;" parent="cKSOxROYp1qDdP5C8qVP-26" vertex="1">
          <mxGeometry width="177" height="83" as="geometry">
            <mxRectangle width="177" height="83" as="alternateBounds" />
          </mxGeometry>
        </mxCell>
        <mxCell id="cKSOxROYp1qDdP5C8qVP-28" value="&lt;font style=&quot;font-size: 28px;&quot; face=&quot;Hiragino Kaku Gothic ProN&quot;&gt;落下/1手進む&lt;/font&gt;&lt;div style=&quot;font-size: 28px;&quot;&gt;&lt;font style=&quot;font-size: 28px;&quot; color=&quot;#ff0000&quot; face=&quot;Hiragino Kaku Gothic ProN&quot;&gt;S&lt;/font&gt;&lt;/div&gt;" style="shape=partialRectangle;html=1;whiteSpace=wrap;connectable=0;strokeColor=inherit;overflow=hidden;fillColor=#66d1ff;top=0;left=0;bottom=0;right=0;pointerEvents=1;fontSize=16;" parent="cKSOxROYp1qDdP5C8qVP-26" vertex="1">
          <mxGeometry x="177" width="186" height="83" as="geometry">
            <mxRectangle width="186" height="83" as="alternateBounds" />
          </mxGeometry>
        </mxCell>
        <mxCell id="cKSOxROYp1qDdP5C8qVP-29" value="&lt;font style=&quot;font-size: 28px;&quot; face=&quot;Hiragino Kaku Gothic ProN&quot;&gt;右に移動&lt;/font&gt;&lt;div style=&quot;font-size: 28px;&quot;&gt;&lt;font style=&quot;font-size: 28px;&quot; color=&quot;#ff0000&quot; face=&quot;Hiragino Kaku Gothic ProN&quot;&gt;D&lt;/font&gt;&lt;/div&gt;" style="shape=partialRectangle;html=1;whiteSpace=wrap;connectable=0;strokeColor=inherit;overflow=hidden;fillColor=#66d1ff;top=0;left=0;bottom=0;right=0;pointerEvents=1;fontSize=16;" parent="cKSOxROYp1qDdP5C8qVP-26" vertex="1">
          <mxGeometry x="363" width="177" height="83" as="geometry">
            <mxRectangle width="177" height="83" as="alternateBounds" />
          </mxGeometry>
        </mxCell>
        <mxCell id="cKSOxROYp1qDdP5C8qVP-43" value="" style="shape=table;startSize=0;container=1;collapsible=0;childLayout=tableLayout;fontSize=16;" parent="cKSOxROYp1qDdP5C8qVP-56" vertex="1">
          <mxGeometry x="41.08695652173914" width="457.8260869565218" height="80" as="geometry" />
        </mxCell>
        <mxCell id="cKSOxROYp1qDdP5C8qVP-48" value="" style="shape=tableRow;horizontal=0;startSize=0;swimlaneHead=0;swimlaneBody=0;strokeColor=inherit;top=0;left=0;bottom=0;right=0;collapsible=0;dropTarget=0;fillColor=none;points=[[0,0.5],[1,0.5]];portConstraint=eastwest;fontSize=16;" parent="cKSOxROYp1qDdP5C8qVP-43" vertex="1">
          <mxGeometry width="457.8260869565218" height="80" as="geometry" />
        </mxCell>
        <mxCell id="cKSOxROYp1qDdP5C8qVP-49" value="&lt;font style=&quot;font-size: 28px;&quot; face=&quot;Hiragino Kaku Gothic ProN&quot;&gt;1ステップ戻る&lt;/font&gt;&lt;div style=&quot;font-size: 28px;&quot;&gt;&lt;font style=&quot;font-size: 28px;&quot; color=&quot;#ff0000&quot; face=&quot;Hiragino Kaku Gothic ProN&quot;&gt;Shift+2&lt;/font&gt;&lt;/div&gt;" style="shape=partialRectangle;html=1;whiteSpace=wrap;connectable=0;strokeColor=inherit;overflow=hidden;fillColor=#f3f4f6;top=0;left=0;bottom=0;right=0;pointerEvents=1;fontSize=16;" parent="cKSOxROYp1qDdP5C8qVP-48" vertex="1">
          <mxGeometry width="227" height="80" as="geometry">
            <mxRectangle width="227" height="80" as="alternateBounds" />
          </mxGeometry>
        </mxCell>
        <mxCell id="cKSOxROYp1qDdP5C8qVP-50" value="&lt;font style=&quot;font-size: 28px;&quot; face=&quot;Hiragino Kaku Gothic ProN&quot;&gt;1手飛ばす&lt;/font&gt;&lt;div style=&quot;font-size: 28px;&quot;&gt;&lt;font style=&quot;font-size: 28px;&quot; face=&quot;XrZFcxHedmnlFJUm1AtA&quot; color=&quot;#ff0000&quot;&gt;Space&lt;/font&gt;&lt;/div&gt;" style="shape=partialRectangle;html=1;whiteSpace=wrap;connectable=0;strokeColor=inherit;overflow=hidden;fillColor=#f3f4f6;top=0;left=0;bottom=0;right=0;pointerEvents=1;fontSize=16;" parent="cKSOxROYp1qDdP5C8qVP-48" vertex="1">
          <mxGeometry x="227" width="231" height="80" as="geometry">
            <mxRectangle width="231" height="80" as="alternateBounds" />
          </mxGeometry>
        </mxCell>
      </root>
    </mxGraphModel>
  </diagram>
</mxfile>
